SplineFontDB: 3.2
FontName: FunkySample
FullName: FunkySample
FamilyName: FunkySample
Weight: Regular
Copyright: Copyright (c) 2021 Mikhail Merkuryev\nYou just DO WHAT THE FUNK YOU WANT TO.
UComments: "2021-9-15: Created with FontForge (http://fontforge.org)"
Version: 001.000
ItalicAngle: 0
UnderlinePosition: -125
UnderlineWidth: 50
Ascent: 800
Descent: 200
InvalidEm: 0
LayerCount: 2
Layer: 0 1 "+BBcEMAQ0BD0EOAQ5 +BD8EOwQwBD0A" 1
Layer: 1 1 "+BB8ENQRABDUENAQ9BDgEOQAA +BD8EOwQwBD0A" 0
XUID: [1021 59 1751208496 15025]
FSType: 0
OS2Version: 0
OS2_WeightWidthSlopeOnly: 0
OS2_UseTypoMetrics: 0
CreationTime: 1631732133
ModificationTime: 1643975545
PfmFamily: 33
TTFWeight: 400
TTFWidth: 5
LineGap: 0
VLineGap: 0
OS2TypoAscent: 0
OS2TypoAOffset: 1
OS2TypoDescent: 0
OS2TypoDOffset: 1
OS2TypoLinegap: 0
OS2WinAscent: 1069
OS2WinAOffset: 0
OS2WinDescent: 0
OS2WinDOffset: 1
HheadAscent: 0
HheadAOffset: 1
HheadDescent: 0
HheadDOffset: 1
OS2Vendor: 'Merc'
OS2CodePages: 00000007.00000000
OS2UnicodeRanges: a8200241.9200a086.01000008.00000000
Lookup: 4 0 1 "Umlaut RLIG" { "Umlaut RLIG-1"  } ['rlig' ('DFLT' <'dflt' > ) ]
Lookup: 258 0 0 "Toto KERN" { "Toto KERN-1" [150,15,0] } ['kern' ('DFLT' <'dflt' > 'toto' <'dflt' > ) ]
Lookup: 257 1 0 "Single Positioning in 'Chrs' lookup 0" { "Chrs"  } ['Chrs' ('Chrs' <'dflt' > ) ]
MarkAttachClasses: 1
DEI: 91125
ShortTable: maxp 16
  0
  0
  0
  0
  0
  0
  0
  2
  1
  2
  22
  0
  256
  0
  0
  0
EndShort
TtTable: prep
PUSHW_1
 511
SCANCTRL
PUSHB_1
 1
SCANTYPE
SVTCA[y-axis]
MPPEM
PUSHB_1
 8
LT
IF
PUSHB_2
 1
 1
INSTCTRL
EIF
PUSHB_2
 70
 6
CALL
IF
POP
PUSHB_1
 16
EIF
MPPEM
PUSHB_1
 20
GT
IF
POP
PUSHB_1
 128
EIF
SCVTCI
PUSHB_1
 6
CALL
NOT
IF
EIF
PUSHB_1
 20
CALL
EndTTInstrs
TtTable: fpgm
PUSHB_1
 0
FDEF
PUSHB_1
 0
SZP0
MPPEM
PUSHB_1
 42
LT
IF
PUSHB_1
 74
SROUND
EIF
PUSHB_1
 0
SWAP
MIAP[rnd]
RTG
PUSHB_1
 6
CALL
IF
RTDG
EIF
MPPEM
PUSHB_1
 42
LT
IF
RDTG
EIF
DUP
MDRP[rp0,rnd,grey]
PUSHB_1
 1
SZP0
MDAP[no-rnd]
RTG
ENDF
PUSHB_1
 1
FDEF
DUP

StartChar: SmallCircle
Encoding: 1114112 -1 0
Width: 0
HStem: -39.9922 79.9844<-27.9172 27.9172>
VStem: -39.9922 79.9844<-27.9172 27.9172>
LayerCount: 2
Fore
SplineSet
-39.9921875 -0 m 132,-1,1
 -39.9921875 16.5776366577 -39.9921875 16.5776366577 -28.2841796875 28.2841796875 c 128,-1,2
 -16.5776366577 39.9921875 -16.5776366577 39.9921875 0 39.9921875 c 128,-1,3
 16.5776366577 39.9921875 16.5776366577 39.9921875 28.2841796875 28.2841796875 c 128,-1,4
 39.9921875 16.5776366577 39.9921875 16.5776366577 39.9921875 0 c 128,-1,5
 39.9921875 -16.5776366577 39.9921875 -16.5776366577 28.2841796875 -28.2841796875 c 128,-1,6
 16.5776366577 -39.9921875 16.5776366577 -39.9921875 0 -39.9921875 c 128,-1,7
 -16.5776366577 -39.9921875 -16.5776366577 -39.9921875 -28.2841796875 -28.2841796875 c 128,-1,0
 -39.9921875 -16.5776366577 -39.9921875 -16.5776366577 -39.9921875 -0 c 132,-1,1
EndSplineSet
Validated: 3073
EndChar

StartChar: uni25CC
Encoding: 9676 9676 1
Width: 594
Flags: W
HStem: 42 52<271.383 315.265> 60 52<187.383 231.265 355.383 399.265> 107 52<113.383 157.265 429.383 473.265> 181 52<66.3828 110.265 476.383 520.265> 265 52<48.3828 92.2648 494.383 538.265> 349 52<66.3828 110.265 476.383 520.265> 423 52<113.383 157.265 429.383 473.265> 470 52<187.383 231.265 355.383 399.265> 488 52<271.383 315.265>
VStem: 48 52<265.383 309.265> 66 52<181.383 225.265 349.383 393.265> 113 52<107.383 151.265 423.383 467.265> 187 52<60.3828 104.265 470.383 514.265> 271 52<42.3828 86.2648 488.383 532.265> 355 52<60.3828 104.265 470.383 514.265> 429 52<107.383 151.265 423.383 467.265> 476 52<181.383 225.265 349.383 393.265> 494 52<265.383 309.265>
LayerCount: 2
Fore
SplineSet
297 488 m 0,0,1
 286.9995 488 286.9995 488 279 496 c 128,-1,2
 271.0005 503.9995 271.0005 503.9995 271 514 c 0,3,4
 271 524.9995 271 524.9995 279 532.5 c 128,-1,5
 286.9995 540 286.9995 540 297 540 c 0,6,7
 307.9995 540 307.9995 540 315.5 532.5 c 128,-1,8
 323 525 323 525 323 514 c 0,9,10
 323 503.9995 323 503.9995 315.5 496 c 128,-1,11
 308 488.0005 308 488.0005 297 488 c 0,0,1
213 470 m 0,12,13
 202.9995 470 202.9995 470 195 478 c 128,-1,14
 187.0005 485.9995 187.0005 485.9995 187 496 c 0,15,16
 187 506.9995 187 506.9995 195 514.5 c 128,-1,17
 202.9995 522 202.9995 522 213 522 c 0,18,19
 223.9995 522 223.9995 522 231.5 514.5 c 128,-1,20
 239 507 239 507 239 496 c 0,21,22
 239 485.9995 239 485.9995 231.5 478 c 128,-1,23
 224 470.0005 224 470.0005 213 470 c 0,12,13
381 470 m 0,24,25
 370.9995 470 370.9995 470 363 478 c 128,-1,26
 355.0005 485.9995 355.0005 485.9995 355 496 c 0,27,28
 355 506.9995 355 506.9995 363 514.5 c 128,-1,29
 370.9995 522 370.9995 522 381 522 c 0,30,31
 391.9995 522 391.9995 522 399.5 514.5 c 128,-1,32
 407 507 407 507 407 496 c 0,33,34
 407 485.9995 407 485.9995 399.5 478 c 128,-1,35
 392 470.0005 392 470.0005 381 470 c 0,24,25
455 423 m 0,36,37
 444.9995 423 444.9995 423 437 431 c 128,-1,38
 429.0005 438.9995 429.0005 438.9995 429 449 c 0,39,40
 429 459.9995 429 459.9995 437 467.5 c 128,-1,41
 444.9995 475 444.9995 475 455 475 c 0,42,43
 465.9995 475 465.9995 475 473.5 467.5 c 128,-1,44
 481 460 481 460 481 449 c 0,45,46
 481 438.9995 481 438.9995 473.5 431 c 128,-1,47
 466 423.0005 466 423.0005 455 423 c 0,36,37
139 423 m 0,48,49
 128.9995 423 128.9995 423 121 431 c 128,-1,50
 113.0005 438.9995 113.0005 438.9995 113 449 c 0,51,52
 113 459.9995 113 459.9995 121 467.5 c 128,-1,53
 128.9995 475 128.9995 475 139 475 c 0,54,55
 149.9995 475 149.9995 475 157.5 467.5 c 128,-1,56
 165 460 165 460 165 449 c 0,57,58
 165 438.9995 165 438.9995 157.5 431 c 128,-1,59
 150 423.0005 150 423.0005 139 423 c 0,48,49
92 349 m 0,60,61
 81.99995 349 81.99995 349 74 357 c 128,-1,62
 66.00005 364.9995 66.00005 364.9995 66 375 c 0,63,64
 66 385.9995 66 385.9995 74 393.5 c 128,-1,65
 81.99995 401 81.99995 401 92 401 c 0,66,67
 102.99995 401 102.99995 401 110.5 393.5 c 128,-1,68
 118 386 118 386 118 375 c 0,69,70
 118 364.9995 118 364.9995 110.5 357 c 128,-1,71
 103 349.0005 103 349.0005 92 349 c 0,60,61
502 349 m 0,72,73
 491.9995 349 491.9995 349 484 357 c 128,-1,74
 476.0005 364.9995 476.0005 364.9995 476 375 c 0,75,76
 476 385.9995 476 385.9995 484 393.5 c 128,-1,77
 491.9995 401 491.9995 401 502 401 c 0,78,79
 512.9995 401 512.9995 401 520.5 393.5 c 128,-1,80
 528 386 528 386 528 375 c 0,81,82
 528 364.9995 528 364.9995 520.5 357 c 128,-1,83
 513 349.0005 513 349.0005 502 349 c 0,72,73
74 265 m 0,84,85
 63.99995 265 63.99995 265 56 273 c 128,-1,86
 48.00005 280.9995 48.00005 280.9995 48 291 c 4,87,88
 48 301.9995 48 301.9995 56 309.5 c 128,-1,89
 63.99995 317 63.99995 317 74 317 c 0,90,91
 84.99995 317 84.99995 317 92.5 309.5 c 128,-1,92
 100 302 100 302 100 291 c 0,93,94
 100 280.9995 100 280.9995 92.5 273 c 128,-1,95
 85 265.0005 85 265.0005 74 265 c 0,84,85
520 265 m 0,96,97
 509.9995 265 509.9995 265 502 273 c 128,-1,98
 494.0005 280.9995 494.0005 280.9995 494 291 c 0,99,100
 494 301.9995 494 301.9995 502 309.5 c 128,-1,101
 509.9995 317 509.9995 317 520 317 c 0,102,103
 530.9995 317 530.9995 317 538.5 309.5 c 128,-1,104
 546 302 546 302 546 291 c 0,105,106
 546 280.9995 546 280.9995 538.5 273 c 128,-1,107
 531 265.0005 531 265.0005 520 265 c 0,96,97
92 181 m 0,108,109
 81.99995 181 81.99995 181 74 189 c 128,-1,110
 66.00005 196.9995 66.00005 196.9995 66 207 c 0,111,112
 66 217.9995 66 217.9995 74 225.5 c 128,-1,113
 81.99995 233 81.99995 233 92 233 c 0,114,115
 102.99995 233 102.99995 233 110.5 225.5 c 128,-1,116
 118 218 118 218 118 207 c 0,117,118
 118 196.9995 118 196.9995 110.5 189 c 128,-1,119
 103 181.0005 103 181.0005 92 181 c 0,108,109
502 181 m 0,120,121
 491.9995 181 491.9995 181 484 189 c 128,-1,122
 476.0005 196.9995 476.0005 196.9995 476 207 c 0,123,124
 476 217.9995 476 217.9995 484 225.5 c 128,-1,125
 491.9995 233 491.9995 233 502 233 c 0,126,127
 512.9995 233 512.9995 233 520.5 225.5 c 128,-1,128
 528 218 528 218 528 207 c 0,129,130
 528 196.9995 528 196.9995 520.5 189 c 128,-1,131
 513 181.0005 513 181.0005 502 181 c 0,120,121
139 107 m 0,132,133
 128.9995 107 128.9995 107 121 115 c 128,-1,134
 113.0005 122.9995 113.0005 122.9995 113 133 c 0,135,136
 113 143.9995 113 143.9995 121 151.5 c 128,-1,137
 128.9995 159 128.9995 159 139 159 c 0,138,139
 149.9995 159 149.9995 159 157.5 151.5 c 128,-1,140
 165 144 165 144 165 133 c 0,141,142
 165 122.9995 165 122.9995 157.5 115 c 128,-1,143
 150 107.0005 150 107.0005 139 107 c 0,132,133
455 107 m 0,144,145
 444.9995 107 444.9995 107 437 115 c 128,-1,146
 429.0005 122.9995 429.0005 122.9995 429 133 c 0,147,148
 429 143.9995 429 143.9995 437 151.5 c 128,-1,149
 444.9995 159 444.9995 159 455 159 c 0,150,151
 465.9995 159 465.9995 159 473.5 151.5 c 128,-1,152
 481 144 481 144 481 133 c 0,153,154
 481 122.9995 481 122.9995 473.5 115 c 128,-1,155
 466 107.0005 466 107.0005 455 107 c 0,144,145
213 60 m 0,156,157
 202.9995 60 202.9995 60 195 68 c 128,-1,158
 187.0005 75.99995 187.0005 75.99995 187 86 c 0,159,160
 187 96.99995 187 96.99995 195 104.5 c 128,-1,161
 202.9995 112 202.9995 112 213 112 c 0,162,163
 223.9995 112 223.9995 112 231.5 104.5 c 128,-1,164
 239 97 239 97 239 86 c 0,165,166
 239 75.99995 239 75.99995 231.5 68 c 128,-1,167
 224 60.00005 224 60.00005 213 60 c 0,156,157
381 60 m 0,168,169
 370.9995 60 370.9995 60 363 68 c 128,-1,170
 355.0005 75.99995 355.0005 75.99995 355 86 c 0,171,172
 355 96.99995 355 96.99995 363 104.5 c 128,-1,173
 370.9995 112 370.9995 112 381 112 c 0,174,175
 391.9995 112 391.9995 112 399.5 104.5 c 128,-1,176
 407 97 407 97 407 86 c 0,177,178
 407 75.99995 407 75.99995 399.5 68 c 128,-1,179
 392 60.00005 392 60.00005 381 60 c 0,168,169
297 42 m 0,180,181
 286.9995 42 286.9995 42 279 50 c 128,-1,182
 271.0005 57.99995 271.0005 57.99995 271 68 c 0,183,184
 271 78.99995 271 78.99995 279 86.5 c 128,-1,185
 286.9995 94 286.9995 94 297 94 c 0,186,187
 307.9995 94 307.9995 94 315.5 86.5 c 128,-1,188
 323 79 323 79 323 68 c 0,189,190
 323 57.99995 323 57.99995 315.5 50 c 128,-1,191
 308 42.00005 308 42.00005 297 42 c 0,180,181
EndSplineSet
Validated: 19457
EndChar

StartChar: uniFE73
Encoding: 65139 65139 2
Width: 356
Flags: W
LayerCount: 2
Fore
SplineSet
364 72 m 5,0,-1
 378 0 l 1,1,2
 343.999511718 -18 343.999511718 -18 314.5 -27 c 128,-1,3
 284.999511718 -36 284.999511718 -36 249 -36 c 0,4,5
 163.999511718 -36 163.999511718 -36 116 13 c 128,-1,6
 68 62.0004882812 68 62.0004882812 68 152 c 0,7,8
 68 171.999511718 68 171.999511718 69.5 189 c 128,-1,9
 71 205.999511718 71 205.999511718 75 227.5 c 128,-1,10
 79.0004882812 248.999511718 79.0004882812 248.999511718 87 282 c 1,11,-1
 124 273 l 1,12,13
 113.000488282 226.999511718 113.000488282 226.999511718 113 202 c 0,14,15
 113 128.999511718 113 128.999511718 149.5 88 c 128,-1,16
 185.999511718 47.0004882812 185.999511718 47.0004882812 251 47 c 0,17,18
 284.999511718 47 284.999511718 47 319 54.5 c 128,-1,19
 353.000488282 62 353.000488282 62 364 72 c 5,0,-1
EndSplineSet
Validated: 1
EndChar

StartChar: uni23EB
Encoding: 9195 9195 3
Width: 640
Flags: W
LayerCount: 2
Fore
SplineSet
315.19921875 400 m 1,0,-1
 635.19921875 80 l 1,1,-1
 -4.80078125 80 l 1,2,-1
 315.19921875 400 l 1,0,-1
320 720 m 1,3,-1
 640 400 l 1,4,-1
 0 400 l 1,5,-1
 320 720 l 1,3,-1
EndSplineSet
Validated: 5
EndChar

StartChar: uni23EC
Encoding: 9196 9196 4
Width: 640
Flags: W
LayerCount: 2
Fore
SplineSet
315.19921875 400 m 5,0,-1
 -4.80078125 720 l 1,1,-1
 635.19921875 720 l 1,2,-1
 315.19921875 400 l 5,0,-1
320 80 m 5,3,-1
 0 400 l 1,4,-1
 640 400 l 1,5,-1
 320 80 l 5,3,-1
EndSplineSet
Validated: 5
EndChar

StartChar: uni23F0
Encoding: 9200 9200 5
Width: 907
Flags: W
HStem: -200 92<146.923 211.077 729.923 794.077> -200 51<345.392 592.608> 162 76<442.345 495.655> 549 51<345.392 592.608> 761 35<161.688 308.419 608.593 754.638>
VStem: 38 36<534.781 672.009> 69 51<76.3921 323.608> 133 92<-186.077 -121.923> 431 76<173.345 226.655> 716 92<-186.077 -121.923> 818 51<76.3921 323.608> 844 35<534.781 672.961>
LayerCount: 2
Fore
SplineSet
235 761 m 0,0,1
 166 761 166 761 121 713 c 0,2,3
 74 663 74 663 74 600 c 0,4,5
 74 566 74 566 88 534 c 1,6,-1
 361 700 l 1,7,8
 313 761 313 761 235 761 c 0,0,1
785 767 m 0,9,10
 854 725 854 725 873 646 c 0,11,12
 879 621 879 621 879 598 c 0,13,14
 879 546 879 546 850 498 c 2,15,-1
 843 485 l 1,16,-1
 508 689 l 1,17,-1
 515 701 l 2,18,19
 573 796 573 796 685 796 c 0,20,21
 737 796 737 796 785 767 c 0,9,10
469 549 m 128,-1,23
 374 549 374 549 293.5 502.5 c 128,-1,24
 213 456 213 456 166.5 375.5 c 128,-1,25
 120 295 120 295 120 200 c 128,-1,26
 120 105 120 105 166.5 24.5 c 128,-1,27
 213 -56 213 -56 293.5 -102.5 c 128,-1,28
 374 -149 374 -149 469 -149 c 128,-1,29
 564 -149 564 -149 644.5 -102.5 c 128,-1,30
 725 -56 725 -56 771.5 24.5 c 128,-1,31
 818 105 818 105 818 200 c 128,-1,32
 818 295 818 295 771.5 375.5 c 128,-1,33
 725 456 725 456 644.5 502.5 c 128,-1,22
 564 549 564 549 469 549 c 128,-1,23
469 -200 m 128,-1,35
 360 -200 360 -200 268 -146.5 c 128,-1,36
 176 -93 176 -93 122.5 -1 c 128,-1,37
 69 91 69 91 69 200 c 128,-1,38
 69 309 69 309 122.5 401 c 128,-1,39
 176 493 176 493 268 546.5 c 128,-1,40
 360 600 360 600 469 600 c 128,-1,41
 578 600 578 600 670 546.5 c 128,-1,42
 762 493 762 493 815.5 401 c 128,-1,43
 869 309 869 309 869 200 c 128,-1,44
 869 91 869 91 815.5 -1 c 128,-1,45
 762 -93 762 -93 670 -146.5 c 128,-1,34
 578 -200 578 -200 469 -200 c 128,-1,35
133 -154 m 128,-1,47
 133 -135 133 -135 146.5 -121.5 c 128,-1,48
 160 -108 160 -108 179 -108 c 128,-1,49
 198 -108 198 -108 211.5 -121.5 c 128,-1,50
 225 -135 225 -135 225 -154 c 128,-1,51
 225 -173 225 -173 211.5 -186.5 c 128,-1,52
 198 -200 198 -200 179 -200 c 128,-1,53
 160 -200 160 -200 146.5 -186.5 c 128,-1,46
 133 -173 133 -173 133 -154 c 128,-1,47
716 -154 m 128,-1,55
 716 -135 716 -135 729.5 -121.5 c 128,-1,56
 743 -108 743 -108 762 -108 c 128,-1,57
 781 -108 781 -108 794.5 -121.5 c 128,-1,58
 808 -135 808 -135 808 -154 c 128,-1,59
 808 -173 808 -173 794.5 -186.5 c 128,-1,60
 781 -200 781 -200 762 -200 c 128,-1,61
 743 -200 743 -200 729.5 -186.5 c 128,-1,54
 716 -173 716 -173 716 -154 c 128,-1,55
431 200 m 128,-1,63
 431 216 431 216 442 227 c 128,-1,64
 453 238 453 238 469 238 c 128,-1,65
 485 238 485 238 496 227 c 128,-1,66
 507 216 507 216 507 200 c 128,-1,67
 507 184 507 184 496 173 c 128,-1,68
 485 162 485 162 469 162 c 128,-1,69
 453 162 453 162 442 173 c 128,-1,62
 431 184 431 184 431 200 c 128,-1,63
223 354 m 1,70,-1
 243 382 l 1,71,-1
 427 252 l 1,72,-1
 406 223 l 1,73,-1
 223 354 l 1,70,-1
510 254 m 1,74,-1
 635 327 l 1,75,-1
 660 283 l 1,76,-1
 536 210 l 1,77,-1
 510 254 l 1,74,-1
133 767 m 0,78,79
 181 796 181 796 233 796 c 0,80,81
 345 796 345 796 410 689 c 1,82,-1
 75 485 l 1,83,-1
 67 498 l 2,84,85
 38 546 38 546 38 598 c 0,86,87
 38 622 38 622 44 646 c 0,88,89
 64 725 64 725 133 767 c 0,78,79
844 600 m 0,90,91
 844 667 844 667 797 713 c 0,92,93
 783 727 783 727 767 737 c 0,94,95
 728 761 728 761 683 761 c 0,96,97
 605 761 605 761 557 700 c 1,98,-1
 830 534 l 1,99,100
 844 566 844 566 844 600 c 0,90,91
EndSplineSet
Validated: 19457
EndChar

StartChar: uni2705
Encoding: 9989 9989 6
Width: 999
Flags: W
LayerCount: 2
Fore
SplineSet
500 781 m 128,-1,1
 595.365498308 781 595.365498308 781 682.171395103 743.877053063 c 128,-1,2
 768.977291899 706.754106125 768.977291899 706.754106125 831.740699012 643.990699012 c 128,-1,3
 894.504106125 581.227291899 894.504106125 581.227291899 931.627053063 494.421395103 c 128,-1,4
 968.75 407.615498308 968.75 407.615498308 968.75 312.25 c 128,-1,5
 968.75 216.887910667 968.75 216.887910667 931.626978804 130.08268258 c 128,-1,6
 894.503957609 43.2774544934 894.503957609 43.2774544934 831.740773271 -19.486994714 c 128,-1,7
 768.977588933 -82.2514439215 768.977588933 -82.2514439215 682.171320845 -119.375721961 c 128,-1,8
 595.365052757 -156.5 595.365052757 -156.5 500 -156.5 c 128,-1,9
 404.638356213 -156.5 404.638356213 -156.5 317.832756838 -119.375647703 c 128,-1,10
 231.027157462 -82.251295406 231.027157462 -82.251295406 168.262931028 -19.4870689718 c 128,-1,11
 105.498704594 43.2771574624 105.498704594 43.2771574624 68.3743522969 130.082756838 c 128,-1,12
 31.25 216.888356214 31.25 216.888356214 31.25 312.25 c 128,-1,13
 31.25 407.615943887 31.25 407.615943887 68.3716158353 494.421469367 c 128,-1,14
 105.493231671 581.226994847 105.493231671 581.226994847 168.255596689 643.990624749 c 128,-1,15
 231.017961707 706.754254652 231.017961707 706.754254652 317.824527212 743.877127326 c 128,-1,0
 404.631092717 781 404.631092717 781 500 781 c 128,-1,1
390.440429688 31 m 1,16,-1
 828.130859375 481.021484375 l 1,17,-1
 718.840820312 593.48046875 l 1,18,-1
 390.720703125 255.690429688 l 1,19,-1
 281.701171875 367.940429688 l 1,20,-1
 171.880859375 256 l 1,21,-1
 390.440429688 31 l 1,16,-1
EndSplineSet
Validated: 1
EndChar

StartChar: uni270A
Encoding: 9994 9994 7
Width: 1000
LayerCount: 2
Fore
SplineSet
941 343 m 1,0,1
 969 294 969 294 969 227 c 0,2,3
 969 179 969 179 955 124 c 0,4,5
 934 42 934 42 887 -17 c 0,6,7
 837 -79 837 -79 766 -115 c 0,8,9
 681 -158 681 -158 578 -158 c 0,10,11
 486 -158 486 -158 400 -123 c 1,12,13
 383 -125 383 -125 360.5 -125 c 128,-1,14
 338 -125 338 -125 299 -122 c 0,15,16
 214 -117 214 -117 142 -65 c 0,17,18
 58 -4 58 -4 43 114 c 0,19,20
 32 195 32 195 32 318 c 0,21,22
 32 335 32 335 38 397 c 0,23,24
 42 446 42 446 43 461 c 2,25,-1
 43 539 l 2,26,27
 43 592 43 592 70 624.5 c 128,-1,28
 97 657 97 657 133 663 c 0,29,30
 146 665 146 665 158 665 c 0,31,32
 182 665 182 665 206 658 c 0,33,34
 242 647 242 647 260 621 c 1,35,36
 260 676 260 676 288 712 c 0,37,38
 317 748 317 748 355 756 c 0,39,40
 369 759 369 759 385 759 c 0,41,42
 408 759 408 759 432 751 c 0,43,44
 472 738 472 738 492 704 c 1,45,46
 502 734 502 734 528 754 c 0,47,48
 560 779 560 779 608 779 c 0,49,50
 624 779 624 779 649 774 c 0,51,52
 680 768 680 768 704 744.5 c 128,-1,53
 728 721 728 721 734 687 c 1,54,55
 743 702 743 702 767 712 c 0,56,57
 788 720 788 720 812 720 c 0,58,59
 844 720 844 720 876 707 c 0,60,61
 904 696 904 696 922.5 666 c 128,-1,62
 941 636 941 636 941 593 c 2,63,-1
 941 343 l 1,0,1
734 652 m 1,64,-1
 734 514 l 1,65,66
 860 434 860 434 889 406 c 1,67,-1
 889 569 l 2,68,69
 889 604 889 604 879.5 629.5 c 128,-1,70
 870 655 870 655 855 666 c 0,71,72
 832 684 832 684 802 684 c 0,73,74
 780 684 780 684 755 670 c 0,75,76
 741 663 741 663 734 652 c 1,64,-1
509 642 m 1,77,-1
 509 517 l 1,78,79
 542 520 542 520 587 533 c 0,80,81
 610 540 610 540 622 542 c 0,82,83
 632 545 632 545 648 545 c 0,84,85
 672 545 672 545 691 537 c 1,86,-1
 691 623 l 1,87,88
 691 688 691 688 646 718 c 0,89,90
 620 735 620 735 594 735 c 1,91,-1
 554 726 l 1,92,93
 509 704 509 704 509 642 c 1,77,-1
286 631 m 2,94,-1
 286 464 l 2,95,96
 286 435 286 435 305 413.5 c 128,-1,97
 324 392 324 392 353 381 c 1,98,99
 348 397 348 397 348 413.5 c 128,-1,100
 348 430 348 430 353 446 c 0,101,102
 362 480 362 480 392 500 c 0,103,104
 415 516 415 516 443 516 c 0,105,106
 451 516 451 516 460 515 c 1,107,-1
 460 599 l 2,108,109
 460 672 460 672 406 703 c 0,110,111
 383 716 383 716 362 716 c 128,-1,112
 341 716 341 716 322 704 c 0,113,114
 286 682 286 682 286 631 c 2,94,-1
68 539 m 2,115,-1
 68 387 l 2,116,117
 68 351 68 351 86.5 328.5 c 128,-1,118
 105 306 105 306 131 302 c 0,119,120
 140 301 140 301 150 301 c 2,121,-1
 183 305 l 2,122,123
 209 312 209 312 227.5 334.5 c 128,-1,124
 246 357 246 357 246 388 c 2,125,-1
 246 507 l 2,126,127
 246 584 246 584 190 612 c 0,128,129
 169 622 169 622 149 622 c 0,130,131
 126 622 126 622 104 609 c 0,132,133
 68 586 68 586 68 539 c 2,115,-1
391 -71 m 1,134,135
 488 -98 488 -98 566 -98 c 0,136,137
 672 -98 672 -98 748 -54 c 0,138,139
 851 4 851 4 902 116 c 0,140,141
 932 182 932 182 932 236 c 128,-1,142
 932 290 932 290 914 327 c 0,143,144
 887 382 887 382 705 503 c 0,145,146
 678 521 678 521 644 521 c 0,147,148
 630 521 630 521 593 509 c 0,149,150
 528 491 528 491 466 491 c 1,151,-1
 436 492 l 2,152,153
 419 492 419 492 398.5 477 c 128,-1,154
 378 462 378 462 372 441 c 0,155,156
 370 420 370 420 370 411 c 0,157,158
 370 390 370 390 402 352 c 0,159,160
 432 316 432 316 510 304 c 0,161,-1
 514 304 l 0,162,163
 519 304 519 304 547.5 309.5 c 128,-1,164
 576 315 576 315 587.5 315 c 128,-1,165
 599 315 599 315 604 313 c 0,166,167
 629 303 629 303 658 264 c 0,168,169
 696 212 696 212 690 180 c 0,170,171
 688 168 688 168 684 151 c 1,172,173
 683 185 683 185 678 202 c 0,174,175
 674 218 674 218 652 248 c 0,176,177
 623 288 623 288 600 288 c 0,178,179
 570 288 570 288 528 269 c 0,180,181
 456 235 456 235 427 173 c 0,182,183
 409 135 409 135 409 88 c 1,184,185
 400 119 400 119 400 150 c 128,-1,186
 400 181 400 181 415 209 c 0,187,188
 441 258 441 258 492 283 c 1,189,190
 402 298 402 298 371 346 c 1,191,192
 328 350 328 350 298 380 c 1,193,194
 289 330 289 330 260 299 c 0,195,196
 222 258 222 258 167 258 c 0,197,198
 137 258 137 258 107.5 273.5 c 128,-1,199
 78 289 78 289 60 315 c 1,200,201
 55 273 55 273 55 222.5 c 128,-1,202
 55 172 55 172 66 118 c 0,203,204
 84 26 84 26 131 -22 c 0,205,206
 156 -47 156 -47 192 -61 c 0,207,208
 239 -79 239 -79 301 -79 c 0,209,210
 347 -79 347 -79 373 -75 c 1,211,-1
 391 -71 l 1,134,135
EndSplineSet
Validated: 3105
EndChar

StartChar: uni2728
Encoding: 10024 10024 8
Width: 1000
LayerCount: 2
Fore
SplineSet
353.51953125 781 m 5,0,1
 353.51953125 657.463331661 353.51953125 657.463331661 394.137460475 550.458280832 c 128,-1,2
 434.7553897 443.453230003 434.7553897 443.453230003 509.45466192 377.851615001 c 128,-1,3
 584.15393414 312.25 584.15393414 312.25 675.778320312 312.25 c 1,4,5
 584.155007082 312.25 584.155007082 312.25 509.454930156 246.643827707 c 128,-1,6
 434.754853229 181.037655414 434.754853229 181.037655414 394.13719224 74.0326045848 c 128,-1,7
 353.51953125 -32.9724462441 353.51953125 -32.9724462441 353.51953125 -156.5 c 1,8,9
 353.51953125 -32.9731273778 353.51953125 -32.9731273778 312.899336563 74.0324343014 c 128,-1,10
 272.279141876 181.037995981 272.279141876 181.037995981 197.576574895 246.64399799 c 128,-1,11
 122.874007913 312.25 122.874007913 312.25 31.25 312.25 c 1,12,13
 122.875080891 312.25 122.875080891 312.25 197.576843139 377.851444718 c 128,-1,14
 272.278605388 443.452889436 272.278605388 443.452889436 312.899068319 550.458451115 c 128,-1,15
 353.51953125 657.464012794 353.51953125 657.464012794 353.51953125 781 c 5,0,1
734.379882812 312.25 m 5,16,17
 734.379882812 217.080601333 734.379882812 217.080601333 780.365830948 147.480242073 c 128,-1,18
 826.351779084 77.8798828125 826.351779084 77.8798828125 895.520507812 77.8798828125 c 1,19,20
 826.355702022 77.8798828125 826.355702022 77.8798828125 780.367792417 8.26631039655 c 128,-1,21
 734.379882812 -61.3472620194 734.379882812 -61.3472620194 734.379882812 -156.500976562 c 1,22,23
 734.379882812 -61.3489438921 734.379882812 -61.3489438921 688.387083429 8.26546946019 c 128,-1,24
 642.394284047 77.8798828125 642.394284047 77.8798828125 573.228515625 77.8798828125 c 1,25,26
 642.398207354 77.8798828125 642.398207354 77.8798828125 688.389045083 147.481082885 c 128,-1,27
 734.379882812 217.082282958 734.379882812 217.082282958 734.379882812 312.25 c 5,16,17
807.629882812 781 m 5,28,29
 807.629882812 685.841645302 807.629882812 685.841645302 853.616482117 616.235764057 c 128,-1,30
 899.603081423 546.629882812 899.603081423 546.629882812 968.76953125 546.629882812 c 1,31,32
 899.60472546 546.629882812 899.60472546 546.629882812 853.616815855 477.016310396 c 128,-1,33
 807.62890625 407.402737981 807.62890625 407.402737981 807.62890625 312.249023438 c 1,34,35
 807.62890625 407.395462928 807.62890625 407.395462928 761.630318841 477.01267287 c 128,-1,36
 715.631731431 546.629882812 715.631731431 546.629882812 646.478515625 546.629882812 c 1,37,38
 715.646015774 546.629882812 715.646015774 546.629882812 761.637949293 616.236681367 c 128,-1,39
 807.629882812 685.843479922 807.629882812 685.843479922 807.629882812 781 c 5,28,29
EndSplineSet
Validated: 1
EndChar

StartChar: uni274C
Encoding: 10060 10060 9
Width: 1000
LayerCount: 2
Fore
SplineSet
968.75 647.080078125 m 5,0,-1
 633.919921875 312.25 l 1,1,-1
 968.75 -22.580078125 l 1,2,-1
 834.830078125 -156.5 l 1,3,-1
 500 178.330078125 l 1,4,-1
 165.169921875 -156.5 l 1,5,-1
 31.25 -22.580078125 l 1,6,-1
 366.080078125 312.25 l 1,7,-1
 31.25 647.080078125 l 1,8,-1
 165.169921875 781 l 1,9,-1
 500 446.169921875 l 1,10,-1
 834.830078125 781 l 1,11,-1
 968.75 647.080078125 l 5,0,-1
EndSplineSet
Validated: 1
EndChar

StartChar: uni274E
Encoding: 10062 10062 10
Width: 1000
LayerCount: 2
Fore
SplineSet
812.5 781 m 6,0,1
 877.224853516 781 877.224853516 781 922.987426758 735.237426758 c 128,-1,2
 968.75 689.474853516 968.75 689.474853516 968.75 624.75 c 2,3,-1
 968.75 -0.25 l 2,4,5
 968.75 -64.9748535157 968.75 -64.9748535157 922.987426758 -110.737426758 c 128,-1,6
 877.224853516 -156.5 877.224853516 -156.5 812.5 -156.5 c 2,7,-1
 187.5 -156.5 l 2,8,9
 122.775146484 -156.5 122.775146484 -156.5 77.012573242 -110.737426758 c 128,-1,10
 31.25 -64.9748535157 31.25 -64.9748535157 31.25 -0.25 c 2,11,-1
 31.25 624.75 l 2,12,13
 31.25 689.476540014 31.25 689.476540014 77.0097543456 735.238270007 c 128,-1,14
 122.769508691 781 122.769508691 781 187.5 781 c 2,15,-1
 812.5 781 l 6,0,1
781.219726562 143.51953125 m 5,16,-1
 612.478515625 312.25 l 1,17,-1
 781.219726562 481.01953125 l 1,18,-1
 668.728515625 593.5 l 1,19,-1
 499.969726562 424.76953125 l 1,20,-1
 331.25 593.5 l 1,21,-1
 218.73046875 481.01953125 l 1,22,-1
 387.48046875 312.25 l 1,23,-1
 218.73046875 143.51953125 l 1,24,-1
 331.25 31 l 1,25,-1
 499.969726562 199.76953125 l 1,26,-1
 668.728515625 31 l 1,27,-1
 781.219726562 143.51953125 l 5,16,-1
EndSplineSet
Validated: 1
EndChar

StartChar: uni2754
Encoding: 10068 10068 11
Width: 1000
LayerCount: 2
Fore
SplineSet
504.889648438 749.750976562 m 0,0,1
 490.141650771 749.750976562 490.141650771 749.750976562 474.588867188 748.799804688 c 0,2,3
 245.689199156 734.554089558 245.689199156 734.554089558 221.198242188 510.76953125 c 1,4,-1
 343.01953125 510.76953125 l 1,5,6
 352.687280304 561.514367254 352.687280304 561.514367254 386.924763524 593.216458383 c 128,-1,7
 421.162246744 624.918549512 421.162246744 624.918549512 472.948242188 630.409179688 c 0,8,9
 489.402342124 632.168945312 489.402342124 632.168945312 505.658203125 632.168945312 c 0,10,11
 560.594884563 632.168945312 560.594884563 632.168945312 598.934660404 612.699116739 c 128,-1,12
 637.274436245 593.229288165 637.274436245 593.229288165 652.169921875 557.768554688 c 0,13,14
 682.234726399 486.144106019 682.234726399 486.144106019 599.129882812 395.749023438 c 0,15,16
 579.433191666 374.293751434 579.433191666 374.293751434 531.75 338.409179688 c 0,17,18
 477.872923449 297.856541421 477.872923449 297.856541421 461.688476562 275.26953125 c 0,19,20
 432.791358895 234.910915182 432.791358895 234.910915182 427.219726562 142.26953125 c 1,21,-1
 526.688476562 142.26953125 l 1,22,23
 532.238878856 217.454723647 532.238878856 217.454723647 558.169921875 252.889648438 c 0,24,25
 583.921979073 288.044134993 583.921979073 288.044134993 648.01953125 331.98046875 c 0,26,27
 680.810758439 354.489202295 680.810758439 354.489202295 695.58984375 367.23046875 c 0,28,29
 732.178995337 398.740397044 732.178995337 398.740397044 753.617187678 427.798896502 c 128,-1,30
 775.05538002 456.85739596 775.05538002 456.85739596 779.358398438 495.450195312 c 0,31,32
 791.067160054 600.206681671 791.067160054 600.206681671 732.158203125 666.05078125 c 0,33,34
 657.301156231 749.750976562 657.301156231 749.750976562 504.889648438 749.750976562 c 0,0,1
504.888671875 781 m 0,35,36
 573.408953966 781 573.408953966 781 631.703836133 762.514620083 c 128,-1,37
 689.9987183 744.029240165 689.9987183 744.029240165 733.051382373 708.943067295 c 128,-1,38
 776.104046446 673.856894426 776.104046446 673.856894426 797.154702832 617.889589565 c 128,-1,39
 818.205359218 561.922284704 818.205359218 561.922284704 810.41015625 492.000976562 c 0,40,41
 805.327852449 446.210944268 805.327852449 446.210944268 780.769819262 412.20367643 c 128,-1,42
 756.211786074 378.196408591 756.211786074 378.196408591 716 343.55078125 c 0,43,44
 707.500496827 336.231025751 707.500496827 336.231025751 655.879499352 299.561689239 c 128,-1,45
 604.258501877 262.892352727 604.258501877 262.892352727 583.41015625 234.44140625 c 0,46,47
 568.753957434 214.418982119 568.753957434 214.418982119 563.543824843 185.426807659 c 128,-1,48
 558.333692252 156.434633198 558.333692252 156.434633198 556.189453125 111.03125 c 1,49,-1
 394.529296875 111.03125 l 1,50,51
 396.769645055 176.503759397 396.769645055 176.503759397 405.095944899 219.012967022 c 128,-1,52
 413.422244742 261.522174648 413.422244742 261.522174648 436.309570312 293.470703125 c 0,53,54
 454.916049851 319.445100361 454.916049851 319.445100361 507.008894769 358.886093324 c 128,-1,55
 559.101739687 398.327086287 559.101739687 398.327086287 576.158203125 416.91015625 c 0,56,57
 645.702324892 492.550647941 645.702324892 492.550647941 623.37890625 545.669921875 c 0,58,59
 611.803825776 573.177619499 611.803825776 573.177619499 580.124697926 587.048770687 c 128,-1,60
 548.445570076 600.919921875 548.445570076 600.919921875 505.657226562 600.919921875 c 0,61,62
 491.300539615 600.919921875 491.300539615 600.919921875 476.248046875 599.330078125 c 0,63,64
 427.225039438 594.12987828 427.225039438 594.12987828 399.959127457 561.709099605 c 128,-1,65
 372.693215477 529.288320931 372.693215477 529.288320931 370.91796875 479.5 c 1,66,-1
 187.498046875 479.5 l 1,67,68
 193.747890533 619.710782514 193.747890533 619.710782514 265.273813995 695.620797689 c 128,-1,69
 336.799737456 771.530812865 336.799737456 771.530812865 472.637695312 779.98046875 c 0,70,71
 488.697478643 781 488.697478643 781 504.888671875 781 c 0,35,36
476.799804688 13.28125 m 128,-1,73
 447.510628741 13.28125 447.510628741 13.28125 426.745060464 -7.02493890914 c 128,-1,74
 405.979492188 -27.3311278183 405.979492188 -27.3311278183 405.979492188 -55.9794921875 c 128,-1,75
 405.979492188 -84.6343317877 405.979492188 -84.6343317877 426.744626472 -104.941677613 c 128,-1,76
 447.509760756 -125.249023438 447.509760756 -125.249023438 476.799804688 -125.249023438 c 128,-1,77
 506.095938181 -125.249023438 506.095938181 -125.249023438 526.862422215 -104.948027114 c 128,-1,78
 547.62890625 -84.6470307903 547.62890625 -84.6470307903 547.62890625 -55.9990234375 c 128,-1,79
 547.62890625 -27.3481348899 547.62890625 -27.3481348899 526.860948815 -7.03344244493 c 128,-1,72
 506.09299138 13.28125 506.09299138 13.28125 476.799804688 13.28125 c 128,-1,73
476.799804688 44.5302734375 m 128,-1,81
 519.089296731 44.5302734375 519.089296731 44.5302734375 548.984589772 15.0925432691 c 128,-1,82
 578.879882812 -14.3451868993 578.879882812 -14.3451868993 578.879882812 -55.9794921875 c 128,-1,83
 578.879882812 -97.6203668044 578.879882812 -97.6203668044 548.984973126 -127.059695121 c 128,-1,84
 519.090063439 -156.499023438 519.090063439 -156.499023438 476.799804688 -156.499023438 c 128,-1,85
 434.513566111 -156.499023438 434.513566111 -156.499023438 404.621040868 -127.068194667 c 128,-1,86
 374.728515625 -97.6373658959 374.728515625 -97.6373658959 374.728515625 -55.9990234375 c 128,-1,87
 374.728515625 -14.3578863729 374.728515625 -14.3578863729 404.622459787 15.0861935323 c 128,-1,80
 434.51640395 44.5302734375 434.51640395 44.5302734375 476.799804688 44.5302734375 c 128,-1,81
EndSplineSet
Validated: 33
EndChar

StartChar: uni2755
Encoding: 10069 10069 12
Width: 1000
LayerCount: 2
Fore
SplineSet
606.129882812 749.75 m 5,0,-1
 393.879882812 749.75 l 1,1,-1
 450.33984375 180.389648438 l 1,2,-1
 549.66015625 180.389648438 l 1,3,-1
 606.129882812 749.75 l 5,0,-1
640.629882812 781 m 5,4,-1
 577.950195312 149.139648438 l 1,5,-1
 422.030273438 149.139648438 l 1,6,-1
 359.379882812 781 l 1,7,-1
 640.629882812 781 l 5,4,-1
500 51.19921875 m 132,-1,9
 463.402235838 51.19921875 463.402235838 51.19921875 437.4516062 25.3248941441 c 128,-1,10
 411.500976562 -0.549430461868 411.500976562 -0.549430461868 411.500976562 -37.03125 c 128,-1,11
 411.500976562 -73.5119546165 411.500976562 -73.5119546165 437.451535465 -99.3814655893 c 128,-1,12
 463.402094369 -125.250976562 463.402094369 -125.250976562 500.000976562 -125.250976562 c 128,-1,13
 536.584768793 -125.250976562 536.584768793 -125.250976562 562.527735959 -99.3768031829 c 128,-1,14
 588.470703125 -73.5026298039 588.470703125 -73.5026298039 588.470703125 -37.021484375 c 128,-1,15
 588.470703125 -0.535065154582 588.470703125 -0.535065154582 562.528642965 25.3320767977 c 128,-1,8
 536.586582806 51.19921875 536.586582806 51.19921875 500 51.19921875 c 132,-1,9
500.000976562 82.4482421875 m 132,-1,17
 549.5936381 82.4482421875 549.5936381 82.4482421875 584.657170613 47.4495144505 c 128,-1,18
 619.720703125 12.4507867134 619.720703125 12.4507867134 619.720703125 -37.03125 c 128,-1,19
 619.720703125 -86.5123551436 619.720703125 -86.5123551436 584.657637044 -121.506665853 c 128,-1,20
 549.594570964 -156.500976562 549.594570964 -156.500976562 500.000976562 -156.500976562 c 128,-1,21
 450.401480562 -156.500976562 450.401480562 -156.500976562 415.326228562 -121.498830523 c 128,-1,22
 380.250976562 -86.4966844835 380.250976562 -86.4966844835 380.250976562 -37.021484375 c 128,-1,23
 380.250976562 12.4584220982 380.250976562 12.4584220982 415.324917123 47.4533321429 c 128,-1,16
 450.398857683 82.4482421875 450.398857683 82.4482421875 500.000976562 82.4482421875 c 132,-1,17
EndSplineSet
Validated: 1
EndChar

StartChar: uni2795
Encoding: 10133 10133 13
Width: 1000
LayerCount: 2
Fore
SplineSet
593.75 406 m 1,0,-1
 968.75 406 l 1,1,-1
 968.75 218.5 l 1,2,-1
 593.75 218.5 l 1,3,-1
 593.75 -156.5 l 1,4,-1
 406.25 -156.5 l 1,5,-1
 406.25 218.5 l 1,6,-1
 31.25 218.5 l 1,7,-1
 31.25 406 l 1,8,-1
 406.25 406 l 1,9,-1
 406.25 781 l 1,10,-1
 593.75 781 l 1,11,-1
 593.75 406 l 1,0,-1
EndSplineSet
Validated: 1
EndChar

StartChar: uni2796
Encoding: 10134 10134 14
Width: 1000
Flags: W
LayerCount: 2
Fore
SplineSet
968.75 406 m 1,0,-1
 968.75 218.5 l 1,1,-1
 31.25 218.5 l 1,2,-1
 31.25 406 l 1,3,-1
 968.75 406 l 1,0,-1
EndSplineSet
Validated: 1
EndChar

StartChar: uni2797
Encoding: 10135 10135 15
Width: 1000
Flags: W
LayerCount: 2
Fore
SplineSet
31.25 405.75 m 1,0,-1
 968.75 405.75 l 1,1,-1
 968.75 218.25 l 1,2,-1
 31.25 218.25 l 1,3,-1
 31.25 405.75 l 1,0,-1
617.190429688 663.559570312 m 128,-1,5
 617.190429688 615.020706711 617.190429688 615.020706711 582.8660663 580.700294762 c 128,-1,6
 548.541702912 546.379882812 548.541702912 546.379882812 500.000976562 546.379882812 c 128,-1,7
 451.460250212 546.379882812 451.460250212 546.379882812 417.135886825 580.700294762 c 128,-1,8
 382.811523438 615.020706711 382.811523438 615.020706711 382.811523438 663.559570312 c 128,-1,9
 382.811523438 712.099365234 382.811523438 712.099365234 417.136352539 746.424194336 c 128,-1,10
 451.461181641 780.749023438 451.461181641 780.749023438 500.000976562 780.749023438 c 128,-1,11
 548.540771484 780.749023438 548.540771484 780.749023438 582.865600586 746.424194336 c 128,-1,4
 617.190429688 712.099365234 617.190429688 712.099365234 617.190429688 663.559570312 c 128,-1,5
617.190429688 -39.560546875 m 128,-1,13
 617.190429688 -88.1003417972 617.190429688 -88.1003417972 582.865600586 -122.425170899 c 128,-1,14
 548.540771484 -156.75 548.540771484 -156.75 500.000976562 -156.75 c 128,-1,15
 451.46118164 -156.75 451.46118164 -156.75 417.136352539 -122.425170899 c 128,-1,16
 382.811523438 -88.1003417972 382.811523438 -88.1003417972 382.811523438 -39.560546875 c 128,-1,17
 382.811523438 8.97924804688 382.811523438 8.97924804688 417.136352539 43.3040771484 c 128,-1,18
 451.461181641 77.62890625 451.461181641 77.62890625 500.000976562 77.62890625 c 128,-1,19
 548.540771484 77.62890625 548.540771484 77.62890625 582.865600586 43.3040771484 c 128,-1,12
 617.190429688 8.97924804687 617.190429688 8.97924804687 617.190429688 -39.560546875 c 128,-1,13
EndSplineSet
Validated: 1
EndChar

StartChar: uni27B0
Encoding: 10160 10160 16
Width: 1000
LayerCount: 2
Fore
SplineSet
500 -140 m 132,-1,1
 440.533898445 -140 440.533898445 -140 383.78374829 -124.014137057 c 128,-1,2
 327.033598136 -108.028274114 327.033598136 -108.028274114 277.442386963 -76.9869768348 c 128,-1,3
 227.851175791 -45.9456795561 227.851175791 -45.9456795561 192.84588208 5.83544180064 c 128,-1,4
 157.840588369 57.6165631573 157.840588369 57.6165631573 146.909179688 123.26953125 c 0,5,6
 132.554743562 209.337555477 132.554743562 209.337555477 159.367516855 295.77394188 c 128,-1,7
 186.180290148 382.210328283 186.180290148 382.210328283 250.749023438 458.029296875 c 0,8,9
 290.088160821 504.208881919 290.088160821 504.208881919 340.779296875 543.939453125 c 1,10,11
 195.35112725 589.168945312 195.35112725 589.168945312 31.2490234375 589.168945312 c 1,12,-1
 31.2490234375 734.999023438 l 1,13,14
 291.535716662 734.999023438 291.535716662 734.999023438 499.999023438 639.69921875 c 1,15,16
 708.530735306 735 708.530735306 735 968.749023438 735 c 1,17,-1
 968.749023438 589.169921875 l 1,18,19
 804.621608106 589.169921875 804.621608106 589.169921875 659.19921875 543.919921875 c 1,20,21
 709.914002848 504.169658147 709.914002848 504.169658147 749.219726562 458.029296875 c 0,22,23
 813.798530572 382.216562536 813.798530572 382.216562536 840.609788061 295.78584845 c 128,-1,24
 867.42104555 209.355134365 867.42104555 209.355134365 853.080078125 123.25 c 0,25,26
 842.152541474 57.6043994539 842.152541474 57.6043994539 807.149469587 5.82756022799 c 128,-1,27
 772.1463977 -45.9492789979 772.1463977 -45.9492789979 722.556386737 -76.9889982163 c 128,-1,28
 672.966375773 -108.028717435 672.966375773 -108.028717435 616.21596739 -124.014358717 c 128,-1,0
 559.465559006 -140 559.465559006 -140 500 -140 c 132,-1,1
500 475.26953125 m 5,29,30
 416.28874306 426.866607729 416.28874306 426.866607729 362.478515625 363.69921875 c 0,31,32
 272.855525731 258.491576245 272.855525731 258.491576245 291.409179688 147.109375 c 0,33,34
 302.841513288 78.4521657857 302.841513288 78.4521657857 363.459974643 42.1406336741 c 128,-1,35
 424.078435998 5.8291015625 424.078435998 5.8291015625 499.999023438 5.8291015625 c 128,-1,36
 575.917685307 5.8291015625 575.917685307 5.8291015625 636.537042426 42.1373360235 c 128,-1,37
 697.156399545 78.4455704845 697.156399545 78.4455704845 708.588867188 147.08984375 c 0,38,39
 727.132452649 258.531024093 727.132452649 258.531024093 637.478515625 363.719726562 c 0,40,41
 583.724413921 426.841714731 583.724413921 426.841714731 500 475.26953125 c 5,29,30
EndSplineSet
Validated: 33
EndChar

StartChar: uni27BF
Encoding: 10175 10175 17
Width: 1000
LayerCount: 2
Fore
SplineSet
881.47 501.59 m 1,0,1
 922.056066625 470.197546801 922.056066625 470.197546801 945.404033313 423.803299017 c 128,-1,2
 968.752 377.409051232 968.752 377.409051232 968.752 324.31 c 0,3,4
 968.752 231.542147599 968.752 231.542147599 902.909578053 165.7705738 c 128,-1,5
 837.067156106 99.999 837.067156106 99.999 744.231 99.999 c 128,-1,6
 651.333016482 99.999 651.333016482 99.999 585.497008241 165.764369182 c 128,-1,7
 519.661 231.529738364 519.661 231.529738364 519.661 324.31 c 0,8,9
 519.661 382.985016667 519.661 382.985016667 547.936558839 433.142087973 c 128,-1,10
 576.212117679 483.299159279 576.212117679 483.299159279 624.161 513.719 c 1,11,12
 563.154099844 523.358 563.154099844 523.358 500.561 523.358 c 0,13,14
 438.294665087 523.358 438.294665087 523.358 377.53 513.828 c 1,15,16
 425.571687818 483.403864998 425.571687818 483.403864998 453.911343909 433.219351372 c 128,-1,17
 482.251 383.034837745 482.251 383.034837745 482.251 324.309 c 0,18,19
 482.251 231.534265145 482.251 231.534265145 416.394008258 165.766132572 c 128,-1,20
 350.537016516 99.998 350.537016516 99.998 257.641 99.998 c 128,-1,21
 164.798539867 99.998 164.798539867 99.998 98.9642199337 165.771351959 c 128,-1,22
 33.1299 231.544703919 33.1299 231.544703919 33.1299 324.328 c 0,23,24
 33.1299 376.8815862 33.1299 376.8815862 56.0473072215 422.939332583 c 128,-1,25
 78.9647144431 468.997078966 78.9647144431 468.997078966 118.88 500.438 c 1,26,27
 73.1971684059 506.231857863 73.1971684059 506.231857863 31.25 507.299 c 1,28,-1
 31.25 582.049 l 1,29,30
 127.295014671 580.019298252 127.295014671 580.019298252 230 556.699 c 1,31,32
 360.62367688 599.999 360.62367688 599.999 500.56 599.999 c 0,33,34
 637.687449584 599.999 637.687449584 599.999 766.059 558.279 c 1,35,36
 855.632790895 582.486074711 855.632790895 582.486074711 968.749 583.13 c 1,37,-1
 968.749 506.5 l 1,38,39
 923.740793863 506.279574136 923.740793863 506.279574136 881.47 501.59 c 1,0,1
407.343 324.31 m 128,-1,41
 407.343 386.159949151 407.343 386.159949151 363.458023013 429.992099006 c 128,-1,42
 319.573046025 473.82424886 319.573046025 473.82424886 257.643 473.81 c 128,-1,43
 195.773051926 473.81 195.773051926 473.81 151.872525963 429.970407346 c 128,-1,44
 107.972 386.130814692 107.972 386.130814692 107.972 324.31 c 128,-1,45
 107.972 262.479029872 107.972 262.479029872 151.873481166 218.624514936 c 128,-1,46
 195.774962332 174.77 195.774962332 174.77 257.643 174.77 c 128,-1,47
 319.570962046 174.77 319.570962046 174.77 363.456981023 218.617359123 c 128,-1,40
 407.343 262.464718246 407.343 262.464718246 407.343 324.31 c 128,-1,41
744.232 174.77 m 128,-1,49
 806.092734483 174.77 806.092734483 174.77 849.992867241 218.624988007 c 128,-1,50
 893.893 262.479976015 893.893 262.479976015 893.893 324.31 c 128,-1,51
 893.893 386.129868851 893.893 386.129868851 849.993822405 429.969934425 c 128,-1,52
 806.09464481 473.81 806.09464481 473.81 744.232 473.81 c 128,-1,53
 682.30695036 473.81 682.30695036 473.81 638.41447518 429.976223542 c 128,-1,54
 594.522 386.142447083 594.522 386.142447083 594.522 324.31 c 128,-1,55
 594.522 262.467393774 594.522 262.467393774 638.415430335 218.618696887 c 128,-1,48
 682.30886067 174.77 682.30886067 174.77 744.232 174.77 c 128,-1,49
EndSplineSet
Validated: 33
EndChar

StartChar: CC_CC
Encoding: 127341 127341 18
Width: 960
Flags: W
LayerCount: 2
Fore
SplineSet
156 630 m 0,0,1
 288 764 288 764 481 764 c 128,-1,2
 674 764 674 764 808 630 c 0,3,4
 872 566 872 566 906 482 c 128,-1,5
 940 398 940 398 940 304 c 0,6,7
 940 111 940 111 809 -18 c 0,8,9
 740 -86 740 -86 656 -120 c 0,10,11
 570 -156 570 -156 479 -156 c 128,-1,12
 388 -156 388 -156 304.5 -121 c 128,-1,13
 221 -86 221 -86 155 -20 c 0,14,15
 20 115 20 115 20 304 c 0,16,17
 20 395 20 395 54.5 479 c 128,-1,18
 89 563 89 563 156 630 c 0,0,1
480 681 m 128,-1,20
 323 681 323 681 213 569 c 128,-1,21
 103 457 103 457 103 304 c 0,22,23
 103 230 103 230 132 162 c 0,24,25
 162 95 162 95 216 40 c 0,26,27
 326 -71 326 -71 481 -71 c 0,28,29
 555 -71 555 -71 624.5 -42.5 c 128,-1,30
 694 -14 694 -14 749 41 c 0,31,32
 857 146 857 146 857 303.5 c 128,-1,33
 857 461 857 461 747 571 c 128,-1,19
 637 681 637 681 480 681 c 128,-1,20
363 386 m 0,34,35
 301 386 301 386 301 304 c 0,36,37
 301 223 301 223 368 223 c 0,38,39
 404 223 404 223 419 262 c 1,40,-1
 476 234 l 1,41,42
 458 200 458 200 426 180.5 c 128,-1,43
 394 161 394 161 355 161 c 0,44,45
 293 161 293 161 255.5 199 c 128,-1,46
 218 237 218 237 218 303.5 c 128,-1,47
 218 370 218 370 256 408.5 c 128,-1,48
 294 447 294 447 355 447 c 0,49,50
 438 447 438 447 475 381 c 1,51,-1
 413 349 l 1,52,53
 395 386 395 386 363 386 c 0,34,35
628 386 m 0,54,55
 566 386 566 386 566 304.5 c 128,-1,56
 566 223 566 223 632 223 c 0,57,58
 668 223 668 223 684 262 c 1,59,-1
 742 234 l 1,60,61
 723 200 723 200 691 180.5 c 128,-1,62
 659 161 659 161 621 161 c 0,63,64
 559 161 559 161 521.5 199 c 128,-1,65
 484 237 484 237 484 303.5 c 128,-1,66
 484 370 484 370 522 408.5 c 128,-1,67
 560 447 560 447 621 447 c 0,68,69
 704 447 704 447 740 381 c 1,70,-1
 680 349 l 1,71,72
 662 386 662 386 628 386 c 0,54,55
EndSplineSet
Validated: 3073
EndChar

StartChar: CC_PD
Encoding: 127342 127342 19
Width: 960
Flags: W
LayerCount: 2
Fore
SplineSet
479.979492188 759.958007812 m 128,-1,1
 573.559570312 759.958007812 573.559570312 759.958007812 658.741210938 723.529296875 c 128,-1,2
 743.922851562 687.100585938 743.922851562 687.100585938 805.512695312 625.51171875 c 128,-1,3
 867.1015625 563.922851562 867.1015625 563.922851562 903.53125 478.740234375 c 128,-1,4
 939.959960938 393.55859375 939.959960938 393.55859375 939.959960938 299.977539062 c 128,-1,5
 939.959960938 206.407226562 939.959960938 206.407226562 903.530273438 121.227539062 c 128,-1,6
 867.1015625 36.0478515625 867.1015625 36.0478515625 805.512695312 -25.5439453125 c 128,-1,7
 743.923828125 -87.13671875 743.923828125 -87.13671875 658.741210938 -123.569335938 c 128,-1,8
 573.55859375 -160.001953125 573.55859375 -160.001953125 479.979492188 -160.001953125 c 128,-1,9
 386.400390625 -160.001953125 386.400390625 -160.001953125 301.217773438 -123.569335938 c 128,-1,10
 216.03515625 -87.13671875 216.03515625 -87.13671875 154.447265625 -25.5439453125 c 128,-1,11
 92.8583984375 36.0478515625 92.8583984375 36.0478515625 56.4287109375 121.227539062 c 128,-1,12
 20 206.407226562 20 206.407226562 20 299.977539062 c 128,-1,13
 20 393.557617188 20 393.557617188 56.4287109375 478.739257812 c 128,-1,14
 92.857421875 563.920898438 92.857421875 563.920898438 154.447265625 625.510742188 c 128,-1,15
 216.036132812 687.099609375 216.036132812 687.099609375 301.217773438 723.529296875 c 128,-1,0
 386.399414062 759.958007812 386.399414062 759.958007812 479.979492188 759.958007812 c 128,-1,1
479.979492188 -73.7509765625 m 0,16,17
 584.108398438 -73.7509765625 584.108398438 -73.7509765625 671.645507812 -20.7578125 c 128,-1,18
 759.18359375 32.2353515625 759.18359375 32.2353515625 807.69921875 120.564453125 c 1,19,20
 806.658203125 120.693359375 806.658203125 120.693359375 806.435546875 120.732421875 c 2,21,-1
 403.577148438 300.092773438 l 1,22,23
 403.7890625 268.139648438 403.7890625 268.139648438 413.610351562 239.006835938 c 128,-1,24
 423.430664062 209.874023438 423.430664062 209.874023438 446.95703125 188.321289062 c 128,-1,25
 470.482421875 166.767578125 470.482421875 166.767578125 503.501953125 166.767578125 c 0,26,27
 538.575195312 166.767578125 538.575195312 166.767578125 564.65625 191.499023438 c 0,28,29
 567.66015625 194.225585938 567.66015625 194.225585938 570.783203125 197.795898438 c 1,30,-1
 637.83984375 116.319335938 l 1,31,32
 629.534179688 108.997070312 629.534179688 108.997070312 619.909179688 102.09765625 c 0,33,34
 561.970703125 61.6005859375 561.970703125 61.6005859375 490.58984375 61.6005859375 c 0,35,36
 462.638671875 61.6005859375 462.638671875 61.6005859375 434.0859375 68.1845703125 c 128,-1,37
 405.533203125 74.7685546875 405.533203125 74.7685546875 374.900390625 91.83203125 c 128,-1,38
 344.267578125 108.895507812 344.267578125 108.895507812 320.889648438 134.52734375 c 128,-1,39
 297.510742188 160.158203125 297.510742188 160.158203125 282.400390625 202.24609375 c 128,-1,40
 267.290039062 244.333984375 267.290039062 244.333984375 267.290039062 296.973632812 c 0,41,42
 267.290039062 327.844726562 267.290039062 327.844726562 273.360351562 358.013671875 c 1,43,-1
 127.190429688 423.103515625 l 1,44,45
 106.236328125 363.34375 106.236328125 363.34375 106.236328125 299.977539062 c 0,46,47
 106.236328125 198.634765625 106.236328125 198.634765625 156.315429688 112.5234375 c 128,-1,48
 206.393554688 26.412109375 206.393554688 26.412109375 292.509765625 -23.6689453125 c 128,-1,49
 378.625 -73.7509765625 378.625 -73.7509765625 479.979492188 -73.7509765625 c 0,16,17
840.134765625 204.481445312 m 2,50,51
 840.303710938 204.3125 840.303710938 204.3125 840.583984375 204.002929688 c 128,-1,52
 840.864257812 203.692382812 840.864257812 203.692382812 841.033203125 203.5234375 c 1,53,54
 853.737304688 251.041992188 853.737304688 251.041992188 853.737304688 299.977539062 c 0,55,56
 853.737304688 401.344726562 853.737304688 401.344726562 803.654296875 487.463867188 c 128,-1,57
 753.5703125 573.58203125 753.5703125 573.58203125 667.453125 623.659179688 c 128,-1,58
 581.336914062 673.735351562 581.336914062 673.735351562 479.979492188 673.735351562 c 0,59,60
 383.75 673.735351562 383.75 673.735351562 301.176757812 628.078125 c 128,-1,61
 218.603515625 582.421875 218.603515625 582.421875 167.490234375 504.661132812 c 1,62,-1
 306.438476562 442.69140625 l 1,63,64
 367.2421875 538.385742188 367.2421875 538.385742188 493.190429688 538.385742188 c 0,65,66
 578.798828125 538.385742188 578.798828125 538.385742188 638.092773438 487.405273438 c 1,67,-1
 563.1953125 410.315429688 l 1,68,69
 557.397460938 416.07421875 557.397460938 416.07421875 549.228515625 421.978515625 c 0,70,71
 526.064453125 437.4921875 526.064453125 437.4921875 499.189453125 437.4921875 c 0,72,73
 450.890625 437.4921875 450.890625 437.4921875 424.62890625 389.939453125 c 1,74,-1
 840.134765625 204.481445312 l 2,50,51
EndSplineSet
Validated: 3073
EndChar

StartChar: CC_BY
Encoding: 130671 130671 20
Width: 960
Flags: W
LayerCount: 2
Fore
SplineSet
479.180664062 763.723632812 m 0,0,1
 673.027343752 763.723632812 673.027343752 763.723632812 806.096679688 630.654296875 c 0,2,3
 940 496.750976562 940 496.750976562 940 303.723632812 c 0,4,5
 940 109.85546843 940 109.85546843 808.541015625 -19.0810546875 c 0,6,7
 668.661670299 -156.276367188 668.661670299 -156.276367188 479.180664062 -156.276367188 c 0,8,9
 292.686523438 -156.276367188 292.686523438 -156.276367188 155.541992188 -20.7197265625 c 0,10,11
 20 113.252929563 20 113.252929563 20 303.723632812 c 0,12,13
 20 492.6328125 20 492.6328125 155.541992188 630.639648438 c 0,14,15
 288.604492188 763.723632812 288.604492188 763.723632812 479.180664062 763.723632812 c 0,0,1
480.819335938 680.750976562 m 0,16,17
 323.217013854 680.750976562 323.217013854 680.750976562 215.5 570.681640625 c 0,18,19
 102.958007812 455.681958569 102.958007812 455.681958569 102.958007812 303.708984375 c 0,20,21
 102.958007812 150.888671875 102.958007812 150.888671875 214.647956002 39.2094726562 c 128,-1,22
 326.337904192 -72.4697265625 326.337904192 -72.4697265625 480.791015625 -72.4697265625 c 0,23,24
 634.459903524 -72.4697265625 634.459903524 -72.4697265625 748.58203125 40.0576171875 c 0,25,26
 857.012695312 146.973031849 857.012695312 146.973031849 857.012695312 303.73828125 c 128,-1,27
 857.012695312 460.576171875 857.012695312 460.576171875 746.958007812 570.663574219 c 128,-1,28
 636.903320312 680.750976562 636.903320312 680.750976562 480.819335938 680.750976562 c 0,16,17
604.041992188 417.904296875 m 2,29,-1
 604.041992188 229.807617188 l 1,30,-1
 551.487304688 229.807617188 l 1,31,-1
 551.487304688 6.3916015625 l 1,32,-1
 408.541992188 6.3916015625 l 1,33,-1
 408.541992188 229.79296875 l 1,34,-1
 355.987304688 229.79296875 l 1,35,-1
 355.987304688 417.904296875 l 2,36,37
 355.987304688 430.216796875 355.987304688 430.216796875 364.59765625 438.848632812 c 128,-1,38
 373.265625 447.473632812 373.265625 447.473632812 385.541992188 447.473632812 c 2,39,-1
 574.487304688 447.473632812 l 2,40,41
 586.000976562 447.473632812 586.000976562 447.473632812 595.014648438 438.848632812 c 128,-1,42
 604.041992188 430.189453125 604.041992188 430.189453125 604.041992188 417.904296875 c 2,29,-1
415.916015625 536.181640625 m 0,43,44
 415.916015625 601.0703125 415.916015625 601.0703125 480 601.0703125 c 128,-1,45
 544.069335938 601.0703125 544.069335938 601.0703125 544.069335938 536.181640625 c 0,46,47
 544.069335938 472.112304688 544.069335938 472.112304688 480 472.112304688 c 128,-1,48
 415.916015625 472.112304688 415.916015625 472.112304688 415.916015625 536.181640625 c 0,43,44
EndSplineSet
Validated: 3073
EndChar

StartChar: MaskWork
Encoding: 127405 127405 21
Width: 800
Flags: W
LayerCount: 2
Fore
SplineSet
20 303.723632812 m 128,-1,1
 20 380.017578125 20 380.017578125 49.6982421875 449.461914062 c 128,-1,2
 79.396484375 518.907226562 79.396484375 518.907226562 129.606445312 569.1171875 c 128,-1,3
 179.817382812 619.328125 179.817382812 619.328125 249.26171875 649.025390625 c 128,-1,4
 318.70703125 678.723632812 318.70703125 678.723632812 395 678.723632812 c 128,-1,5
 471.293945312 678.723632812 471.293945312 678.723632812 540.73828125 649.025390625 c 128,-1,6
 610.18359375 619.328125 610.18359375 619.328125 660.393554688 569.1171875 c 128,-1,7
 710.604492188 518.907226562 710.604492188 518.907226562 740.301757812 449.461914062 c 128,-1,8
 770 380.017578125 770 380.017578125 770 303.723632812 c 128,-1,9
 770 227.4296875 770 227.4296875 740.301757812 157.985351562 c 128,-1,10
 710.604492188 88.5400390625 710.604492188 88.5400390625 660.393554688 38.330078125 c 128,-1,11
 610.18359375 -11.880859375 610.18359375 -11.880859375 540.73828125 -41.578125 c 128,-1,12
 471.293945312 -71.2763671875 471.293945312 -71.2763671875 395 -71.2763671875 c 128,-1,13
 318.70703125 -71.2763671875 318.70703125 -71.2763671875 249.26171875 -41.578125 c 128,-1,14
 179.817382812 -11.880859375 179.817382812 -11.880859375 129.606445312 38.330078125 c 128,-1,15
 79.396484375 88.5400390625 79.396484375 88.5400390625 49.6982421875 157.985351562 c 128,-1,0
 20 227.4296875 20 227.4296875 20 303.723632812 c 128,-1,1
67.7255859375 303.723632812 m 128,-1,17
 67.7255859375 237.139648438 67.7255859375 237.139648438 93.64453125 176.533203125 c 128,-1,18
 119.5625 115.926757812 119.5625 115.926757812 163.3828125 72.1064453125 c 128,-1,19
 207.203125 28.2861328125 207.203125 28.2861328125 267.809570312 2.3671875 c 128,-1,20
 328.416992188 -23.55078125 328.416992188 -23.55078125 395 -23.55078125 c 128,-1,21
 461.583984375 -23.55078125 461.583984375 -23.55078125 522.190429688 2.3671875 c 128,-1,22
 582.796875 28.2861328125 582.796875 28.2861328125 626.6171875 72.1064453125 c 128,-1,23
 670.4375 115.926757812 670.4375 115.926757812 696.356445312 176.533203125 c 128,-1,24
 722.274414062 237.139648438 722.274414062 237.139648438 722.274414062 303.723632812 c 128,-1,25
 722.274414062 370.307617188 722.274414062 370.307617188 696.356445312 430.9140625 c 128,-1,26
 670.4375 491.520507812 670.4375 491.520507812 626.6171875 535.340820312 c 128,-1,27
 582.796875 579.161132812 582.796875 579.161132812 522.190429688 605.079101562 c 128,-1,28
 461.583984375 630.998046875 461.583984375 630.998046875 395 630.998046875 c 128,-1,29
 328.416992188 630.998046875 328.416992188 630.998046875 267.809570312 605.079101562 c 128,-1,30
 207.203125 579.161132812 207.203125 579.161132812 163.3828125 535.340820312 c 128,-1,31
 119.5625 491.520507812 119.5625 491.520507812 93.64453125 430.9140625 c 128,-1,16
 67.7255859375 370.307617188 67.7255859375 370.307617188 67.7255859375 303.723632812 c 128,-1,17
209.299804688 506.6875 m 1,32,-1
 291.138671875 506.6875 l 1,33,-1
 394.728515625 230.44921875 l 1,34,-1
 498.862304688 506.6875 l 1,35,-1
 580.700195312 506.6875 l 1,36,-1
 580.700195312 100.758789062 l 1,37,-1
 527.138671875 100.758789062 l 1,38,-1
 527.138671875 457.205078125 l 1,39,-1
 422.461914062 178.791015625 l 1,40,-1
 367.267578125 178.791015625 l 1,41,-1
 262.590820312 457.205078125 l 1,42,-1
 262.590820312 100.758789062 l 1,43,-1
 209.299804688 100.758789062 l 1,44,-1
 209.299804688 506.6875 l 1,32,-1
EndSplineSet
Validated: 3073
EndChar

StartChar: PinchingFingers
Encoding: 129292 129292 22
Width: 1052
Flags: W
LayerCount: 2
Fore
SplineSet
692.635742188 467.290039062 m 1,0,1
 633.784179688 383.959138181 633.784179688 383.959138181 633.784179688 354.880447997 c 0,2,3
 633.784179688 315.303241167 633.784179688 315.303241167 668.298828125 257.2734375 c 1,4,5
 687.841796875 266.224609375 687.841796875 266.224609375 703.274902344 266.224609375 c 128,-1,6
 718.708007812 266.224609375 718.708007812 266.224609375 729.084960938 265.123046875 c 1,7,8
 735.610351562 351.338867188 735.610351562 351.338867188 744.083007812 387.012695312 c 1,9,10
 722.000976562 414.944335938 722.000976562 414.944335938 692.635742188 467.290039062 c 1,0,1
712.375 608.595703125 m 1,11,12
 703.203125 635.6849024 703.203125 635.6849024 703.203125 654.288740263 c 128,-1,13
 703.203125 672.892578125 703.203125 672.892578125 704.392578125 681.756835938 c 0,14,15
 697.8203125 707.96484375 697.8203125 707.96484375 687.68359375 712.172851562 c 128,-1,16
 677.546875 716.381835938 677.546875 716.381835938 666.541015625 716.381835938 c 128,-1,17
 655.53515625 716.381835938 655.53515625 716.381835938 640.897460938 694.857421875 c 0,18,19
 636.333007812 688.14453125 636.333007812 688.14453125 620.12890625 660.470703125 c 0,20,21
 553.88325959 547.338485358 553.88325959 547.338485358 503.078125 504.649414062 c 0,22,23
 475.856445312 481.775390625 475.856445312 481.775390625 446.149414062 470.66015625 c 128,-1,24
 416.443359375 459.544921875 416.443359375 459.544921875 375.912109375 430.201171875 c 128,-1,25
 335.380859375 400.857421875 335.380859375 400.857421875 295.236328125 360.43359375 c 128,-1,26
 255.091796875 320.009765625 255.091796875 320.009765625 225.061523438 267.526367188 c 128,-1,27
 195.03125 215.041992188 195.03125 215.041992188 188.3671875 165.760742188 c 0,28,29
 187.46484375 159.086914062 187.46484375 159.086914062 182.13671875 153.758789062 c 128,-1,30
 176.809570312 148.431640625 176.809570312 148.431640625 168.125 148.431640625 c 128,-1,31
 159.440429688 148.431640625 159.440429688 148.431640625 153.418945312 154.452148438 c 128,-1,32
 147.534179688 160.336914062 147.534179688 160.336914062 147.534179688 166.768554688 c 128,-1,33
 147.534179688 173.200195312 147.534179688 173.200195312 150.727539062 188.872070312 c 1,34,35
 57.6337890625 160.508789062 57.6337890625 160.508789062 47.0625 160.508789062 c 128,-1,36
 36.4912109375 160.508789062 36.4912109375 160.508789062 30.578125 166.421875 c 128,-1,37
 24.6650390625 172.334960938 24.6650390625 172.334960938 24.6650390625 181.0625 c 128,-1,38
 24.6650390625 189.7890625 24.6650390625 189.7890625 30.1572265625 195.28125 c 128,-1,39
 35.6494140625 200.7734375 35.6494140625 200.7734375 46.3920898438 201.75 c 128,-1,40
 57.134765625 202.7265625 57.134765625 202.7265625 164.592773438 236.025390625 c 1,41,42
 213.329689608 363.192496061 213.329689608 363.192496061 353.288085938 464.4609375 c 0,43,44
 396.892578125 496.010742188 396.892578125 496.010742188 437.791992188 511.313964844 c 0,45,46
 498.594354325 534.064219515 498.594354325 534.064219515 585.3359375 682.20703125 c 0,47,48
 609.667083567 723.759857005 609.667083567 723.759857005 626.474166784 740.566940221 c 128,-1,49
 643.28125 757.374023438 643.28125 757.374023438 674.702372988 757.374023438 c 128,-1,50
 706.123495977 757.374023438 706.123495977 757.374023438 725.841796875 732.530273438 c 1,51,52
 753.552928349 765.813476562 753.552928349 765.813476562 789.595800112 765.813476562 c 128,-1,53
 825.638671875 765.813476562 825.638671875 765.813476562 857.473632812 727.69140625 c 0,54,55
 869.283203125 713.549804688 869.283203125 713.549804688 914.291992188 644.989257812 c 128,-1,56
 959.30078125 576.427734375 959.30078125 576.427734375 996.686523438 515.446289062 c 0,57,58
 1017.78125 481.037790236 1017.78125 481.037790236 1017.78125 416.630859375 c 0,59,60
 1017.78125 320.858947473 1017.78125 320.858947473 980.091796875 163.562774518 c 128,-1,61
 942.40234375 6.2666015625 942.40234375 6.2666015625 930.2578125 -12.267578125 c 128,-1,62
 918.11328125 -30.8017578125 918.11328125 -30.8017578125 901.969726562 -37.58203125 c 128,-1,63
 885.826171875 -44.3623046875 885.826171875 -44.3623046875 872.62890625 -46.6171875 c 128,-1,64
 859.432617188 -48.87109375 859.432617188 -48.87109375 815.9140625 -53.83203125 c 128,-1,65
 772.396484375 -58.79296875 772.396484375 -58.79296875 497.708984375 -94.6962890625 c 0,66,67
 109.034091817 -145.497070312 109.034091817 -145.497070312 97.754350596 -145.497070312 c 128,-1,68
 86.474609375 -145.497070312 86.474609375 -145.497070312 80.5390625 -139.561523438 c 128,-1,69
 74.603515625 -133.625976562 74.603515625 -133.625976562 74.603515625 -124.922851562 c 128,-1,70
 74.603515625 -116.219726562 74.603515625 -116.219726562 79.998046875 -110.825195312 c 128,-1,71
 85.3916015625 -105.430664062 85.3916015625 -105.430664062 92.2822265625 -104.625 c 0,72,73
 217.986328125 -89.9140625 217.986328125 -89.9140625 492.639648438 -54.0146484375 c 128,-1,74
 767.29296875 -18.1162109375 767.29296875 -18.1162109375 815.374023438 -12.634765625 c 128,-1,75
 863.454101562 -7.1533203125 863.454101562 -7.1533203125 876.34375 -3.60546875 c 128,-1,76
 889.233398438 -0.0576171875 889.233398438 -0.0576171875 893.10546875 5.8515625 c 0,77,78
 904.116570388 22.6556422007 904.116570388 22.6556422007 932.655453163 141.713563288 c 0,79,80
 976.797851562 325.86590824 976.797851562 325.86590824 976.797851562 416.331054688 c 0,81,82
 976.797851562 469.4296875 976.797851562 469.4296875 961.716796875 494.030273438 c 0,83,84
 924.715820312 554.381835938 924.715820312 554.381835938 880.4765625 621.768554688 c 128,-1,85
 836.236328125 689.155273438 836.236328125 689.155273438 821.344238281 706.98828125 c 128,-1,86
 806.452148438 724.821289062 806.452148438 724.821289062 793.996582031 724.821289062 c 0,87,88
 775.569335938 724.821289062 775.569335938 724.821289062 759.882324219 709.134277344 c 128,-1,89
 744.1953125 693.447265625 744.1953125 693.447265625 744.1953125 663.245117188 c 0,90,91
 744.1953125 620.390334535 744.1953125 620.390334535 784.715820312 553.356445312 c 0,92,93
 793.344726562 539.081054688 793.344726562 539.081054688 799.934570312 525.8984375 c 128,-1,94
 806.524414062 512.715820312 806.524414062 512.715820312 837.847167969 462.265625 c 128,-1,95
 869.169921875 411.815429688 869.169921875 411.815429688 869.169921875 407.018066406 c 128,-1,96
 869.169921875 402.138607551 869.169921875 402.138607551 857.007324219 371.990202213 c 0,97,98
 835.705776375 319.188348788 835.705776375 319.188348788 821.440429688 207.6484375 c 1,99,100
 826.948242188 201.899414062 826.948242188 201.899414062 826.948242188 193.736328125 c 128,-1,101
 826.948242188 185.572265625 826.948242188 185.572265625 820.741210938 179.364257812 c 128,-1,102
 814.533203125 173.157226562 814.533203125 173.157226562 806.245117188 173.157226562 c 128,-1,103
 797.95703125 173.157226562 797.95703125 173.157226562 792.984375 178.129882812 c 128,-1,104
 788.01171875 183.102539062 788.01171875 183.102539062 780.015625 192.785644531 c 128,-1,105
 772.01953125 202.46875 772.01953125 202.46875 767.228515625 207.108398438 c 128,-1,106
 762.438476562 211.748046875 762.438476562 211.748046875 750.283203125 217.5234375 c 128,-1,107
 738.12890625 223.297851562 738.12890625 223.297851562 726.283203125 224.265625 c 128,-1,108
 714.4375 225.232421875 714.4375 225.232421875 707.32421875 225.232421875 c 128,-1,109
 700.211914062 225.232421875 700.211914062 225.232421875 692.03515625 222.811523438 c 1,110,111
 695.34765625 218.669921875 695.34765625 218.669921875 699.984375 213.319335938 c 128,-1,112
 704.62109375 207.969726562 704.62109375 207.969726562 704.62109375 200.657226562 c 128,-1,113
 704.62109375 193.344726562 704.62109375 193.344726562 697.013671875 186.76171875 c 128,-1,114
 689.405273438 180.178710938 689.405273438 180.178710938 681.925292969 180.178710938 c 128,-1,115
 674.4453125 180.178710938 674.4453125 180.178710938 667.7578125 187.900390625 c 0,116,117
 638.16796875 222.04296875 638.16796875 222.04296875 615.479492188 269.202148438 c 128,-1,118
 592.791992188 316.361328125 592.791992188 316.361328125 592.791992188 352.462890625 c 0,119,120
 592.791992188 384.156000385 592.791992188 384.156000385 622.94140625 434.115109568 c 128,-1,121
 653.090820312 484.07421875 653.090820312 484.07421875 667.006835938 501.78515625 c 0,122,123
 694.96996744 537.373882771 694.96996744 537.373882771 712.375 608.595703125 c 1,11,12
737.993164062 552.2421875 m 1,124,125
 728.216796875 525.29296875 728.216796875 525.29296875 718.30859375 506.036132812 c 1,126,127
 755.12890625 435.849609375 755.12890625 435.849609375 782.141601562 405.369140625 c 0,128,129
 787.346679688 399.49609375 787.346679688 399.49609375 787.346679688 394.268554688 c 128,-1,130
 787.346679688 389.041015625 787.346679688 389.041015625 785.922851562 385.1796875 c 0,131,132
 776.734375 360.252929688 776.734375 360.252929688 769.391601562 253.817382812 c 1,133,134
 778.557617188 249.356445312 778.557617188 249.356445312 785.23046875 244.948242188 c 1,135,136
 791.682617188 290.775390625 791.682617188 290.775390625 798.732421875 322.947265625 c 128,-1,137
 805.783203125 355.118164062 805.783203125 355.118164062 825.770507812 403.986328125 c 1,138,139
 770.10546875 493.856445312 770.10546875 493.856445312 763.752929688 506.564941406 c 128,-1,140
 757.400390625 519.2734375 757.400390625 519.2734375 750.391601562 530.868164062 c 128,-1,141
 743.383789062 542.461914062 743.383789062 542.461914062 737.993164062 552.2421875 c 1,124,125
EndSplineSet
Validated: 3073
EndChar

StartChar: Circle00
Encoding: 129280 129280 23
Width: 1000
LayerCount: 2
Fore
SplineSet
500 774.619140625 m 128,-1,1
 596.4921875 774.619140625 596.4921875 774.619140625 684.37890625 737.006835938 c 128,-1,2
 772.266601562 699.39453125 772.266601562 699.39453125 835.831054688 635.831054688 c 128,-1,3
 899.39453125 572.266601562 899.39453125 572.266601562 937.006835938 484.37890625 c 128,-1,4
 974.619140625 396.4921875 974.619140625 396.4921875 974.619140625 300 c 128,-1,5
 974.619140625 203.5078125 974.619140625 203.5078125 937.006835938 115.62109375 c 128,-1,6
 899.39453125 27.7333984375 899.39453125 27.7333984375 835.831054688 -35.8310546875 c 128,-1,7
 772.266601562 -99.39453125 772.266601562 -99.39453125 684.37890625 -137.006835938 c 128,-1,8
 596.4921875 -174.619140625 596.4921875 -174.619140625 500 -174.619140625 c 128,-1,9
 403.5078125 -174.619140625 403.5078125 -174.619140625 315.62109375 -137.006835938 c 128,-1,10
 227.733398438 -99.39453125 227.733398438 -99.39453125 164.168945312 -35.8310546875 c 128,-1,11
 100.60546875 27.7333984375 100.60546875 27.7333984375 62.9931640625 115.62109375 c 128,-1,12
 25.3798828125 203.5078125 25.3798828125 203.5078125 25.3798828125 300 c 128,-1,13
 25.3798828125 396.4921875 25.3798828125 396.4921875 62.9931640625 484.37890625 c 128,-1,14
 100.60546875 572.266601562 100.60546875 572.266601562 164.168945312 635.831054688 c 128,-1,15
 227.733398438 699.39453125 227.733398438 699.39453125 315.62109375 737.006835938 c 128,-1,0
 403.5078125 774.619140625 403.5078125 774.619140625 500 774.619140625 c 128,-1,1
716.694335938 679.37109375 m 1,16,17
 622.392578125 647.28515625 622.392578125 647.28515625 580.391601562 568.796875 c 0,18,19
 542.860351562 498.659179688 542.860351562 498.659179688 533.181640625 398.041015625 c 1,20,-1
 530.479492188 330.479492188 l 1,21,-1
 598.051757812 333.18359375 l 1,22,23
 764.661132812 349.211914062 764.661132812 349.211914062 835.15625 435.17578125 c 0,24,25
 863.319335938 469.518554688 863.319335938 469.518554688 879.37109375 516.694335938 c 1,26,27
 820.225585938 620.225585938 820.225585938 620.225585938 716.694335938 679.37109375 c 1,16,17
284.489257812 678.95703125 m 1,28,29
 180.354492188 619.645507812 180.354492188 619.645507812 121.04296875 515.510742188 c 1,30,31
 153.325195312 421.885742188 153.325195312 421.885742188 231.65234375 380.140625 c 0,32,33
 301.661132812 342.829101562 301.661132812 342.829101562 401.955078125 333.181640625 c 1,34,-1
 469.522460938 330.479492188 l 1,35,-1
 466.818359375 398.044921875 l 1,36,37
 450.845703125 564.091796875 450.845703125 564.091796875 365.436523438 634.634765625 c 0,38,39
 331.328125 662.806640625 331.328125 662.806640625 284.489257812 678.95703125 c 1,28,29
281.5 585 m 128,-1,41
 309.049804688 585 309.049804688 585 328.525390625 565.525390625 c 128,-1,42
 348 546.049804688 348 546.049804688 348 518.5 c 128,-1,43
 348 490.950195312 348 490.950195312 328.525390625 471.474609375 c 128,-1,44
 309.049804688 452 309.049804688 452 281.5 452 c 128,-1,45
 253.950195312 452 253.950195312 452 234.474609375 471.474609375 c 128,-1,46
 215 490.950195312 215 490.950195312 215 518.5 c 128,-1,47
 215 546.049804688 215 546.049804688 234.474609375 565.525390625 c 128,-1,40
 253.950195312 585 253.950195312 585 281.5 585 c 128,-1,41
718.5 585 m 128,-1,49
 746.049804688 585 746.049804688 585 765.525390625 565.525390625 c 128,-1,50
 785 546.049804688 785 546.049804688 785 518.5 c 128,-1,51
 785 490.950195312 785 490.950195312 765.525390625 471.474609375 c 128,-1,52
 746.049804688 452 746.049804688 452 718.5 452 c 128,-1,53
 690.950195312 452 690.950195312 452 671.474609375 471.474609375 c 128,-1,54
 652 490.950195312 652 490.950195312 652 518.5 c 128,-1,55
 652 546.049804688 652 546.049804688 671.474609375 565.525390625 c 128,-1,48
 690.950195312 585 690.950195312 585 718.5 585 c 128,-1,49
469.520507812 269.520507812 m 1,56,-1
 401.944335938 266.81640625 l 1,57,58
 235.90234375 250.841796875 235.90234375 250.841796875 165.36328125 165.434570312 c 0,59,60
 137.192382812 131.326171875 137.192382812 131.326171875 121.04296875 84.4892578125 c 1,61,62
 180.354492188 -19.6455078125 180.354492188 -19.6455078125 284.489257812 -78.95703125 c 1,63,64
 378.114257812 -46.6748046875 378.114257812 -46.6748046875 419.859375 31.65234375 c 0,65,66
 457.170898438 101.661132812 457.170898438 101.661132812 466.818359375 201.955078125 c 1,67,-1
 469.520507812 269.520507812 l 1,56,-1
530.479492188 269.520507812 m 1,68,-1
 533.18359375 201.947265625 l 1,69,70
 549.211914062 35.3388671875 549.211914062 35.3388671875 635.17578125 -35.15625 c 0,71,72
 669.518554688 -63.3193359375 669.518554688 -63.3193359375 716.694335938 -79.37109375 c 1,73,74
 820.225585938 -20.2255859375 820.225585938 -20.2255859375 879.37109375 83.3056640625 c 1,75,76
 847.286132812 177.607421875 847.286132812 177.607421875 768.797851562 219.608398438 c 0,77,78
 698.662109375 257.139648438 698.662109375 257.139648438 598.044921875 266.818359375 c 1,79,-1
 530.479492188 269.520507812 l 1,68,-1
281.5 148 m 128,-1,81
 309.049804688 148 309.049804688 148 328.525390625 128.525390625 c 128,-1,82
 348 109.049804688 348 109.049804688 348 81.5 c 128,-1,83
 348 53.9501953125 348 53.9501953125 328.525390625 34.474609375 c 128,-1,84
 309.049804688 15 309.049804688 15 281.5 15 c 128,-1,85
 253.950195312 15 253.950195312 15 234.474609375 34.474609375 c 128,-1,86
 215 53.9501953125 215 53.9501953125 215 81.5 c 128,-1,87
 215 109.049804688 215 109.049804688 234.474609375 128.525390625 c 128,-1,80
 253.950195312 148 253.950195312 148 281.5 148 c 128,-1,81
718.5 148 m 128,-1,89
 746.049804688 148 746.049804688 148 765.525390625 128.525390625 c 128,-1,90
 785 109.049804688 785 109.049804688 785 81.5 c 128,-1,91
 785 53.9501953125 785 53.9501953125 765.525390625 34.474609375 c 128,-1,92
 746.049804688 15 746.049804688 15 718.5 15 c 128,-1,93
 690.950195312 15 690.950195312 15 671.474609375 34.474609375 c 128,-1,94
 652 53.9501953125 652 53.9501953125 652 81.5 c 128,-1,95
 652 109.049804688 652 109.049804688 671.474609375 128.525390625 c 128,-1,88
 690.950195312 148 690.950195312 148 718.5 148 c 128,-1,89
EndSplineSet
Validated: 3073
EndChar

StartChar: Circle01
Encoding: 129281 129281 24
Width: 1000
Flags: W
LayerCount: 2
Fore
SplineSet
500 774.619140625 m 128,-1,1
 596.4921875 774.619140625 596.4921875 774.619140625 684.37890625 737.006835938 c 128,-1,2
 772.266601562 699.39453125 772.266601562 699.39453125 835.831054688 635.831054688 c 128,-1,3
 899.39453125 572.266601562 899.39453125 572.266601562 937.006835938 484.37890625 c 128,-1,4
 974.619140625 396.4921875 974.619140625 396.4921875 974.619140625 300 c 128,-1,5
 974.619140625 203.5078125 974.619140625 203.5078125 937.006835938 115.62109375 c 128,-1,6
 899.39453125 27.7333984375 899.39453125 27.7333984375 835.831054688 -35.8310546875 c 128,-1,7
 772.266601562 -99.39453125 772.266601562 -99.39453125 684.37890625 -137.006835938 c 128,-1,8
 596.4921875 -174.619140625 596.4921875 -174.619140625 500 -174.619140625 c 128,-1,9
 403.5078125 -174.619140625 403.5078125 -174.619140625 315.62109375 -137.006835938 c 128,-1,10
 227.733398438 -99.39453125 227.733398438 -99.39453125 164.168945312 -35.8310546875 c 128,-1,11
 100.60546875 27.7333984375 100.60546875 27.7333984375 62.9931640625 115.62109375 c 128,-1,12
 25.3798828125 203.5078125 25.3798828125 203.5078125 25.3798828125 300 c 128,-1,13
 25.3798828125 396.4921875 25.3798828125 396.4921875 62.9931640625 484.37890625 c 128,-1,14
 100.60546875 572.266601562 100.60546875 572.266601562 164.168945312 635.831054688 c 128,-1,15
 227.733398438 699.39453125 227.733398438 699.39453125 315.62109375 737.006835938 c 128,-1,0
 403.5078125 774.619140625 403.5078125 774.619140625 500 774.619140625 c 128,-1,1
716.694335938 679.37109375 m 1,16,17
 622.392578125 647.28515625 622.392578125 647.28515625 580.391601562 568.796875 c 0,18,19
 542.860351562 498.659179688 542.860351562 498.659179688 533.181640625 398.041015625 c 1,20,-1
 530.479492188 330.479492188 l 1,21,-1
 598.051757812 333.18359375 l 1,22,23
 764.661132812 349.211914062 764.661132812 349.211914062 835.15625 435.17578125 c 0,24,25
 863.319335938 469.518554688 863.319335938 469.518554688 879.37109375 516.694335938 c 1,26,27
 820.225585938 620.225585938 820.225585938 620.225585938 716.694335938 679.37109375 c 1,16,17
284.489257812 678.95703125 m 1,28,29
 180.354492188 619.645507812 180.354492188 619.645507812 121.04296875 515.510742188 c 1,30,31
 153.325195312 421.885742188 153.325195312 421.885742188 231.65234375 380.140625 c 0,32,33
 301.661132812 342.829101562 301.661132812 342.829101562 401.955078125 333.181640625 c 1,34,-1
 469.522460938 330.479492188 l 1,35,-1
 466.818359375 398.044921875 l 1,36,37
 450.845703125 564.091796875 450.845703125 564.091796875 365.436523438 634.634765625 c 0,38,39
 331.328125 662.806640625 331.328125 662.806640625 284.489257812 678.95703125 c 1,28,29
281.5 585 m 128,-1,41
 309.049804688 585 309.049804688 585 328.525390625 565.525390625 c 128,-1,42
 348 546.049804688 348 546.049804688 348 518.5 c 128,-1,43
 348 490.950195312 348 490.950195312 328.525390625 471.474609375 c 128,-1,44
 309.049804688 452 309.049804688 452 281.5 452 c 128,-1,45
 253.950195312 452 253.950195312 452 234.474609375 471.474609375 c 128,-1,46
 215 490.950195312 215 490.950195312 215 518.5 c 128,-1,47
 215 546.049804688 215 546.049804688 234.474609375 565.525390625 c 128,-1,40
 253.950195312 585 253.950195312 585 281.5 585 c 128,-1,41
718.5 585 m 128,-1,49
 746.049804688 585 746.049804688 585 765.525390625 565.525390625 c 128,-1,50
 785 546.049804688 785 546.049804688 785 518.5 c 128,-1,51
 785 490.950195312 785 490.950195312 765.525390625 471.474609375 c 128,-1,52
 746.049804688 452 746.049804688 452 718.5 452 c 128,-1,53
 690.950195312 452 690.950195312 452 671.474609375 471.474609375 c 128,-1,54
 652 490.950195312 652 490.950195312 652 518.5 c 128,-1,55
 652 546.049804688 652 546.049804688 671.474609375 565.525390625 c 128,-1,48
 690.950195312 585 690.950195312 585 718.5 585 c 128,-1,49
469.520507812 269.520507812 m 1,56,-1
 401.944335938 266.81640625 l 1,57,58
 235.90234375 250.841796875 235.90234375 250.841796875 165.36328125 165.434570312 c 0,59,60
 137.192382812 131.326171875 137.192382812 131.326171875 121.04296875 84.4892578125 c 1,61,62
 180.354492188 -19.6455078125 180.354492188 -19.6455078125 284.489257812 -78.95703125 c 1,63,64
 378.114257812 -46.6748046875 378.114257812 -46.6748046875 419.859375 31.65234375 c 0,65,66
 457.170898438 101.661132812 457.170898438 101.661132812 466.818359375 201.955078125 c 1,67,-1
 469.520507812 269.520507812 l 1,56,-1
530.479492188 269.520507812 m 1,68,-1
 533.18359375 201.947265625 l 1,69,70
 549.211914062 35.3388671875 549.211914062 35.3388671875 635.17578125 -35.15625 c 0,71,72
 669.518554688 -63.3193359375 669.518554688 -63.3193359375 716.694335938 -79.37109375 c 1,73,74
 820.225585938 -20.2255859375 820.225585938 -20.2255859375 879.37109375 83.3056640625 c 1,75,76
 847.286132812 177.607421875 847.286132812 177.607421875 768.797851562 219.608398438 c 0,77,78
 698.662109375 257.139648438 698.662109375 257.139648438 598.044921875 266.818359375 c 1,79,-1
 530.479492188 269.520507812 l 1,68,-1
EndSplineSet
Validated: 3073
EndChar

StartChar: Circle02
Encoding: 129282 129282 25
Width: 1000
Flags: W
LayerCount: 2
Fore
SplineSet
500 774.619140625 m 128,-1,1
 596.4921875 774.619140625 596.4921875 774.619140625 684.37890625 737.006835938 c 128,-1,2
 772.266601562 699.39453125 772.266601562 699.39453125 835.831054688 635.831054688 c 128,-1,3
 899.39453125 572.266601562 899.39453125 572.266601562 937.006835938 484.37890625 c 128,-1,4
 974.619140625 396.4921875 974.619140625 396.4921875 974.619140625 300 c 128,-1,5
 974.619140625 203.5078125 974.619140625 203.5078125 937.006835938 115.62109375 c 128,-1,6
 899.39453125 27.7333984375 899.39453125 27.7333984375 835.831054688 -35.8310546875 c 128,-1,7
 772.266601562 -99.39453125 772.266601562 -99.39453125 684.37890625 -137.006835938 c 128,-1,8
 596.4921875 -174.619140625 596.4921875 -174.619140625 500 -174.619140625 c 128,-1,9
 403.5078125 -174.619140625 403.5078125 -174.619140625 315.62109375 -137.006835938 c 128,-1,10
 227.733398438 -99.39453125 227.733398438 -99.39453125 164.168945312 -35.8310546875 c 128,-1,11
 100.60546875 27.7333984375 100.60546875 27.7333984375 62.9931640625 115.62109375 c 128,-1,12
 25.3798828125 203.5078125 25.3798828125 203.5078125 25.3798828125 300 c 128,-1,13
 25.3798828125 396.4921875 25.3798828125 396.4921875 62.9931640625 484.37890625 c 128,-1,14
 100.60546875 572.266601562 100.60546875 572.266601562 164.168945312 635.831054688 c 128,-1,15
 227.733398438 699.39453125 227.733398438 699.39453125 315.62109375 737.006835938 c 128,-1,0
 403.5078125 774.619140625 403.5078125 774.619140625 500 774.619140625 c 128,-1,1
716.694335938 679.37109375 m 1,16,17
 622.392578125 647.28515625 622.392578125 647.28515625 580.391601562 568.796875 c 0,18,19
 542.860351562 498.659179688 542.860351562 498.659179688 533.181640625 398.041015625 c 1,20,-1
 530.479492188 330.479492188 l 1,21,-1
 598.051757812 333.18359375 l 1,22,23
 764.661132812 349.211914062 764.661132812 349.211914062 835.15625 435.17578125 c 0,24,25
 863.319335938 469.518554688 863.319335938 469.518554688 879.37109375 516.694335938 c 1,26,27
 820.225585938 620.225585938 820.225585938 620.225585938 716.694335938 679.37109375 c 1,16,17
284.489257812 678.95703125 m 1,28,29
 180.354492188 619.645507812 180.354492188 619.645507812 121.04296875 515.510742188 c 1,30,31
 153.325195312 421.885742188 153.325195312 421.885742188 231.65234375 380.140625 c 0,32,33
 301.661132812 342.829101562 301.661132812 342.829101562 401.955078125 333.181640625 c 1,34,-1
 469.522460938 330.479492188 l 1,35,-1
 466.818359375 398.044921875 l 1,36,37
 450.845703125 564.091796875 450.845703125 564.091796875 365.436523438 634.634765625 c 0,38,39
 331.328125 662.806640625 331.328125 662.806640625 284.489257812 678.95703125 c 1,28,29
469.520507812 269.520507812 m 1,40,-1
 401.944335938 266.81640625 l 1,41,42
 235.90234375 250.841796875 235.90234375 250.841796875 165.36328125 165.434570312 c 0,43,44
 137.192382812 131.326171875 137.192382812 131.326171875 121.04296875 84.4892578125 c 1,45,46
 180.354492188 -19.6455078125 180.354492188 -19.6455078125 284.489257812 -78.95703125 c 1,47,48
 378.114257812 -46.6748046875 378.114257812 -46.6748046875 419.859375 31.65234375 c 0,49,50
 457.170898438 101.661132812 457.170898438 101.661132812 466.818359375 201.955078125 c 1,51,-1
 469.520507812 269.520507812 l 1,40,-1
530.479492188 269.520507812 m 1,52,-1
 533.18359375 201.947265625 l 1,53,54
 549.211914062 35.3388671875 549.211914062 35.3388671875 635.17578125 -35.15625 c 0,55,56
 669.518554688 -63.3193359375 669.518554688 -63.3193359375 716.694335938 -79.37109375 c 1,57,58
 820.225585938 -20.2255859375 820.225585938 -20.2255859375 879.37109375 83.3056640625 c 1,59,60
 847.286132812 177.607421875 847.286132812 177.607421875 768.797851562 219.608398438 c 0,61,62
 698.662109375 257.139648438 698.662109375 257.139648438 598.044921875 266.818359375 c 1,63,-1
 530.479492188 269.520507812 l 1,52,-1
EndSplineSet
Validated: 3073
EndChar

StartChar: Circle03
Encoding: 129283 129283 26
Width: 754
Flags: W
LayerCount: 2
Fore
SplineSet
493.009765625 774.619140625 m 1,0,-1
 493.009765625 718 l 1,1,2
 320.110351562 718 320.110351562 718 197.559570312 595.450195312 c 128,-1,3
 75.009765625 472.900390625 75.009765625 472.900390625 75.009765625 300 c 128,-1,4
 75.009765625 127.099609375 75.009765625 127.099609375 197.559570312 4.5498046875 c 128,-1,5
 320.110351562 -118 320.110351562 -118 493.009765625 -118 c 1,6,-1
 493.009765625 -174.619140625 l 1,7,8
 396.518554688 -174.619140625 396.518554688 -174.619140625 308.630859375 -137.006835938 c 128,-1,9
 220.743164062 -99.39453125 220.743164062 -99.39453125 157.1796875 -35.8310546875 c 128,-1,10
 93.615234375 27.7333984375 93.615234375 27.7333984375 56.0029296875 115.62109375 c 128,-1,11
 18.390625 203.5078125 18.390625 203.5078125 18.390625 300 c 128,-1,12
 18.390625 396.4921875 18.390625 396.4921875 56.0029296875 484.37890625 c 128,-1,13
 93.615234375 572.266601562 93.615234375 572.266601562 157.1796875 635.831054688 c 128,-1,14
 220.743164062 699.39453125 220.743164062 699.39453125 308.630859375 737.006835938 c 128,-1,15
 396.518554688 774.619140625 396.518554688 774.619140625 493.009765625 774.619140625 c 1,0,-1
284.009765625 471 m 128,-1,17
 284.009765625 502.349609375 284.009765625 502.349609375 306.334960938 524.674804688 c 128,-1,18
 328.66015625 547 328.66015625 547 360.009765625 547 c 128,-1,19
 391.360351562 547 391.360351562 547 413.684570312 524.674804688 c 128,-1,20
 436.009765625 502.349609375 436.009765625 502.349609375 436.009765625 471 c 128,-1,21
 436.009765625 439.650390625 436.009765625 439.650390625 413.684570312 417.325195312 c 128,-1,22
 391.360351562 395 391.360351562 395 360.009765625 395 c 128,-1,23
 328.66015625 395 328.66015625 395 306.334960938 417.325195312 c 128,-1,16
 284.009765625 439.650390625 284.009765625 439.650390625 284.009765625 471 c 128,-1,17
360.009765625 53 m 128,-1,25
 328.66015625 53 328.66015625 53 306.334960938 75.3251953125 c 128,-1,26
 284.009765625 97.650390625 284.009765625 97.650390625 284.009765625 129 c 128,-1,27
 284.009765625 160.349609375 284.009765625 160.349609375 306.334960938 182.674804688 c 128,-1,28
 328.66015625 205 328.66015625 205 360.009765625 205 c 128,-1,29
 391.360351562 205 391.360351562 205 413.684570312 182.674804688 c 128,-1,30
 436.009765625 160.349609375 436.009765625 160.349609375 436.009765625 129 c 128,-1,31
 436.009765625 97.650390625 436.009765625 97.650390625 413.684570312 75.3251953125 c 128,-1,24
 391.360351562 53 391.360351562 53 360.009765625 53 c 128,-1,25
702.009765625 129 m 128,-1,33
 702.009765625 97.650390625 702.009765625 97.650390625 679.684570312 75.3251953125 c 128,-1,34
 657.360351562 53 657.360351562 53 626.009765625 53 c 128,-1,35
 594.66015625 53 594.66015625 53 572.334960938 75.3251953125 c 128,-1,36
 550.009765625 97.650390625 550.009765625 97.650390625 550.009765625 129 c 128,-1,37
 550.009765625 160.349609375 550.009765625 160.349609375 572.334960938 182.674804688 c 128,-1,38
 594.66015625 205 594.66015625 205 626.009765625 205 c 128,-1,39
 657.360351562 205 657.360351562 205 679.684570312 182.674804688 c 128,-1,32
 702.009765625 160.349609375 702.009765625 160.349609375 702.009765625 129 c 128,-1,33
626.009765625 547 m 128,-1,41
 657.360351562 547 657.360351562 547 679.684570312 524.674804688 c 128,-1,42
 702.009765625 502.349609375 702.009765625 502.349609375 702.009765625 471 c 128,-1,43
 702.009765625 439.650390625 702.009765625 439.650390625 679.684570312 417.325195312 c 128,-1,44
 657.360351562 395 657.360351562 395 626.009765625 395 c 128,-1,45
 594.66015625 395 594.66015625 395 572.334960938 417.325195312 c 128,-1,46
 550.009765625 439.650390625 550.009765625 439.650390625 550.009765625 471 c 128,-1,47
 550.009765625 502.349609375 550.009765625 502.349609375 572.334960938 524.674804688 c 128,-1,40
 594.66015625 547 594.66015625 547 626.009765625 547 c 128,-1,41
EndSplineSet
Validated: 3073
EndChar

StartChar: Circle04
Encoding: 129284 129284 27
Width: 754
Flags: W
LayerCount: 2
Fore
SplineSet
493.009765625 774.619140625 m 1,0,-1
 493.009765625 718 l 1,1,2
 320.110351562 718 320.110351562 718 197.559570312 595.450195312 c 128,-1,3
 75.009765625 472.900390625 75.009765625 472.900390625 75.009765625 300 c 128,-1,4
 75.009765625 127.099609375 75.009765625 127.099609375 197.559570312 4.5498046875 c 128,-1,5
 320.110351562 -118 320.110351562 -118 493.009765625 -118 c 1,6,-1
 493.009765625 -174.619140625 l 1,7,8
 396.518554688 -174.619140625 396.518554688 -174.619140625 308.630859375 -137.006835938 c 128,-1,9
 220.743164062 -99.39453125 220.743164062 -99.39453125 157.1796875 -35.8310546875 c 128,-1,10
 93.615234375 27.7333984375 93.615234375 27.7333984375 56.0029296875 115.62109375 c 128,-1,11
 18.390625 203.5078125 18.390625 203.5078125 18.390625 300 c 128,-1,12
 18.390625 396.4921875 18.390625 396.4921875 56.0029296875 484.37890625 c 128,-1,13
 93.615234375 572.266601562 93.615234375 572.266601562 157.1796875 635.831054688 c 128,-1,14
 220.743164062 699.39453125 220.743164062 699.39453125 308.630859375 737.006835938 c 128,-1,15
 396.518554688 774.619140625 396.518554688 774.619140625 493.009765625 774.619140625 c 1,0,-1
284.009765625 471 m 128,-1,17
 284.009765625 502.349609375 284.009765625 502.349609375 306.334960938 524.674804688 c 128,-1,18
 328.66015625 547 328.66015625 547 360.009765625 547 c 128,-1,19
 391.360351562 547 391.360351562 547 413.684570312 524.674804688 c 128,-1,20
 436.009765625 502.349609375 436.009765625 502.349609375 436.009765625 471 c 128,-1,21
 436.009765625 439.650390625 436.009765625 439.650390625 413.684570312 417.325195312 c 128,-1,22
 391.360351562 395 391.360351562 395 360.009765625 395 c 128,-1,23
 328.66015625 395 328.66015625 395 306.334960938 417.325195312 c 128,-1,16
 284.009765625 439.650390625 284.009765625 439.650390625 284.009765625 471 c 128,-1,17
360.009765625 53 m 128,-1,25
 328.66015625 53 328.66015625 53 306.334960938 75.3251953125 c 128,-1,26
 284.009765625 97.650390625 284.009765625 97.650390625 284.009765625 129 c 128,-1,27
 284.009765625 160.349609375 284.009765625 160.349609375 306.334960938 182.674804688 c 128,-1,28
 328.66015625 205 328.66015625 205 360.009765625 205 c 128,-1,29
 391.360351562 205 391.360351562 205 413.684570312 182.674804688 c 128,-1,30
 436.009765625 160.349609375 436.009765625 160.349609375 436.009765625 129 c 128,-1,31
 436.009765625 97.650390625 436.009765625 97.650390625 413.684570312 75.3251953125 c 128,-1,24
 391.360351562 53 391.360351562 53 360.009765625 53 c 128,-1,25
626.009765625 376 m 128,-1,33
 657.360351562 376 657.360351562 376 679.684570312 353.674804688 c 128,-1,34
 702.009765625 331.349609375 702.009765625 331.349609375 702.009765625 300 c 128,-1,35
 702.009765625 268.650390625 702.009765625 268.650390625 679.684570312 246.325195312 c 128,-1,36
 657.360351562 224 657.360351562 224 626.009765625 224 c 128,-1,37
 594.66015625 224 594.66015625 224 572.334960938 246.325195312 c 128,-1,38
 550.009765625 268.650390625 550.009765625 268.650390625 550.009765625 300 c 128,-1,39
 550.009765625 331.349609375 550.009765625 331.349609375 572.334960938 353.674804688 c 128,-1,32
 594.66015625 376 594.66015625 376 626.009765625 376 c 128,-1,33
EndSplineSet
Validated: 3073
EndChar

StartChar: Circle05
Encoding: 129285 129285 28
Width: 528
Flags: W
LayerCount: 2
Fore
SplineSet
493.009765625 774.619140625 m 1,0,-1
 493.009765625 718 l 1,1,2
 320.110351562 718 320.110351562 718 197.559570312 595.450195312 c 128,-1,3
 75.009765625 472.900390625 75.009765625 472.900390625 75.009765625 300 c 128,-1,4
 75.009765625 127.099609375 75.009765625 127.099609375 197.559570312 4.5498046875 c 128,-1,5
 320.110351562 -118 320.110351562 -118 493.009765625 -118 c 1,6,-1
 493.009765625 -174.619140625 l 1,7,8
 396.518554688 -174.619140625 396.518554688 -174.619140625 308.630859375 -137.006835938 c 128,-1,9
 220.743164062 -99.39453125 220.743164062 -99.39453125 157.1796875 -35.8310546875 c 128,-1,10
 93.615234375 27.7333984375 93.615234375 27.7333984375 56.0029296875 115.62109375 c 128,-1,11
 18.390625 203.5078125 18.390625 203.5078125 18.390625 300 c 128,-1,12
 18.390625 396.4921875 18.390625 396.4921875 56.0029296875 484.37890625 c 128,-1,13
 93.615234375 572.266601562 93.615234375 572.266601562 157.1796875 635.831054688 c 128,-1,14
 220.743164062 699.39453125 220.743164062 699.39453125 308.630859375 737.006835938 c 128,-1,15
 396.518554688 774.619140625 396.518554688 774.619140625 493.009765625 774.619140625 c 1,0,-1
284.009765625 471 m 128,-1,17
 284.009765625 502.349609375 284.009765625 502.349609375 306.334960938 524.674804688 c 128,-1,18
 328.66015625 547 328.66015625 547 360.009765625 547 c 128,-1,19
 391.360351562 547 391.360351562 547 413.684570312 524.674804688 c 128,-1,20
 436.009765625 502.349609375 436.009765625 502.349609375 436.009765625 471 c 128,-1,21
 436.009765625 439.650390625 436.009765625 439.650390625 413.684570312 417.325195312 c 128,-1,22
 391.360351562 395 391.360351562 395 360.009765625 395 c 128,-1,23
 328.66015625 395 328.66015625 395 306.334960938 417.325195312 c 128,-1,16
 284.009765625 439.650390625 284.009765625 439.650390625 284.009765625 471 c 128,-1,17
360.009765625 53 m 128,-1,25
 328.66015625 53 328.66015625 53 306.334960938 75.3251953125 c 128,-1,26
 284.009765625 97.650390625 284.009765625 97.650390625 284.009765625 129 c 128,-1,27
 284.009765625 160.349609375 284.009765625 160.349609375 306.334960938 182.674804688 c 128,-1,28
 328.66015625 205 328.66015625 205 360.009765625 205 c 128,-1,29
 391.360351562 205 391.360351562 205 413.684570312 182.674804688 c 128,-1,30
 436.009765625 160.349609375 436.009765625 160.349609375 436.009765625 129 c 128,-1,31
 436.009765625 97.650390625 436.009765625 97.650390625 413.684570312 75.3251953125 c 128,-1,24
 391.360351562 53 391.360351562 53 360.009765625 53 c 128,-1,25
EndSplineSet
Validated: 3073
EndChar

StartChar: NameMe.183
Encoding: 129286 129286 29
Width: 528
Flags: W
LayerCount: 2
Fore
SplineSet
487.509765625 774.619140625 m 1,0,-1
 487.509765625 718 l 1,1,2
 314.610351562 718 314.610351562 718 192.059570312 595.450195312 c 128,-1,3
 69.509765625 472.900390625 69.509765625 472.900390625 69.509765625 300 c 128,-1,4
 69.509765625 127.099609375 69.509765625 127.099609375 192.059570312 4.5498046875 c 128,-1,5
 314.610351562 -118 314.610351562 -118 487.509765625 -118 c 1,6,-1
 487.509765625 -174.619140625 l 1,7,8
 391.018554688 -174.619140625 391.018554688 -174.619140625 303.130859375 -137.006835938 c 128,-1,9
 215.243164062 -99.39453125 215.243164062 -99.39453125 151.6796875 -35.8310546875 c 128,-1,10
 88.115234375 27.7333984375 88.115234375 27.7333984375 50.5029296875 115.62109375 c 128,-1,11
 12.890625 203.5078125 12.890625 203.5078125 12.890625 300 c 128,-1,12
 12.890625 396.4921875 12.890625 396.4921875 50.5029296875 484.37890625 c 128,-1,13
 88.115234375 572.266601562 88.115234375 572.266601562 151.6796875 635.831054688 c 128,-1,14
 215.243164062 699.39453125 215.243164062 699.39453125 303.130859375 737.006835938 c 128,-1,15
 391.018554688 774.619140625 391.018554688 774.619140625 487.509765625 774.619140625 c 1,0,-1
278.509765625 300 m 128,-1,17
 278.509765625 331.349609375 278.509765625 331.349609375 300.834960938 353.674804688 c 128,-1,18
 323.16015625 376 323.16015625 376 354.509765625 376 c 128,-1,19
 385.860351562 376 385.860351562 376 408.184570312 353.674804688 c 128,-1,20
 430.509765625 331.349609375 430.509765625 331.349609375 430.509765625 300 c 128,-1,21
 430.509765625 268.650390625 430.509765625 268.650390625 408.184570312 246.325195312 c 128,-1,22
 385.860351562 224 385.860351562 224 354.509765625 224 c 128,-1,23
 323.16015625 224 323.16015625 224 300.834960938 246.325195312 c 128,-1,16
 278.509765625 268.650390625 278.509765625 268.650390625 278.509765625 300 c 128,-1,17
EndSplineSet
Validated: 3073
EndChar

StartChar: Circle07
Encoding: 129287 129287 30
Width: 528
Flags: W
LayerCount: 2
Fore
SplineSet
487.509765625 774.619140625 m 1,0,-1
 487.509765625 718 l 1,1,2
 314.610351562 718 314.610351562 718 192.059570312 595.450195312 c 128,-1,3
 69.509765625 472.900390625 69.509765625 472.900390625 69.509765625 300 c 128,-1,4
 69.509765625 127.099609375 69.509765625 127.099609375 192.059570312 4.5498046875 c 128,-1,5
 314.610351562 -118 314.610351562 -118 487.509765625 -118 c 1,6,-1
 487.509765625 -174.619140625 l 1,7,8
 391.018554688 -174.619140625 391.018554688 -174.619140625 303.130859375 -137.006835938 c 128,-1,9
 215.243164062 -99.39453125 215.243164062 -99.39453125 151.6796875 -35.8310546875 c 128,-1,10
 88.115234375 27.7333984375 88.115234375 27.7333984375 50.5029296875 115.62109375 c 128,-1,11
 12.890625 203.5078125 12.890625 203.5078125 12.890625 300 c 128,-1,12
 12.890625 396.4921875 12.890625 396.4921875 50.5029296875 484.37890625 c 128,-1,13
 88.115234375 572.266601562 88.115234375 572.266601562 151.6796875 635.831054688 c 128,-1,14
 215.243164062 699.39453125 215.243164062 699.39453125 303.130859375 737.006835938 c 128,-1,15
 391.018554688 774.619140625 391.018554688 774.619140625 487.509765625 774.619140625 c 1,0,-1
EndSplineSet
Validated: 3073
EndChar

StartChar: Beaver
Encoding: 129451 129451 31
Width: 1402
Flags: W
LayerCount: 2
Fore
SplineSet
265 593.5 m 128,-1,1
 265 583 265 583 258 576 c 128,-1,2
 251 569 251 569 241 569 c 128,-1,3
 231 569 231 569 223.5 576 c 128,-1,4
 216 583 216 583 216 593.5 c 128,-1,5
 216 604 216 604 223.5 611 c 128,-1,6
 231 618 231 618 241 618 c 128,-1,7
 251 618 251 618 258 611 c 128,-1,0
 265 604 265 604 265 593.5 c 128,-1,1
1041 71 m 1,8,-1
 936 67 l 1,9,10
 893 67 893 67 852 70 c 1,11,-1
 827 44 l 1,12,13
 878 38 878 38 933 -5 c 1,14,15
 984 -56 984 -56 1067 -71 c 0,16,17
 1116 -80 1116 -80 1155 -80 c 0,18,19
 1266 -80 1266 -80 1329 -43 c 1,20,21
 1288 3 1288 3 1198.5 37 c 128,-1,22
 1109 71 1109 71 1041 71 c 1,8,-1
202 341 m 1,23,24
 169 330 169 330 146 330 c 128,-1,25
 123 330 123 330 106 334 c 128,-1,26
 89 338 89 338 76.5 338 c 128,-1,27
 64 338 64 338 64 328 c 2,28,-1
 63 317 l 1,29,30
 63 280 63 280 133 280 c 1,31,32
 133 282 133 282 132 286 c 0,33,34
 132 328 132 328 191 328 c 0,35,36
 202 328 202 328 209 327 c 1,37,-1
 202 341 l 1,23,24
442 -15 m 0,38,39
 451 -21 451 -21 452 -30 c 0,40,41
 452 -49 452 -49 434 -49 c 2,42,-1
 320 -49 l 1,43,44
 294 -57 294 -57 285 -81 c 1,45,-1
 438 -81 l 1,46,47
 443 -58 443 -58 458.5 -42 c 128,-1,48
 474 -26 474 -26 495 -20 c 1,49,50
 424 26 424 26 370 92 c 1,51,52
 370 91 370 91 370 90 c 0,53,54
 370 28 370 28 442 -15 c 0,38,39
244 197 m 1,55,56
 224 194 224 194 215 194 c 24,57,58
 182 194 182 194 165.5 210 c 128,-1,59
 149 226 149 226 143 245 c 1,60,-1
 135 245 l 2,61,62
 73 245 73 245 51 267 c 128,-1,63
 29 289 29 289 29 317 c 0,64,65
 29 373 29 373 77 373 c 0,66,67
 96 373 96 373 112 369 c 128,-1,68
 128 365 128 365 146.5 365 c 128,-1,69
 165 365 165 365 187 372 c 1,70,71
 184 378 184 378 175 395 c 1,72,73
 143 403 143 403 121 426 c 1,74,-1
 121 423 l 2,75,76
 121 406 121 406 103 406 c 0,77,78
 101 406 101 406 76.5 411.5 c 128,-1,79
 52 417 52 417 48 421 c 128,-1,80
 44 425 44 425 44 433 c 2,81,-1
 44 504 l 2,82,83
 44 505 44 505 43 505 c 0,84,85
 20 553 20 553 20 581 c 128,-1,86
 20 609 20 609 40 611 c 0,87,88
 69 614 69 614 114.5 644.5 c 128,-1,89
 160 675 160 675 184.5 688.5 c 128,-1,90
 209 702 209 702 248 702 c 128,-1,91
 287 702 287 702 334 689 c 1,92,93
 342 692 342 692 365.5 701.5 c 128,-1,94
 389 711 389 711 395 711 c 128,-1,95
 401 711 401 711 405.5 706.5 c 128,-1,96
 410 702 410 702 410 697.5 c 128,-1,97
 410 693 410 693 405 659 c 1,98,99
 455 623 455 623 638 611 c 0,100,101
 726 605 726 605 801 549 c 0,102,103
 873 495 873 495 914 405 c 0,104,105
 940 348 940 348 940 286 c 0,106,107
 940 181 940 181 881 102 c 1,108,109
 898 101 898 101 936 101 c 1,110,-1
 1041 105 l 1,111,112
 1122 105 1122 105 1226 62.5 c 128,-1,113
 1330 20 1330 20 1369 -38 c 0,114,115
 1372 -42 1372 -42 1372 -48.5 c 128,-1,116
 1372 -55 1372 -55 1366 -60 c 0,117,118
 1342 -83 1342 -83 1281 -99.5 c 128,-1,119
 1220 -116 1220 -116 1152 -116 c 0,120,121
 992 -116 992 -116 911 -33 c 1,122,123
 857 9 857 9 813 9 c 0,124,125
 809 9 809 9 805 9 c 1,126,127
 846 -95 846 -95 846 -99 c 0,128,129
 846 -115 846 -115 830 -116 c 1,130,-1
 263 -116 l 2,131,132
 246 -116 246 -116 245 -99 c 0,133,134
 245 -65 245 -65 267.5 -42 c 128,-1,135
 290 -19 290 -19 315 -13 c 1,136,-1
 382 -13 l 1,137,138
 337 28 337 28 336 91 c 0,139,140
 336 110 336 110 342 129 c 1,141,142
 317 162 317 162 302 189 c 1,143,144
 273 190 273 190 244 197 c 1,55,56
371 665 m 1,145,146
 314 642 314 642 309 642 c 128,-1,147
 304 642 304 642 299 647 c 128,-1,148
 294 652 294 652 294 656 c 2,149,-1
 294 661 l 1,150,151
 270 666 270 666 243.5 666 c 128,-1,152
 217 666 217 666 197.5 655 c 128,-1,153
 178 644 178 644 133.5 615 c 128,-1,154
 89 586 89 586 56 578 c 1,155,156
 62 546 62 546 70.5 529.5 c 128,-1,157
 79 513 79 513 79 508 c 0,158,159
 79 477 79 477 79 446 c 1,160,161
 81 446 81 446 85 445 c 1,162,-1
 85 483 l 2,163,164
 85 500 85 500 102 500 c 0,165,166
 115 500 115 500 120.5 484.5 c 128,-1,167
 126 469 126 469 135 460 c 128,-1,168
 144 451 144 451 155.5 441 c 128,-1,169
 167 431 167 431 192 427 c 128,-1,170
 217 423 217 423 235 423 c 128,-1,171
 253 423 253 423 259.5 425.5 c 128,-1,172
 266 428 266 428 269 428 c 0,173,174
 287 428 287 428 287 411 c 0,175,176
 287 389 287 389 241 389 c 2,177,-1
 218 389 l 1,178,179
 226 373 226 373 253 321 c 1,180,181
 272 318 272 318 297 318 c 128,-1,182
 322 318 322 318 375.5 331.5 c 128,-1,183
 429 345 429 345 458 357.5 c 128,-1,184
 487 370 487 370 493 373.5 c 128,-1,185
 499 377 499 377 501 378 c 128,-1,186
 503 379 503 379 509.5 379 c 128,-1,187
 516 379 516 379 520.5 374.5 c 128,-1,188
 525 370 525 370 525 362 c 128,-1,189
 525 354 525 354 520 349 c 128,-1,190
 515 344 515 344 475 326.5 c 128,-1,191
 435 309 435 309 377 296 c 128,-1,192
 319 283 319 283 288.5 283 c 128,-1,193
 258 283 258 283 232.5 288 c 128,-1,194
 207 293 207 293 187 293 c 128,-1,195
 167 293 167 293 167 286 c 128,-1,196
 167 279 167 279 171 267.5 c 128,-1,197
 175 256 175 256 176 253 c 0,198,199
 184 228 184 228 212 228 c 1,200,-1
 245 233 l 2,201,202
 248 233 248 233 262 228 c 128,-1,203
 276 223 276 223 290 223 c 2,204,-1
 311 223 l 2,205,206
 324 222 324 222 349 222 c 0,207,208
 373 222 373 222 428 228 c 128,-1,209
 483 234 483 234 495 247 c 0,210,211
 500 252 500 252 508 252 c 0,212,213
 525 252 525 252 525 235 c 0,214,215
 525 227 525 227 519 221 c 0,216,217
 486 188 486 188 343 188 c 1,218,219
 449 27 449 27 561 -13 c 1,220,-1
 583 -13 l 1,221,222
 526 37 526 37 526 126 c 128,-1,223
 526 215 526 215 583 257 c 0,224,225
 619 282 619 282 654 282 c 128,-1,226
 689 282 689 282 694.5 276 c 128,-1,227
 700 270 700 270 700 262 c 0,228,229
 700 244 700 244 682 245 c 2,230,-1
 662 246 l 1,231,232
 627 246 627 246 603 228 c 0,233,234
 561 197 561 197 561 120 c 0,235,236
 561 42 561 42 620 2 c 0,237,238
 639 -11 639 -11 652 -15 c 0,239,240
 667 -19 667 -19 667 -30 c 0,241,242
 667 -50 667 -50 649 -50 c 2,243,-1
 544 -48 l 1,244,245
 490 -48 490 -48 474 -81 c 1,246,-1
 804 -81 l 1,247,248
 764 21 764 21 764 25 c 128,-1,249
 764 29 764 29 767 32 c 2,250,-1
 844 112 l 1,251,252
 905 184 905 184 905 280 c 0,253,254
 905 336 905 336 881 392 c 0,255,256
 848 470 848 470 781.5 520.5 c 128,-1,257
 715 571 715 571 636 576 c 0,258,259
 467 587 467 587 400 622 c 1,260,261
 398 613 398 613 396.5 598.5 c 128,-1,262
 395 584 395 584 390.5 580 c 128,-1,263
 386 576 386 576 378 576 c 2,264,-1
 375 576 l 2,265,266
 370 576 370 576 365.5 580.5 c 128,-1,267
 361 585 361 585 361 590 c 2,268,-1
 370 657 l 1,269,-1
 371 665 l 1,145,146
EndSplineSet
Validated: 3073
EndChar

StartChar: Bison
Encoding: 129452 129452 32
Width: 1434
Flags: W
LayerCount: 2
Fore
SplineSet
172 419.5 m 128,-1,1
 172 409 172 409 164.5 401 c 128,-1,2
 157 393 157 393 146 393 c 128,-1,3
 135 393 135 393 127.5 401 c 128,-1,4
 120 409 120 409 120 419.5 c 128,-1,5
 120 430 120 430 127.5 437.5 c 128,-1,6
 135 445 135 445 146 445 c 128,-1,7
 157 445 157 445 164.5 437.5 c 128,-1,0
 172 430 172 430 172 419.5 c 128,-1,1
1287 388 m 0,8,9
 1313 333 1313 333 1333 310 c 1,10,11
 1313 338 1313 338 1291 397 c 1,12,13
 1289 392 1289 392 1287 388 c 0,8,9
276 596 m 2,14,-1
 276 593 l 2,15,16
 276 574 276 574 257 574 c 0,17,18
 255 574 255 574 250 576 c 0,19,20
 230 584 230 584 200 584 c 0,21,22
 148 584 148 584 119 527 c 0,23,24
 70 430 70 430 58 304 c 1,25,26
 125 303 125 303 151 266 c 0,27,28
 164 245 164 245 164 226.5 c 128,-1,29
 164 208 164 208 161 196 c 1,30,31
 174 149 174 149 212 145 c 0,32,33
 213 145 213 145 214 145 c 0,34,35
 232 145 232 145 264 185 c 0,36,37
 299 233 299 233 324 287 c 0,38,39
 329 298 329 298 341 299 c 0,40,41
 360 299 360 299 360 280 c 0,42,43
 360 276 360 276 349.5 253 c 128,-1,44
 339 230 339 230 314 192 c 1,45,-1
 404 192 l 1,46,47
 385 267 385 267 385 275 c 0,48,49
 385 293 385 293 407 293 c 0,50,51
 419 293 419 293 423 278 c 0,52,53
 459 118 459 118 473 95 c 0,54,55
 475 91 475 91 475 83.5 c 128,-1,56
 475 76 475 76 469 72 c 0,57,58
 388 10 388 10 366 -109 c 1,59,-1
 426 -109 l 1,60,61
 443 -10 443 -10 574 100 c 1,62,63
 573 111 573 111 573 123 c 0,64,65
 573 205 573 205 624 327 c 0,66,67
 629 338 629 338 641 338 c 0,68,69
 660 338 660 338 660 319 c 0,70,71
 660 316 660 316 647.5 285.5 c 128,-1,72
 635 255 635 255 621 194 c 1,73,74
 647 193 647 193 674 193 c 0,75,76
 836 193 836 193 992 236 c 1,77,78
 982 289 982 289 982 319 c 2,79,-1
 982 359 l 2,80,81
 982 366 982 366 987 371 c 128,-1,82
 992 376 992 376 1001 376 c 0,83,84
 1020 376 1020 376 1020 357 c 0,85,86
 1020 354 1020 354 1020 351 c 0,87,88
 1020 279 1020 279 1036 221.5 c 128,-1,89
 1052 164 1052 164 1064.5 146 c 128,-1,90
 1077 128 1077 128 1093.5 113 c 128,-1,91
 1110 98 1110 98 1110 72.5 c 128,-1,92
 1110 47 1110 47 1098 20 c 1,93,-1
 1027 -109 l 1,94,-1
 1075 -109 l 1,95,96
 1109 -63 1109 -63 1143.5 -13.5 c 128,-1,97
 1178 36 1178 36 1178 100 c 1,98,-1
 1172 184 l 1,99,100
 1172 253 1172 253 1215 331 c 0,101,102
 1242 380 1242 380 1245.5 387.5 c 128,-1,103
 1249 395 1249 395 1250 396 c 0,104,105
 1263 423 1263 423 1263 453 c 2,106,-1
 1263 478 l 1,107,108
 1251 534 1251 534 1158 587 c 1,109,110
 942 697 942 697 611 697 c 0,111,112
 467 697 467 697 355 681 c 1,113,114
 324 681 324 681 300 655.5 c 128,-1,115
 276 630 276 630 276 596 c 2,14,-1
58 267 m 1,116,117
 59 218 59 218 77 209 c 0,118,119
 88 205 88 205 100.5 205 c 128,-1,120
 113 205 113 205 126 211 c 1,121,122
 128 217 128 217 128 227.5 c 128,-1,123
 128 238 128 238 114.5 252 c 128,-1,124
 101 266 101 266 58 267 c 1,116,117
612 124 m 2,125,-1
 614 94 l 2,126,127
 614 84 614 84 602.5 74.5 c 128,-1,128
 591 65 591 65 578 53 c 1,129,130
 575 36 575 36 575 16 c 0,131,132
 575 -38 575 -38 598 -109 c 1,133,-1
 652 -109 l 1,134,135
 655 12 655 12 682 59 c 1,136,137
 666 90 666 90 665 155 c 1,138,139
 633 155 633 155 614 156 c 1,140,141
 612 139 612 139 612 124 c 2,125,-1
1210 182 m 1,142,-1
 1216 99 l 2,143,144
 1216 86 1216 86 1215 73 c 1,145,146
 1266 42 1266 42 1275 -109 c 1,147,-1
 1319 -109 l 1,148,-1
 1319 -56 l 2,149,150
 1319 105 1319 105 1302 135 c 1,151,152
 1244 188 1244 188 1239 293 c 1,153,154
 1210 233 1210 233 1210 182 c 1,142,-1
1395 289 m 0,155,156
 1395 255 1395 255 1356 255 c 0,157,158
 1335 255 1335 255 1317.5 270.5 c 128,-1,159
 1300 286 1300 286 1276 327 c 1,160,161
 1276 319 1276 319 1276 311 c 0,162,163
 1276 208 1276 208 1329 161 c 0,164,165
 1357 135 1357 135 1357 -42 c 0,166,167
 1357 -87 1357 -87 1356 -128 c 0,168,169
 1356 -147 1356 -147 1337 -147 c 2,170,-1
 1257 -147 l 2,171,172
 1238 -147 1238 -147 1238 -128 c 0,173,174
 1237 -79 1237 -79 1227.5 -34.5 c 128,-1,175
 1218 10 1218 10 1207 29 c 1,176,177
 1196 -8 1196 -8 1172 -42 c 2,178,-1
 1098 -142 l 2,179,180
 1095 -147 1095 -147 1085 -147 c 2,181,-1
 995 -147 l 2,182,183
 986 -147 986 -147 981 -142 c 128,-1,184
 976 -137 976 -137 976 -130 c 128,-1,185
 976 -123 976 -123 979 -119 c 2,186,-1
 1063 36 l 1,187,-1
 1067 46 l 2,188,189
 1070 55 1070 55 1070 68.5 c 128,-1,190
 1070 82 1070 82 1063 89 c 0,191,192
 1023 125 1023 125 1001 199 c 1,193,194
 855 158 855 158 703 155 c 1,195,196
 704 88 704 88 719 72 c 0,197,198
 724 66 724 66 724 58.5 c 128,-1,199
 724 51 724 51 719 46 c 0,200,201
 705 31 705 31 697 -23 c 128,-1,202
 689 -77 689 -77 689 -128 c 0,203,204
 689 -147 689 -147 670 -147 c 2,205,-1
 583 -147 l 2,206,207
 570 -147 570 -147 566 -135 c 0,208,209
 541 -63 541 -63 538 12 c 1,210,211
 466 -67 466 -67 462 -130 c 0,212,213
 461 -148 461 -148 443 -147 c 1,214,-1
 344 -147 l 2,215,216
 325 -147 325 -147 325 -127 c 2,217,-1
 325 -121 l 2,218,219
 325 -79 325 -79 358 -11.5 c 128,-1,220
 391 56 391 56 434 93 c 1,221,222
 423 124 423 124 415 155 c 1,223,-1
 288 155 l 1,224,225
 248 108 248 108 214.5 108 c 128,-1,226
 181 108 181 108 152 136 c 0,227,228
 137 151 137 151 130 172 c 1,229,230
 115 167 115 167 89 167 c 128,-1,231
 63 167 63 167 46 185 c 0,232,233
 20 211 20 211 20 279 c 128,-1,234
 20 347 20 347 40 420 c 128,-1,235
 60 493 60 493 81 537 c 0,236,237
 122 623 122 623 205 623 c 0,238,239
 224 623 224 623 240 619 c 1,240,241
 247 658 247 658 277 687 c 128,-1,242
 307 716 307 716 350 719 c 0,243,244
 463 734 463 734 610 734 c 2,245,-1
 687 734 l 1,246,247
 957 730 957 730 1176 621 c 1,248,249
 1286 559 1286 559 1301 485 c 1,250,251
 1343 345 1343 345 1373 321 c 0,252,253
 1395 304 1395 304 1395 289 c 0,155,156
217 475 m 2,254,255
 198 475 198 475 198 494 c 128,-1,256
 198 513 198 513 217 513 c 0,257,258
 226 514 226 514 244 524 c 0,259,260
 300 558 300 558 300 637 c 2,261,-1
 300 645 l 2,262,263
 300 664 300 664 318 664 c 0,264,265
 329 664 329 664 335 655 c 0,266,267
 372 596 372 596 372 542 c 128,-1,268
 372 488 372 488 354 453.5 c 128,-1,269
 336 419 336 419 304 399 c 128,-1,270
 272 379 272 379 234 379 c 0,271,272
 215 379 215 379 215 398 c 128,-1,273
 215 417 215 417 234 417 c 0,274,275
 292 417 292 417 319 469 c 0,276,277
 334 500 334 500 334 527 c 128,-1,278
 334 554 334 554 329 573 c 1,279,280
 319 540 319 540 291 512 c 128,-1,281
 263 484 263 484 220 475 c 1,282,-1
 217 475 l 2,254,255
EndSplineSet
Validated: 3073
EndChar

StartChar: Seal
Encoding: 129453 129453 33
Width: 1174
Flags: W
LayerCount: 2
Fore
SplineSet
98 746 m 1,0,1
 86 743 86 743 79 743 c 1,2,3
 73 737 73 737 72 735 c 1,4,5
 73 735 73 735 75 736 c 0,6,7
 88 736 88 736 88 723 c 128,-1,8
 88 710 88 710 76 710 c 128,-1,9
 64 710 64 710 62 720 c 1,10,11
 59 713 59 713 60 704 c 0,12,13
 60 680 60 680 79 665 c 2,14,-1
 111 641 l 2,15,16
 187 583 187 583 187 486 c 2,17,-1
 187 352 l 2,18,19
 187 233 187 233 265 143 c 1,20,21
 291 164 291 164 300 164 c 128,-1,22
 309 164 309 164 313 156.5 c 128,-1,23
 317 149 317 149 317 142.5 c 128,-1,24
 317 136 317 136 308 130 c 0,25,26
 279 113 279 113 255.5 82.5 c 128,-1,27
 232 52 232 52 232 26 c 0,28,29
 232 -26 232 -26 342 -27 c 1,30,31
 301 15 301 15 301 56 c 128,-1,32
 301 97 301 97 330 131 c 0,33,34
 376 184 376 184 378 216 c 0,35,36
 379 233 379 233 394 233 c 0,37,38
 413 233 413 233 413 216 c 0,39,40
 413 174 413 174 356 108 c 0,41,42
 345 95 345 95 339 76 c 1,43,44
 452 28 452 28 508 25 c 1,45,-1
 1010 25 l 1,46,47
 1004 36 1004 36 1004 42 c 128,-1,48
 1004 48 1004 48 1011.5 53 c 128,-1,49
 1019 58 1019 58 1025.5 58 c 128,-1,50
 1032 58 1032 58 1042 42.5 c 128,-1,51
 1052 27 1052 27 1052 5 c 0,52,53
 1052 -67 1052 -67 909 -113 c 1,54,55
 917 -117 917 -117 918 -117 c 0,56,57
 963 -109 963 -109 982 -94 c 0,58,59
 1000 -79 1000 -79 1008.5 -88 c 128,-1,60
 1017 -97 1017 -97 1017 -103 c 0,61,62
 1017 -115 1017 -115 991 -129 c 1,63,64
 1031 -129 1031 -129 1060 -112 c 0,65,66
 1116 -82 1116 -82 1116 -1 c 128,-1,67
 1116 80 1116 80 1064 139 c 0,68,69
 981 233 981 233 778 301 c 0,70,71
 677 335 677 335 596 335 c 2,72,-1
 578 335 l 2,73,74
 576 335 576 335 571 344 c 0,75,76
 539 405 539 405 465 441 c 1,77,78
 462 429 462 429 447 429 c 128,-1,79
 432 429 432 429 430 445 c 0,80,81
 426 486 426 486 401.5 553.5 c 128,-1,82
 377 621 377 621 349 657 c 0,83,84
 294 725 294 725 199 725 c 2,85,-1
 183 725 l 2,86,87
 134 725 134 725 98 746 c 1,0,1
88.5 684 m 128,-1,89
 76 684 76 684 76 696.5 c 128,-1,90
 76 709 76 709 88 709 c 2,91,-1
 91 709 l 1,92,93
 91 710 91 710 90 711 c 0,94,95
 90 724 90 724 103 724 c 128,-1,96
 116 724 116 724 116 711 c 128,-1,97
 116 698 116 698 103 698 c 0,98,99
 102 698 102 698 101 699 c 1,100,-1
 101 696 l 2,101,88
 101 684 101 684 88.5 684 c 128,-1,89
222 682 m 0,102,103
 222 663 222 663 205 663 c 0,104,105
 185 663 185 663 174.5 673 c 128,-1,106
 164 683 164 683 164 693.5 c 128,-1,107
 164 704 164 704 170.5 711 c 128,-1,108
 177 718 177 718 188 718 c 128,-1,109
 199 718 199 718 211 711.5 c 128,-1,110
 223 705 223 705 223 698.5 c 128,-1,111
 223 692 223 692 220 687 c 0,112,113
 222 684 222 684 222 682 c 0,102,103
319.5 675 m 128,-1,115
 326 675 326 675 339 662 c 128,-1,116
 352 649 352 649 352 627 c 128,-1,117
 352 605 352 605 335 588 c 0,118,119
 330 583 330 583 323 583 c 128,-1,120
 316 583 316 583 310 588.5 c 128,-1,121
 304 594 304 594 304 600 c 128,-1,122
 304 606 304 606 310.5 612.5 c 128,-1,123
 317 619 317 619 317 627.5 c 128,-1,124
 317 636 317 636 309 642.5 c 128,-1,125
 301 649 301 649 301 656 c 128,-1,126
 301 663 301 663 307 669 c 128,-1,114
 313 675 313 675 319.5 675 c 128,-1,115
112 92 m 1,127,128
 136 54 136 54 182 54 c 0,129,130
 192 54 192 54 203 56 c 1,131,132
 213 88 213 88 240 119 c 1,133,134
 226 135 226 135 214 152 c 1,135,136
 172 98 172 98 112 92 c 1,127,128
88 126 m 2,137,-1
 98 126 l 2,138,139
 157 126 157 126 194 184 c 1,140,141
 152 263 152 263 152 352 c 2,142,-1
 152 486 l 2,143,144
 152 566 152 566 89 613 c 1,145,-1
 58 638 l 1,146,147
 25 663 25 663 25 700.5 c 128,-1,148
 25 738 25 738 50 763 c 2,149,-1
 71 784 l 2,150,151
 79 792 79 792 86.5 792 c 128,-1,152
 94 792 94 792 102 785 c 0,153,154
 131 760 131 760 183 760 c 2,155,-1
 200 760 l 2,156,157
 310 760 310 760 376 678 c 0,158,159
 403 644 403 644 426 588 c 128,-1,160
 449 532 449 532 459 483 c 1,161,162
 549 444 549 444 597 372 c 1,163,164
 694 371 694 371 832 322 c 0,165,166
 1009 259 1009 259 1096 155 c 0,167,168
 1151 90 1151 90 1151 -6.5 c 128,-1,169
 1151 -103 1151 -103 1077 -143 c 0,170,171
 1039 -163 1039 -163 989 -163 c 0,172,173
 904 -163 904 -163 853 -121 c 2,174,-1
 835 -106 l 2,175,176
 833 -104 833 -104 833 -101 c 128,-1,177
 833 -98 833 -98 837 -97 c 2,178,-1
 860 -91 l 1,179,180
 997 -54 997 -54 1015 -10 c 1,181,-1
 508 -10 l 2,182,183
 423 -10 423 -10 339 36 c 1,184,185
 349 5 349 5 390 -25 c 0,186,187
 399 -31 399 -31 399 -40.5 c 128,-1,188
 399 -50 399 -50 393.5 -55.5 c 128,-1,189
 388 -61 388 -61 378 -61.5 c 128,-1,190
 368 -62 368 -62 350 -62 c 0,191,192
 207 -62 207 -62 198 18 c 0,193,194
 198 19 198 19 198 20 c 1,195,196
 192 20 192 20 186 20 c 0,197,198
 100 20 100 20 70 100 c 0,199,200
 67 114 67 114 73.5 120 c 128,-1,201
 80 126 80 126 88 126 c 2,137,-1
474 -178.5 m 128,-1,203
 474 -161 474 -161 492 -161 c 2,204,-1
 653 -161 l 2,205,206
 670 -161 670 -161 670 -178.5 c 128,-1,207
 670 -196 670 -196 653 -196 c 2,208,-1
 492 -196 l 2,209,202
 474 -196 474 -196 474 -178.5 c 128,-1,203
338 -116.5 m 128,-1,211
 338 -99 338 -99 355 -99 c 2,212,-1
 628 -99 l 2,213,214
 645 -99 645 -99 645.5 -116.5 c 128,-1,215
 646 -134 646 -134 628 -134 c 2,216,-1
 355 -134 l 2,217,210
 338 -134 338 -134 338 -116.5 c 128,-1,211
856 516 m 128,-1,219
 856 499 856 499 839 499 c 2,220,-1
 765 499 l 2,221,222
 748 499 748 499 747.5 516 c 128,-1,223
 747 533 747 533 765 533 c 2,224,-1
 839 533 l 2,225,218
 856 533 856 533 856 516 c 128,-1,219
943 466.5 m 128,-1,227
 943 449 943 449 926 449 c 2,228,-1
 814 449 l 2,229,230
 797 449 797 449 797 466.5 c 128,-1,231
 797 484 797 484 814 484 c 2,232,-1
 926 484 l 2,233,226
 943 484 943 484 943 466.5 c 128,-1,227
665 -134 m 2,234,235
 648 -134 648 -134 648 -116.5 c 128,-1,236
 648 -99 648 -99 665 -99 c 2,237,-1
 740 -99 l 2,238,239
 757 -99 757 -99 757 -116.5 c 128,-1,240
 757 -134 757 -134 740 -134 c 2,241,-1
 665 -134 l 2,234,235
EndSplineSet
Validated: 3073
EndChar

StartChar: BubbleTea
Encoding: 129483 129483 34
Width: 810
Flags: W
LayerCount: 2
Fore
SplineSet
202 91.5 m 128,-1,1
 202 84 202 84 207.5 79 c 128,-1,2
 213 74 213 74 220 74 c 128,-1,3
 227 74 227 74 232 79 c 128,-1,4
 237 84 237 84 237 91.5 c 128,-1,5
 237 99 237 99 232 104 c 128,-1,6
 227 109 227 109 220 109 c 128,-1,7
 213 109 213 109 207.5 104 c 128,-1,0
 202 99 202 99 202 91.5 c 128,-1,1
276 91.5 m 128,-1,9
 276 68 276 68 259.5 52 c 128,-1,10
 243 36 243 36 220 36 c 128,-1,11
 197 36 197 36 180.5 52 c 128,-1,12
 164 68 164 68 164 91.5 c 128,-1,13
 164 115 164 115 180.5 131.5 c 128,-1,14
 197 148 197 148 220 148 c 128,-1,15
 243 148 243 148 259.5 131.5 c 128,-1,8
 276 115 276 115 276 91.5 c 128,-1,9
608 24 m 128,-1,17
 608 36 608 36 599.5 44.5 c 128,-1,18
 591 53 591 53 579 53 c 128,-1,19
 567 53 567 53 558.5 44.5 c 128,-1,20
 550 36 550 36 550 24 c 128,-1,21
 550 12 550 12 558.5 3.5 c 128,-1,22
 567 -5 567 -5 579 -5 c 128,-1,23
 591 -5 591 -5 599.5 3.5 c 128,-1,16
 608 12 608 12 608 24 c 128,-1,17
511 24 m 128,-1,25
 511 52 511 52 531 71.5 c 128,-1,26
 551 91 551 91 579 91 c 128,-1,27
 607 91 607 91 626.5 71.5 c 128,-1,28
 646 52 646 52 646 24 c 128,-1,29
 646 -4 646 -4 626.5 -24 c 128,-1,30
 607 -44 607 -44 579 -44 c 128,-1,31
 551 -44 551 -44 531 -24 c 128,-1,24
 511 -4 511 -4 511 24 c 128,-1,25
482 -109 m 128,-1,33
 488 -109 488 -109 492.5 -104.5 c 128,-1,34
 497 -100 497 -100 497 -94 c 128,-1,35
 497 -88 497 -88 492.5 -84 c 128,-1,36
 488 -80 488 -80 482 -80 c 128,-1,37
 476 -80 476 -80 472 -84 c 128,-1,38
 468 -88 468 -88 468 -94 c 128,-1,39
 468 -100 468 -100 472 -104.5 c 128,-1,32
 476 -109 476 -109 482 -109 c 128,-1,33
482.5 -41 m 128,-1,41
 504 -41 504 -41 519.5 -56.5 c 128,-1,42
 535 -72 535 -72 535 -94 c 128,-1,43
 535 -116 535 -116 519.5 -131.5 c 128,-1,44
 504 -147 504 -147 482.5 -147 c 128,-1,45
 461 -147 461 -147 445 -131.5 c 128,-1,46
 429 -116 429 -116 429 -94 c 128,-1,47
 429 -72 429 -72 445 -56.5 c 128,-1,40
 461 -41 461 -41 482.5 -41 c 128,-1,41
416 26 m 128,-1,49
 422 26 422 26 425.5 30 c 128,-1,50
 429 34 429 34 429 39.5 c 128,-1,51
 429 45 429 45 425.5 49 c 128,-1,52
 422 53 422 53 416 53 c 128,-1,53
 410 53 410 53 406 49 c 128,-1,54
 402 45 402 45 402 39.5 c 128,-1,55
 402 34 402 34 406 30 c 128,-1,48
 410 26 410 26 416 26 c 128,-1,49
468 39.5 m 128,-1,57
 468 18 468 18 452.5 2.5 c 128,-1,58
 437 -13 437 -13 415.5 -13 c 128,-1,59
 394 -13 394 -13 379 2.5 c 128,-1,60
 364 18 364 18 364 39.5 c 128,-1,61
 364 61 364 61 379 76 c 128,-1,62
 394 91 394 91 415.5 91 c 128,-1,63
 437 91 437 91 452.5 76 c 128,-1,56
 468 61 468 61 468 39.5 c 128,-1,57
278 -89 m 128,-1,65
 292 -89 292 -89 301.5 -79 c 128,-1,66
 311 -69 311 -69 311 -55 c 128,-1,67
 311 -41 311 -41 301.5 -31.5 c 128,-1,68
 292 -22 292 -22 278 -22 c 128,-1,69
 264 -22 264 -22 254 -31.5 c 128,-1,70
 244 -41 244 -41 244 -55 c 128,-1,71
 244 -69 244 -69 254 -79 c 128,-1,64
 264 -89 264 -89 278 -89 c 128,-1,65
278 17 m 128,-1,73
 308 17 308 17 329 -4 c 128,-1,74
 350 -25 350 -25 350 -55 c 128,-1,75
 350 -85 350 -85 329 -106 c 128,-1,76
 308 -127 308 -127 278 -127 c 128,-1,77
 248 -127 248 -127 227 -106 c 128,-1,78
 206 -85 206 -85 206 -55 c 128,-1,79
 206 -25 206 -25 227 -4 c 128,-1,72
 248 17 248 17 278 17 c 128,-1,73
557 737 m 2,80,-1
 699 737 l 1,81,-1
 699 760 l 1,82,-1
 531 760 l 2,83,84
 521 760 521 760 519 751 c 2,85,-1
 508 672 l 1,86,-1
 531 672 l 1,87,-1
 538 721 l 2,88,89
 540 737 540 737 557 737 c 2,80,-1
750 525 m 1,90,-1
 750 634 l 1,91,-1
 58 634 l 1,92,-1
 58 525 l 1,93,-1
 750 525 l 1,90,-1
228 255 m 0,94,95
 281 255 281 255 303 198 c 0,96,97
 317 160 317 160 329 160 c 128,-1,98
 341 160 341 160 373.5 192 c 128,-1,99
 406 224 406 224 418 235 c 0,100,101
 451 263 451 263 480 263 c 0,102,103
 526 263 526 263 558 200 c 0,104,105
 570 175 570 175 575 167 c 0,106,107
 597 146 597 146 614 142 c 1,108,109
 650 142 650 142 674 209 c 1,110,-1
 707 487 l 1,111,-1
 101 487 l 1,112,-1
 134 216 l 1,113,114
 186 255 186 255 228 255 c 0,94,95
613 103 m 0,115,116
 568 103 568 103 544 143 c 0,117,118
 537 154 537 154 525 179 c 0,119,120
 503 223 503 223 478 223 c 0,121,122
 463 223 463 223 447.5 209.5 c 128,-1,123
 432 196 432 196 411 175.5 c 128,-1,124
 390 155 390 155 380 145 c 0,125,126
 353 122 353 122 328 122 c 0,127,128
 291 122 291 122 267 185 c 0,129,130
 255 216 255 216 224 216 c 0,131,132
 192 216 192 216 139 171 c 1,133,-1
 179 -162 l 1,134,-1
 630 -162 l 1,135,-1
 664 124 l 1,136,137
 640 103 640 103 613 103 c 0,115,116
20 653 m 2,138,139
 20 672 20 672 39 672 c 2,140,-1
 469 672 l 1,141,-1
 481 756 l 2,142,143
 484 774 484 774 498 786.5 c 128,-1,144
 512 799 512 799 531 799 c 2,145,-1
 718 799 l 2,146,147
 737 799 737 799 737 780 c 2,148,-1
 737 718 l 2,149,150
 737 699 737 699 718 699 c 2,151,-1
 574 699 l 1,152,-1
 570 672 l 1,153,-1
 769 672 l 2,154,155
 789 672 789 672 789 653 c 1,156,-1
 789 506 l 2,157,158
 789 487 789 487 769 487 c 2,159,-1
 746 487 l 1,160,-1
 666 -183 l 2,161,162
 664 -200 664 -200 647 -200 c 2,163,-1
 162 -200 l 2,164,165
 145 -200 145 -200 143 -183 c 2,166,-1
 63 487 l 1,167,-1
 39 487 l 2,168,169
 20 487 20 487 20 506 c 2,170,-1
 20 653 l 2,138,139
EndSplineSet
Validated: 3073
EndChar

StartChar: Hook08
Encoding: 129288 129288 36
Width: 692
Flags: W
LayerCount: 2
Fore
SplineSet
656 483.416992188 m 4,0,1
 656 304.205078125 656 304.205078125 502.991210938 127.94921875 c 132,-1,2
 349.982421875 -48.306640625 349.982421875 -48.306640625 95.751953125 -190.137695312 c 4,3,4
 86.3349609375 -195.391601562 86.3349609375 -195.391601562 75.6826171875 -195.391601562 c 132,-1,5
 65.03125 -195.391601562 65.03125 -195.391601562 54.369140625 -184.729492188 c 132,-1,6
 43.7080078125 -174.068359375 43.7080078125 -174.068359375 43.7080078125 -159.563476562 c 4,7,8
 43.7080078125 -139.083007812 43.7080078125 -139.083007812 61.5439453125 -129.049804688 c 4,9,10
 304.465820312 7.59375 304.465820312 7.59375 444.740234375 169.184570312 c 132,-1,11
 585.013671875 330.774414062 585.013671875 330.774414062 585.013671875 483.416992188 c 4,12,13
 585.013671875 585.567382812 585.013671875 585.567382812 534.49609375 654.751953125 c 4,14,15
 511.276367188 686.551757812 511.276367188 686.551757812 471.125976562 705.534179688 c 132,-1,16
 430.975585938 724.517578125 430.975585938 724.517578125 374.119140625 724.517578125 c 132,-1,17
 317.263671875 724.517578125 317.263671875 724.517578125 269.549804688 686.258789062 c 132,-1,18
 221.836914062 648.000976562 221.836914062 648.000976562 197.37109375 588.370117188 c 132,-1,19
 172.90625 528.73828125 172.90625 528.73828125 172.90625 469.280273438 c 132,-1,20
 172.90625 409.823242188 172.90625 409.823242188 189.076171875 366.494140625 c 4,21,22
 191.684570312 359.504882812 191.684570312 359.504882812 191.684570312 349.810546875 c 132,-1,23
 191.684570312 340.1171875 191.684570312 340.1171875 183.668945312 332.102539062 c 4,24,25
 170.048828125 318.481445312 170.048828125 318.481445312 155.649414062 318.481445312 c 132,-1,26
 141.250976562 318.481445312 141.250976562 318.481445312 133.234375 326.498046875 c 132,-1,27
 125.21875 334.513671875 125.21875 334.513671875 122.573242188 341.602539062 c 4,28,29
 101.919921875 396.9453125 101.919921875 396.9453125 101.919921875 469.861328125 c 132,-1,30
 101.919921875 542.77734375 101.919921875 542.77734375 132.495117188 617.333984375 c 132,-1,31
 163.0703125 691.890625 163.0703125 691.890625 227.670898438 743.697265625 c 132,-1,32
 292.270507812 795.502929688 292.270507812 795.502929688 369.635742188 795.502929688 c 4,33,34
 519.641601562 795.502929688 519.641601562 795.502929688 590.983398438 697.7734375 c 4,35,36
 656 608.709960938 656 608.709960938 656 483.416992188 c 4,0,1
EndSplineSet
Validated: 3073
EndChar

StartChar: HookDot
Encoding: 1114113 -1 37
Width: 692
Flags: W
HStem: 406.571 156.123<323.513 431.033>
VStem: 299.212 156.123<430.873 538.392>
LayerCount: 2
Fore
SplineSet
299.211914062 484.6328125 m 132,-1,1
 299.211914062 516.966796875 299.211914062 516.966796875 322.075195312 539.830078125 c 132,-1,2
 344.939453125 562.694335938 344.939453125 562.694335938 377.2734375 562.694335938 c 132,-1,3
 409.607421875 562.694335938 409.607421875 562.694335938 432.471679688 539.830078125 c 132,-1,4
 455.334960938 516.966796875 455.334960938 516.966796875 455.334960938 484.6328125 c 132,-1,5
 455.334960938 452.297851562 455.334960938 452.297851562 432.471679688 429.434570312 c 132,-1,6
 409.607421875 406.571289062 409.607421875 406.571289062 377.2734375 406.571289062 c 132,-1,7
 344.939453125 406.571289062 344.939453125 406.571289062 322.075195312 429.434570312 c 132,-1,0
 299.211914062 452.297851562 299.211914062 452.297851562 299.211914062 484.6328125 c 132,-1,1
EndSplineSet
Validated: 3073
EndChar

StartChar: HookNotch
Encoding: 1114114 -1 38
Width: 692
Flags: W
HStem: -161.422 257.023
VStem: 171.372 204.159
LayerCount: 2
Fore
SplineSet
369.681640625 -120.015625 m 6,0,1
 375.53125 -127.915039062 375.53125 -127.915039062 375.53125 -136.09375 c 132,-1,2
 375.53125 -144.272460938 375.53125 -144.272460938 366.956054688 -152.84765625 c 132,-1,3
 358.380859375 -161.421875 358.380859375 -161.421875 348.874023438 -161.421875 c 4,4,5
 336.876953125 -161.421875 336.876953125 -161.421875 328.661132812 -150.327148438 c 6,6,-1
 177.221679688 54.19140625 l 6,7,8
 171.372070312 62.0908203125 171.372070312 62.0908203125 171.372070312 70.26953125 c 132,-1,9
 171.372070312 78.4482421875 171.372070312 78.4482421875 179.94921875 87.0244140625 c 132,-1,10
 188.526367188 95.6015625 188.526367188 95.6015625 198.029296875 95.6015625 c 4,11,12
 210.025390625 95.6015625 210.025390625 95.6015625 218.2421875 84.50390625 c 6,13,-1
 369.681640625 -120.015625 l 6,0,1
EndSplineSet
Validated: 3073
EndChar

StartChar: Troll
Encoding: 129484 129484 41
Width: 1226
Flags: W
HStem: -170 40<385.27 814.473> -107 37<544.735 599.797 601.344 655.731> -97 39<552.925 645.1> -30 39<532.282 665.362> 256 39<409.341 467 733 790.627> 343 39<411.838 483.233 716.705 788.334> 521 38<372.188 409.287 788.583 829.968> 631 40<462.84 737.705> 670 40<302.482 335.75 850.443 898>
VStem: 67 41<313.92 482.971> 104 40<39.6289 155.417> 230 78<599.894 626.119> 262 40<634.624 669.984> 789 39<384.925 455.943> 804 40<206.298 240.105> 898 40<634.655 669.996> 1055 40<39.6289 155.515> 1092 40<313.92 482.048>
LayerCount: 2
Fore
SplineSet
937 445 m 0,0,1
 854 631 854 631 600.5 631 c 152,-1,2
 347 631 347 631 263 445 c 0,3,4
 244 407 244 407 233 346 c 0,5,6
 231 335 231 335 220 331 c 0,7,8
 170 312 170 312 170 274 c 2,9,-1
 171 261 l 2,10,11
 175 240 175 240 184 225 c 128,-1,12
 193 210 193 210 194 206 c 0,13,14
 207 185 207 185 227 159 c 0,15,16
 232 152 232 152 232 146 c 0,17,18
 232 138 232 138 224 131 c 0,19,20
 218 126 218 126 211 126 c 0,21,22
 203 126 203 126 195 136 c 0,23,24
 182 152 182 152 171 168 c 1,25,26
 146 130 146 130 144 63 c 1,27,28
 271 -130 271 -130 539 -130 c 0,29,30
 567 -130 567 -130 596 -128 c 1,31,-1
 603 -128 l 1,32,33
 633 -130 633 -130 662 -130 c 0,34,35
 930 -130 930 -130 1055 63 c 1,36,37
 1053 130 1053 130 1029 168 c 1,38,39
 1018 152 1018 152 1008 139.5 c 128,-1,40
 998 127 998 127 990 127 c 128,-1,41
 982 127 982 127 976 132 c 0,42,43
 968 138 968 138 968 146 c 128,-1,44
 968 154 968 154 976 164 c 0,45,46
 992 184 992 184 999.5 197 c 128,-1,47
 1007 210 1007 210 1011 214 c 0,48,49
 1025 240 1025 240 1029 260 c 2,50,-1
 1030 273 l 2,51,52
 1030 311 1030 311 980 331 c 0,53,54
 970 335 970 335 967 346 c 0,55,56
 954 411 954 411 937 445 c 0,0,1
716 386 m 1,57,58
 736 383 736 383 751 383 c 0,59,60
 789 383 789 383 789 404 c 0,61,62
 789 426 789 426 758 476 c 1,63,64
 726 440 726 440 716 386 c 1,57,58
750 343 m 0,65,66
 725 343 725 343 690 350 c 0,67,68
 672 354 672 354 674 372 c 0,69,70
 685 465 685 465 746 519 c 0,71,72
 759 535 759 535 801 556 c 0,73,74
 807 559 807 559 812 559 c 0,75,76
 822 559 822 559 828 547 c 0,77,78
 831 541 831 541 830 536 c 0,79,80
 830 526 830 526 819 520 c 0,81,82
 802 512 802 512 788 503 c 1,83,84
 828 441 828 441 828 402 c 0,85,86
 828 384 828 384 819 370 c 0,87,88
 800 343 800 343 750 343 c 0,65,66
573 -105 m 0,89,90
 569 -107 569 -107 560.5 -107 c 128,-1,91
 552 -107 552 -107 544.5 -93 c 128,-1,92
 537 -79 537 -79 555 -70 c 0,93,94
 578 -58 578 -58 600.5 -58 c 128,-1,95
 623 -58 623 -58 645 -70 c 0,96,97
 656 -76 656 -76 656 -86 c 0,98,99
 656 -91 656 -91 652 -97 c 0,100,101
 646 -107 646 -107 637 -107 c 0,102,103
 630 -106 630 -106 622 -102 c 0,104,105
 612 -97 612 -97 601 -97 c 0,106,107
 588 -97 588 -97 573 -105 c 0,89,90
442 476 m 1,108,109
 411 425 411 425 411 406 c 0,110,111
 411 405 411 405 411 404 c 0,112,113
 411 382 411 382 447 382 c 0,114,115
 460 382 460 382 484 386 c 1,116,117
 474 440 474 440 442 476 c 1,108,109
450 343 m 0,118,119
 400 343 400 343 381 370 c 0,120,121
 372 383 372 383 372 401 c 0,122,123
 372 440 372 440 412 503 c 1,124,125
 398 513 398 513 381 521 c 0,126,127
 370 526 370 526 370 536 c 0,128,129
 370 541 370 541 372 547 c 0,130,131
 378 559 378 559 388 559 c 0,132,133
 393 559 393 559 399 556 c 0,134,135
 511 502 511 502 526 372 c 0,136,137
 528 354 528 354 510 350 c 0,138,139
 475 343 475 343 450 343 c 0,118,119
465 657 m 1,140,141
 531 671 531 671 603 671 c 128,-1,142
 675 671 675 671 735 657 c 1,143,144
 752 708 752 708 794 753 c 0,145,146
 804 764 804 764 818 757 c 0,147,148
 846 742 846 742 864 709 c 1,149,150
 870 709 870 709 876 709 c 0,151,152
 895 707 895 707 918 707 c 0,153,154
 938 707 938 707 938 670 c 0,155,156
 938 655 938 655 934 634 c 1,157,158
 948 626 948 626 962 614 c 0,159,160
 969 607 969 607 970 600 c 0,161,162
 970 593 970 593 964 585 c 0,163,164
 952 568 952 568 924 544 c 1,165,166
 944 519 944 519 959 490 c 1,167,168
 1042 618 1042 618 1159 623 c 0,169,170
 1180 623 1180 623 1180 602 c 0,171,172
 1176 523 1176 523 1121 462 c 1,173,174
 1132 421 1132 421 1132 386 c 0,175,176
 1132 301 1132 301 1067 252 c 1,177,178
 1063 230 1063 230 1051 205 c 1,179,180
 1093 155 1093 155 1095 64 c 0,181,182
 1099 55 1099 55 1092 45 c 0,183,184
 955 -170 955 -170 662 -170 c 0,185,186
 632 -170 632 -170 600 -167 c 1,187,188
 568 -169 568 -169 537 -170 c 0,189,190
 245 -170 245 -170 107 46 c 0,191,192
 100 56 100 56 104 64 c 0,193,194
 107 155 107 155 149 205 c 1,195,196
 137 230 137 230 133 252 c 1,197,198
 67 301 67 301 67 386 c 0,199,200
 67 421 67 421 78 462 c 1,201,202
 24 522 24 522 20 602 c 0,203,204
 20 623 20 623 41 623 c 0,205,206
 157 618 157 618 240 490 c 1,207,208
 256 519 256 519 276 543 c 1,209,210
 246 568 246 568 235 584 c 0,211,212
 230 592 230 592 230 599 c 0,213,214
 230 607 230 607 237 614 c 0,215,216
 250 627 250 627 266 634 c 1,217,218
 262 654 262 654 262 669 c 0,219,220
 262 704 262 704 282 707 c 0,221,222
 301 710 301 710 319 710 c 0,223,224
 328 710 328 710 336 709 c 1,225,226
 353 742 353 742 382 757 c 0,227,228
 396 764 396 764 406 753 c 0,229,230
 448 707 448 707 465 657 c 1,140,141
1065 304 m 1,231,232
 1092 337 1092 337 1092 387 c 0,233,234
 1092 421 1092 421 1080 462 c 0,235,236
 1077 473 1077 473 1085 481 c 0,237,238
 1128 524 1128 524 1138 581 c 1,239,240
 1048 565 1048 565 980 447 c 1,241,242
 995 409 995 409 1004 364 c 1,243,244
 1052 342 1052 342 1065 304 c 1,231,232
897 573 m 1,245,246
 912 585 912 585 922 596 c 1,247,248
 915 600 915 600 907.5 601 c 128,-1,249
 900 602 900 602 895 609 c 128,-1,250
 890 616 890 616 894 633.5 c 128,-1,251
 898 651 898 651 898 669 c 1,252,253
 887 670 887 670 877 670 c 0,254,255
 864 670 864 670 856 668 c 0,256,257
 840 666 840 666 834 680 c 0,258,259
 825 701 825 701 812 713 c 1,260,261
 785 680 785 680 774 646 c 1,262,263
 846 622 846 622 897 573 c 1,245,246
607 -30 m 0,264,265
 600 -30 600 -30 593 -30 c 0,266,267
 499 -30 499 -30 458 63 c 1,268,269
 333 70 333 70 278 154 c 0,270,271
 274 161 274 161 274 167 c 0,272,273
 274 176 274 176 284 182 c 0,274,275
 291 186 291 186 296 186 c 0,276,277
 305 186 305 186 311 176 c 0,278,279
 351 114 351 114 444 104 c 1,280,281
 438 127 438 127 433 153 c 1,282,283
 356 184 356 184 356 222 c 0,284,285
 356 263 356 263 440 293 c 0,286,287
 445 295 445 295 449 295 c 0,288,289
 460 296 460 296 466 282 c 0,290,291
 468 277 468 277 467 273 c 0,292,293
 467 261 467 261 453 256 c 0,294,295
 397 236 397 236 395 223 c 1,296,297
 399 207 399 207 458 186 c 0,298,299
 469 182 469 182 471 170 c 0,300,301
 487 44 487 44 551 17 c 0,302,303
 570 9 570 9 582 9 c 0,304,305
 583 9 583 9 585 9 c 0,306,307
 598 10 598 10 600 10 c 128,-1,308
 602 10 602 10 615 9 c 0,309,310
 616 9 616 9 617 9 c 0,311,312
 628 9 628 9 650 18 c 0,313,314
 711 45 711 45 728 170 c 0,315,316
 729 182 729 182 741 186 c 0,317,318
 768 196 768 196 786 207 c 128,-1,319
 804 218 804 218 804 223 c 0,320,321
 804 235 804 235 747 256 c 0,322,323
 733 261 733 261 733 273 c 0,324,325
 732 278 732 278 734 282 c 0,326,327
 739 295 739 295 751 295 c 0,328,329
 755 295 755 295 760 293 c 0,330,331
 844 263 844 263 844 223.5 c 128,-1,332
 844 184 844 184 766 153 c 1,333,334
 762 127 762 127 756 104 c 1,335,336
 849 114 849 114 888 176 c 0,337,338
 895 186 895 186 903 186 c 0,339,340
 910 186 910 186 916 182 c 0,341,342
 926 175 926 175 925 167 c 0,343,344
 925 161 925 161 921 154 c 0,345,346
 867 70 867 70 742 63 c 1,347,348
 701 -30 701 -30 607 -30 c 0,264,265
220 447 m 1,349,350
 152 564 152 564 62 581 c 1,351,352
 72 525 72 525 115 481 c 0,353,354
 123 473 123 473 120 462 c 0,355,356
 108 421 108 421 108 387 c 0,357,358
 108 337 108 337 135 304 c 1,359,360
 148 343 148 343 196 364 c 1,361,362
 205 409 205 409 220 447 c 1,349,350
426 646 m 1,363,364
 414 681 414 681 388 713 c 1,365,366
 375 701 375 701 368 684 c 0,367,368
 362 669 362 669 347 669 c 0,369,370
 346 669 346 669 344 669 c 0,371,372
 335 670 335 670 324.5 670 c 128,-1,373
 314 670 314 670 302 669 c 1,374,375
 302 648 302 648 306 634 c 0,376,377
 308 627 308 627 308 621 c 0,378,379
 308 603 308 603 291 601 c 0,380,381
 284 600 284 600 278 596 c 1,382,383
 288 585 288 585 303 573 c 1,384,385
 354 621 354 621 426 646 c 1,363,364
EndSplineSet
Validated: 3073
EndChar

StartChar: u1F6DD
Encoding: 128733 128733 42
Width: 1176
Flags: W
LayerCount: 2
Fore
SplineSet
1133.59960938 -72.5341796875 m 128,-1,1
 1133.59960938 -88.0009765625 1133.59960938 -88.0009765625 1122.64355469 -98.9560546875 c 128,-1,2
 1111.68847656 -109.912109375 1111.68847656 -109.912109375 1096.22167969 -109.912109375 c 1,3,-1
 1096.22167969 -166.623046875 l 1,4,-1
 1021.46582031 -166.623046875 l 1,5,-1
 1021.46582031 -107.334960938 l 1,6,7
 958.704101562 -103.293945312 958.704101562 -103.293945312 906.547851562 -91.0458984375 c 128,-1,8
 854.392578125 -78.7978515625 854.392578125 -78.7978515625 817.659179688 -64.326171875 c 128,-1,9
 780.924804688 -49.853515625 780.924804688 -49.853515625 748.724609375 -23.294921875 c 128,-1,10
 716.525390625 3.2646484375 716.525390625 3.2646484375 697.555664062 23.265625 c 128,-1,11
 678.586914062 43.267578125 678.586914062 43.267578125 657.819335938 80.0791015625 c 128,-1,12
 637.051757812 116.891601562 637.051757812 116.891601562 627.325195312 138.364257812 c 128,-1,13
 617.59765625 159.836914062 617.59765625 159.836914062 600 202 c 0,14,15
 587.228515625 235.5234375 587.228515625 235.5234375 563.91015625 284.48828125 c 0,16,17
 542.65234375 327.005859375 542.65234375 327.005859375 538.1328125 334.754882812 c 1,18,-1
 300.9765625 334.754882812 l 1,19,-1
 192.709960938 -174.356445312 l 1,20,-1
 119.244140625 -158.888671875 l 1,21,-1
 143.732421875 -42.888671875 l 1,22,23
 88.2265625 -19.5185546875 88.2265625 -19.5185546875 54.11328125 31.525390625 c 128,-1,24
 20 82.5693359375 20 82.5693359375 20 144 c 0,25,26
 20 159.466796875 20 159.466796875 25.154296875 187.821289062 c 2,27,-1
 94.75390625 524.220703125 l 2,28,29
 110.20703125 593.755859375 110.20703125 593.755859375 165.280273438 637.610351562 c 128,-1,30
 220.353515625 681.465820312 220.353515625 681.465820312 291.954101562 681.465820312 c 2,31,-1
 297.109375 681.465820312 l 1,32,-1
 317.732421875 775.555664062 l 1,33,-1
 391.200195312 760.087890625 l 1,34,-1
 371.865234375 666 l 1,35,36
 421.89453125 644.418945312 421.89453125 644.418945312 455.2421875 600.541015625 c 128,-1,37
 488.588867188 556.662109375 488.588867188 556.662109375 494.309570312 502.311523438 c 1,38,39
 560.75 459.493164062 560.75 459.493164062 630.932617188 316.7109375 c 0,40,41
 654.037109375 268.396484375 654.037109375 268.396484375 669.599609375 230.35546875 c 0,42,43
 683.848632812 196.444335938 683.848632812 196.444335938 690.993164062 180.334960938 c 128,-1,44
 698.138671875 164.2265625 698.138671875 164.2265625 712.857421875 135.509765625 c 128,-1,45
 727.575195312 106.793945312 727.575195312 106.793945312 738.861328125 92.83203125 c 128,-1,46
 750.146484375 78.8701171875 750.146484375 78.8701171875 769.87890625 57.0341796875 c 128,-1,47
 789.612304688 35.1982421875 789.612304688 35.1982421875 809.76953125 24.55078125 c 128,-1,48
 829.926757812 13.9033203125 829.926757812 13.9033203125 859.405273438 0.115234375 c 128,-1,49
 888.8828125 -13.673828125 888.8828125 -13.673828125 922.643554688 -19.8408203125 c 128,-1,50
 956.403320312 -26.0068359375 956.403320312 -26.0068359375 1000.35839844 -30.58203125 c 128,-1,51
 1044.31347656 -35.15625 1044.31347656 -35.15625 1096.22167969 -35.15625 c 0,52,53
 1111.68847656 -35.15625 1111.68847656 -35.15625 1122.64453125 -46.111328125 c 128,-1,0
 1133.59960938 -57.0673828125 1133.59960938 -57.0673828125 1133.59960938 -72.5341796875 c 128,-1,1
410.532226562 528.087890625 m 1,54,55
 394.309570312 570.673828125 394.309570312 570.673828125 353.821289062 589.955078125 c 1,56,-1
 340.932617188 528.087890625 l 1,57,-1
 407.954101562 528.087890625 l 1,58,-1
 410.532226562 528.087890625 l 1,54,55
252 462.35546875 m 1,59,-1
 164.354492188 484.265625 l 1,60,-1
 154.043945312 437.865234375 l 1,61,-1
 241.688476562 415.955078125 l 1,62,-1
 252 462.35546875 l 1,59,-1
226.221679688 343.776367188 m 1,63,-1
 138.577148438 364.399414062 l 1,64,-1
 128.265625 318 l 1,65,-1
 215.91015625 297.376953125 l 1,66,-1
 226.221679688 343.776367188 l 1,63,-1
200.444335938 223.911132812 m 1,67,-1
 114.087890625 244.532226562 l 1,68,-1
 103.77734375 199.420898438 l 1,69,-1
 191.420898438 178.799804688 l 1,70,-1
 200.444335938 223.911132812 l 1,67,-1
282.932617188 606.7109375 m 1,71,72
 224.7421875 600.690429688 224.7421875 600.690429688 190.1328125 553.865234375 c 1,73,-1
 267.465820312 535.821289062 l 1,74,-1
 282.932617188 606.7109375 l 1,71,72
97.3330078125 124.665039062 m 1,75,76
 105.288085938 65 105.288085938 65 160.48828125 33.1552734375 c 1,77,-1
 175.954101562 106.62109375 l 1,78,-1
 97.3330078125 124.665039062 l 1,75,76
316.444335938 409.510742188 m 1,79,-1
 486.577148438 409.510742188 l 1,80,81
 449.666992188 454.62109375 449.666992188 454.62109375 407.954101562 454.62109375 c 2,82,-1
 325.465820312 454.62109375 l 1,83,-1
 316.444335938 409.510742188 l 1,79,-1
EndSplineSet
Validated: 3073
EndChar

StartChar: u1F6DE
Encoding: 128734 128734 43
Width: 1000
LayerCount: 2
Fore
SplineSet
625 302 m 1,0,1
 605 295 605 295 599.5 274.5 c 128,-1,2
 594 254 594 254 594 245 c 128,-1,3
 594 236 594 236 598 228.5 c 128,-1,4
 602 221 602 221 633 185.5 c 128,-1,5
 664 150 664 150 748 97 c 1,6,7
 821 184 821 184 821 298 c 0,8,9
 821 314 821 314 820 322 c 1,10,11
 787 326 787 326 753.5 326 c 128,-1,12
 720 326 720 326 688 319 c 1,13,-1
 625 302 l 1,0,1
537 258 m 1,14,-1
 530 253 l 1,15,-1
 682 36 l 1,16,17
 690 42 690 42 696 46 c 1,18,-1
 537 258 l 1,14,-1
383 2 m 1,19,20
 440 -21 440 -21 501.5 -21 c 128,-1,21
 563 -21 563 -21 619 2 c 1,22,23
 597 89 597 89 575 127 c 1,24,-1
 539 182 l 1,25,26
 527 198 527 198 499 198 c 128,-1,27
 471 198 471 198 460.5 185 c 128,-1,28
 450 172 450 172 424 127 c 128,-1,29
 398 82 398 82 383 2 c 1,19,20
305 46 m 1,30,31
 306 45 306 45 318 36 c 1,32,-1
 471 253 l 1,33,34
 467 255 467 255 464 258 c 1,35,-1
 305 46 l 1,30,31
179 299 m 0,36,37
 179 183 179 183 254 96 c 1,38,39
 325 139 325 139 359 177 c 1,40,-1
 400 228 l 2,41,42
 406 237 406 237 406 251 c 128,-1,43
 406 265 406 265 399 281 c 128,-1,44
 392 297 392 297 381.5 302 c 128,-1,45
 371 307 371 307 330.5 316 c 128,-1,46
 290 325 290 325 255 325 c 128,-1,47
 220 325 220 325 180 320 c 1,48,49
 179 314 179 314 179 299 c 0,36,37
445 314 m 1,50,-1
 448 322 l 1,51,-1
 197 408 l 1,52,-1
 191 392 l 1,53,-1
 445 314 l 1,50,-1
418 612 m 1,54,55
 296 580 296 580 228 473 c 1,56,57
 296 416 296 416 337 398 c 1,58,-1
 398 375 l 2,59,60
 403 374 403 374 413.5 374 c 128,-1,61
 424 374 424 374 444 389.5 c 128,-1,62
 464 405 464 405 464 419.5 c 128,-1,63
 464 434 464 434 459.5 482 c 128,-1,64
 455 530 455 530 418 612 c 1,54,55
500 349 m 128,-1,66
 480 349 480 349 466 335 c 128,-1,67
 452 321 452 321 452 301 c 128,-1,68
 452 281 452 281 466 267 c 128,-1,69
 480 253 480 253 500 253 c 128,-1,70
 520 253 520 253 534 267 c 128,-1,71
 548 281 548 281 548 301 c 128,-1,72
 548 321 548 321 534 335 c 128,-1,65
 520 349 520 349 500 349 c 128,-1,66
495 357 m 1,73,-1
 504 357 l 1,74,-1
 508 622 l 1,75,-1
 491 622 l 1,76,-1
 495 357 l 1,73,-1
541 486 m 1,77,-1
 538 420 l 2,78,79
 538 399 538 399 560 384.5 c 128,-1,80
 582 370 582 370 590.5 370 c 128,-1,81
 599 370 599 370 608 373.5 c 128,-1,82
 617 377 617 377 662.5 396.5 c 128,-1,83
 708 416 708 416 771 475 c 1,84,85
 702 582 702 582 579 613 c 1,86,87
 545 536 545 536 541 486 c 1,77,-1
551 323 m 1,88,-1
 554 315 l 1,89,-1
 808 393 l 1,90,-1
 802 409 l 1,91,-1
 551 323 l 1,88,-1
500 650 m 128,-1,93
 645 650 645 650 747 548 c 128,-1,94
 849 446 849 446 849 301 c 128,-1,95
 849 156 849 156 747 54 c 128,-1,96
 645 -48 645 -48 500 -48 c 128,-1,97
 355 -48 355 -48 253 54 c 128,-1,98
 151 156 151 156 151 301 c 128,-1,99
 151 446 151 446 253 548 c 128,-1,92
 355 650 355 650 500 650 c 128,-1,93
238 39 m 128,-1,101
 346 -69 346 -69 499 -69 c 128,-1,102
 652 -69 652 -69 761 39.5 c 128,-1,103
 870 148 870 148 870 301.5 c 128,-1,104
 870 455 870 455 762 563 c 128,-1,105
 654 671 654 671 500 671 c 128,-1,106
 346 671 346 671 238 563 c 128,-1,107
 130 455 130 455 130 301 c 128,-1,100
 130 147 130 147 238 39 c 128,-1,101
500 781 m 128,-1,109
 699 781 699 781 839.5 640.5 c 128,-1,110
 980 500 980 500 980 301 c 128,-1,111
 980 102 980 102 839.5 -38.5 c 128,-1,112
 699 -179 699 -179 500 -179 c 128,-1,113
 301 -179 301 -179 160.5 -38.5 c 128,-1,114
 20 102 20 102 20 301 c 128,-1,115
 20 500 20 500 160.5 640.5 c 128,-1,108
 301 781 301 781 500 781 c 128,-1,109
EndSplineSet
Validated: 3073
EndChar

StartChar: u1F6DF
Encoding: 128735 128735 44
Width: 1021
Flags: W
LayerCount: 2
Fore
SplineSet
825 627 m 128,-1,1
 958 494 958 494 958 306.5 c 128,-1,2
 958 119 958 119 825 -14 c 128,-1,3
 692 -147 692 -147 504.5 -147 c 128,-1,4
 317 -147 317 -147 184 -14 c 128,-1,5
 51 119 51 119 51 306.5 c 128,-1,6
 51 494 51 494 184 627 c 128,-1,7
 317 760 317 760 504.5 760 c 128,-1,0
 692 760 692 760 825 627 c 128,-1,1
763 372 m 1,8,9
 771 339 771 339 771 307 c 128,-1,10
 771 275 771 275 763 242 c 1,11,-1
 891 205 l 1,12,13
 905 257 905 257 905 307 c 128,-1,14
 905 357 905 357 891 408 c 1,15,-1
 763 372 l 1,8,9
874 459 m 1,16,17
 844 533 844 533 787.5 589.5 c 128,-1,18
 731 646 731 646 657 676 c 1,19,-1
 620 547 l 1,20,21
 704 506 704 506 745 422 c 1,22,-1
 874 459 l 1,16,17
504.5 93 m 128,-1,24
 593 93 593 93 655.5 156 c 128,-1,25
 718 219 718 219 718 307 c 128,-1,26
 718 395 718 395 655.5 457.5 c 128,-1,27
 593 520 593 520 504.5 520 c 128,-1,28
 416 520 416 520 353.5 457.5 c 128,-1,29
 291 395 291 395 291 307 c 128,-1,30
 291 219 291 219 353.5 156 c 128,-1,23
 416 93 416 93 504.5 93 c 128,-1,24
606 693 m 1,31,32
 554 707 554 707 504 707 c 128,-1,33
 454 707 454 707 403 693 c 1,34,-1
 439 565 l 1,35,36
 472 573 472 573 504 573 c 128,-1,37
 536 573 536 573 570 565 c 1,38,-1
 606 693 l 1,31,32
352 676 m 1,39,40
 278 646 278 646 221.5 589.5 c 128,-1,41
 165 533 165 533 135 459 c 1,42,-1
 264 422 l 1,43,44
 305 506 305 506 389 547 c 1,45,-1
 352 676 l 1,39,40
105 307 m 128,-1,47
 105 257 105 257 118 205 c 1,48,-1
 246 242 l 1,49,50
 238 275 238 275 238 307 c 128,-1,51
 238 339 238 339 246 372 c 1,52,-1
 118 408 l 1,53,46
 105 357 105 357 105 307 c 128,-1,47
135 154 m 1,54,55
 165 80 165 80 221.5 24 c 128,-1,56
 278 -32 278 -32 352 -63 c 1,57,-1
 389 67 l 1,58,59
 305 108 305 108 264 191 c 1,60,-1
 135 154 l 1,54,55
403 -80 m 1,61,62
 452 -93 452 -93 503 -93 c 128,-1,63
 554 -93 554 -93 606 -80 c 1,64,-1
 570 48 l 1,65,66
 537 40 537 40 505 40 c 128,-1,67
 473 40 473 40 439 48 c 1,68,-1
 403 -80 l 1,61,62
657 -63 m 1,69,70
 731 -33 731 -33 787.5 24 c 128,-1,71
 844 81 844 81 874 154 c 1,72,-1
 745 191 l 1,73,74
 704 107 704 107 620 67 c 1,75,-1
 657 -63 l 1,69,70
66 496 m 1,76,77
 25 517 25 517 25 571.5 c 128,-1,78
 25 626 25 626 86 694.5 c 128,-1,79
 147 763 147 763 211 781 c 0,80,81
 228 786 228 786 243 786 c 0,82,83
 285 786 285 786 312 749 c 1,84,-1
 270 717 l 1,85,86
 260 730 260 730 244.5 730 c 128,-1,87
 229 730 229 730 216 726 c 0,88,89
 177 716 177 716 127.5 664 c 128,-1,90
 78 612 78 612 78 570 c 0,91,92
 78 551 78 551 90 544 c 1,93,-1
 66 496 l 1,76,77
739 717 m 1,94,-1
 697 749 l 1,95,96
 724 786 724 786 766 786 c 0,97,98
 781 786 781 786 798 781 c 0,99,100
 862 763 862 763 923 694.5 c 128,-1,101
 984 626 984 626 984 571.5 c 128,-1,102
 984 517 984 517 943 496 c 1,103,-1
 919 544 l 1,104,105
 931 551 931 551 931 570 c 0,106,107
 931 612 931 612 875 671 c 128,-1,108
 819 730 819 730 769 730 c 0,109,110
 749 730 749 730 739 717 c 1,94,-1
943 117 m 1,111,112
 984 96 984 96 984 41.5 c 128,-1,113
 984 -13 984 -13 921 -84 c 0,114,115
 843 -172 843 -172 768 -172 c 0,116,117
 724 -172 724 -172 697 -136 c 1,118,-1
 739 -104 l 1,119,120
 749 -117 749 -117 764 -117 c 0,121,122
 814 -117 814 -117 880 -50 c 0,123,124
 931 2 931 2 931 44 c 0,125,126
 931 63 931 63 919 70 c 1,127,-1
 943 117 l 1,111,112
270 -104 m 1,128,-1
 312 -136 l 1,129,130
 285 -172 285 -172 241 -172 c 0,131,132
 166 -172 166 -172 88 -84 c 0,133,134
 25 -13 25 -13 25 41.5 c 128,-1,135
 25 96 25 96 66 117 c 1,136,-1
 90 70 l 1,137,138
 78 63 78 63 78 44 c 0,139,140
 78 2 78 2 130 -50 c 0,141,142
 197 -117 197 -117 241 -117 c 0,143,144
 260 -117 260 -117 270 -104 c 1,128,-1
EndSplineSet
Validated: 3073
EndChar

StartChar: u1F979
Encoding: 129401 129401 45
Width: 1000
LayerCount: 2
Fore
SplineSet
58.3330078125 300 m 128,-1,1
 58.3330078125 210.137773489 58.3330078125 210.137773489 93.3086678146 128.346753752 c 128,-1,2
 128.284327817 46.5557340151 128.284327817 46.5557340151 187.420030916 -12.5799690841 c 128,-1,3
 246.555734015 -71.7156721833 246.555734015 -71.7156721833 328.346753752 -106.691332185 c 128,-1,4
 410.137773489 -141.666992188 410.137773489 -141.666992188 500 -141.666992188 c 128,-1,5
 589.862226511 -141.666992188 589.862226511 -141.666992188 671.653246248 -106.691332185 c 128,-1,6
 753.444265985 -71.7156721833 753.444265985 -71.7156721833 812.579969084 -12.5799690841 c 128,-1,7
 871.715672183 46.5557340151 871.715672183 46.5557340151 906.691332185 128.346753752 c 128,-1,8
 941.666992188 210.137773489 941.666992188 210.137773489 941.666992188 300 c 128,-1,9
 941.666992188 389.862226511 941.666992188 389.862226511 906.691332185 471.653246248 c 128,-1,10
 871.715672183 553.444265985 871.715672183 553.444265985 812.579969084 612.579969084 c 128,-1,11
 753.444265985 671.715672183 753.444265985 671.715672183 671.653246248 706.691332185 c 128,-1,12
 589.862226511 741.666992188 589.862226511 741.666992188 500 741.666992188 c 128,-1,13
 410.137773489 741.666992188 410.137773489 741.666992188 328.346753752 706.691332185 c 128,-1,14
 246.555734015 671.715672183 246.555734015 671.715672183 187.420030916 612.579969084 c 128,-1,15
 128.284327817 553.444265985 128.284327817 553.444265985 93.3086678146 471.653246248 c 128,-1,0
 58.3330078125 389.862226511 58.3330078125 389.862226511 58.3330078125 300 c 128,-1,1
25 300 m 128,-1,17
 25 429 25 429 88.5 538.5 c 128,-1,18
 152 648 152 648 261.5 711.5 c 128,-1,19
 371 775 371 775 500 775 c 128,-1,20
 629 775 629 775 738.5 711.5 c 128,-1,21
 848 648 848 648 911.5 538.5 c 128,-1,22
 975 429 975 429 975 300 c 128,-1,23
 975 171 975 171 911.5 61.5 c 128,-1,24
 848 -48 848 -48 738.5 -111.5 c 128,-1,25
 629 -175 629 -175 500 -175 c 128,-1,26
 371 -175 371 -175 261.5 -111.5 c 128,-1,27
 152 -48 152 -48 88.5 61.5 c 128,-1,16
 25 171 25 171 25 300 c 128,-1,17
363.216796875 61.783203125 m 0,28,29
 384.728348828 83.2943019261 384.728348828 83.2943019261 411.487025312 94.2509029555 c 128,-1,30
 438.245701797 105.207503985 438.245701797 105.207503985 454.970005938 106.770255899 c 128,-1,31
 471.694310078 108.333007812 471.694310078 108.333007812 500 108.333007812 c 128,-1,32
 528.305689922 108.333007812 528.305689922 108.333007812 545.029994062 106.770255899 c 128,-1,33
 561.754298203 105.207503985 561.754298203 105.207503985 588.512974688 94.2509029555 c 128,-1,34
 615.271651172 83.2943019261 615.271651172 83.2943019261 636.783203125 61.783203125 c 0,35,36
 641.666992188 56.8978330366 641.666992188 56.8978330366 641.666992188 47.9739192522 c 128,-1,37
 641.666992188 39.0500054679 641.666992188 39.0500054679 631.267333984 34.7916259766 c 128,-1,38
 620.867675781 30.5332464852 620.867675781 30.5332464852 613.216796875 38.216796875 c 0,39,40
 581.311230775 70.1232100634 581.311230775 70.1232100634 541.084028575 73.7410790611 c 0,41,42
 527.086046007 75 527.086046007 75 499.719331634 75 c 128,-1,43
 472.352617261 75 472.352617261 75 458.904326301 73.8697682175 c 0,44,45
 419.089152042 70.5235902158 419.089152042 70.5235902158 386.783203125 38.216796875 c 0,46,47
 381.897833037 33.3330078125 381.897833037 33.3330078125 372.973919252 33.3330078125 c 128,-1,48
 364.050005468 33.3330078125 364.050005468 33.3330078125 359.791625977 43.7326660156 c 128,-1,49
 355.533246485 54.1323242188 355.533246485 54.1323242188 363.216796875 61.783203125 c 0,28,29
183.333007812 404.166992188 m 128,-1,51
 183.333007812 350.65625 183.333007812 350.65625 221.161132812 312.828125 c 128,-1,52
 258.989257812 275 258.989257812 275 312.5 275 c 128,-1,53
 366.010742188 275 366.010742188 275 403.838867188 312.828125 c 128,-1,54
 441.666992188 350.65625 441.666992188 350.65625 441.666992188 404.166992188 c 128,-1,55
 441.666992188 457.677641219 441.666992188 457.677641219 403.838913766 495.505324516 c 128,-1,56
 366.010835344 533.333007812 366.010835344 533.333007812 312.5 533.333007812 c 128,-1,57
 258.989164656 533.333007812 258.989164656 533.333007812 221.161086234 495.505324516 c 128,-1,50
 183.333007812 457.677641219 183.333007812 457.677641219 183.333007812 404.166992188 c 128,-1,51
150 404.166992188 m 128,-1,59
 150 471.469238281 150 471.469238281 197.598876953 519.068115234 c 128,-1,60
 245.197753906 566.666992188 245.197753906 566.666992188 312.5 566.666992188 c 128,-1,61
 379.802246094 566.666992188 379.802246094 566.666992188 427.401123047 519.068115234 c 128,-1,62
 475 471.469238281 475 471.469238281 475 404.166992188 c 128,-1,63
 475 336.864746094 475 336.864746094 427.401123047 289.265869141 c 128,-1,64
 379.802246094 241.666992188 379.802246094 241.666992188 312.5 241.666992188 c 128,-1,65
 245.197753906 241.666992188 245.197753906 241.666992188 197.598876953 289.265869141 c 128,-1,58
 150 336.864746094 150 336.864746094 150 404.166992188 c 128,-1,59
558.333007812 404.166992188 m 128,-1,67
 558.333007812 350.65625 558.333007812 350.65625 596.161132812 312.828125 c 128,-1,68
 633.989257812 275 633.989257812 275 687.5 275 c 128,-1,69
 741.010742188 275 741.010742188 275 778.838867188 312.828125 c 128,-1,70
 816.666992188 350.65625 816.666992188 350.65625 816.666992188 404.166992188 c 128,-1,71
 816.666992188 457.677641219 816.666992188 457.677641219 778.838913766 495.505324516 c 128,-1,72
 741.010835344 533.333007812 741.010835344 533.333007812 687.5 533.333007812 c 128,-1,73
 633.989164656 533.333007812 633.989164656 533.333007812 596.161086234 495.505324516 c 128,-1,66
 558.333007812 457.677641219 558.333007812 457.677641219 558.333007812 404.166992188 c 128,-1,67
525 404.166992188 m 128,-1,75
 525 471.469238281 525 471.469238281 572.598876953 519.068115234 c 128,-1,76
 620.197753906 566.666992188 620.197753906 566.666992188 687.5 566.666992188 c 128,-1,77
 754.802246094 566.666992188 754.802246094 566.666992188 802.401123047 519.068115234 c 128,-1,78
 850 471.469238281 850 471.469238281 850 404.166992188 c 128,-1,79
 850 336.864746094 850 336.864746094 802.401123047 289.265869141 c 128,-1,80
 754.802246094 241.666992188 754.802246094 241.666992188 687.5 241.666992188 c 128,-1,81
 620.197753906 241.666992188 620.197753906 241.666992188 572.598876953 289.265869141 c 128,-1,74
 525 336.864746094 525 336.864746094 525 404.166992188 c 128,-1,75
291.666992188 445.833007812 m 128,-1,83
 291.666992188 471.721923828 291.666992188 471.721923828 309.97253418 490.02746582 c 128,-1,84
 328.278076172 508.333007812 328.278076172 508.333007812 354.166992188 508.333007812 c 128,-1,85
 380.055344421 508.333007812 380.055344421 508.333007812 398.361168304 490.027381501 c 128,-1,86
 416.666992188 471.72175519 416.666992188 471.72175519 416.666992188 445.833007812 c 128,-1,87
 416.666992188 419.944824219 416.666992188 419.944824219 398.361083984 401.638916016 c 128,-1,88
 380.055175781 383.333007812 380.055175781 383.333007812 354.166992188 383.333007812 c 128,-1,89
 328.27824481 383.333007812 328.27824481 383.333007812 309.972618499 401.638831696 c 128,-1,82
 291.666992188 419.944655579 291.666992188 419.944655579 291.666992188 445.833007812 c 128,-1,83
666.666992188 445.833007812 m 128,-1,91
 666.666992188 471.721923828 666.666992188 471.721923828 684.97253418 490.02746582 c 128,-1,92
 703.278076172 508.333007812 703.278076172 508.333007812 729.166992188 508.333007812 c 128,-1,93
 755.055344421 508.333007812 755.055344421 508.333007812 773.361168304 490.027381501 c 128,-1,94
 791.666992188 471.72175519 791.666992188 471.72175519 791.666992188 445.833007812 c 128,-1,95
 791.666992188 419.944824219 791.666992188 419.944824219 773.361083984 401.638916016 c 128,-1,96
 755.055175781 383.333007812 755.055175781 383.333007812 729.166992188 383.333007812 c 128,-1,97
 703.27824481 383.333007812 703.27824481 383.333007812 684.972618499 401.638831696 c 128,-1,90
 666.666992188 419.944655579 666.666992188 419.944655579 666.666992188 445.833007812 c 128,-1,91
393.057617188 355.64453125 m 0,98,99
 393.057617188 337.456157126 393.057617188 337.456157126 366.904252295 320.153859813 c 128,-1,100
 340.750887402 302.8515625 340.750887402 302.8515625 307.637695312 302.8515625 c 128,-1,101
 274.622032165 302.8515625 274.622032165 302.8515625 249.115703583 320.110514178 c 128,-1,102
 223.609375 337.369465857 223.609375 337.369465857 223.609375 355.64453125 c 0,103,104
 223.609375 366.665417069 223.609375 366.665417069 242.8671792 356.307517571 c 0,105,106
 285.58226932 333.333007812 285.58226932 333.333007812 308.181827054 333.333007812 c 128,-1,107
 330.781384787 333.333007812 330.781384787 333.333007812 374.503217949 356.684606789 c 0,108,109
 393.057617188 366.594412918 393.057617188 366.594412918 393.057617188 355.64453125 c 0,98,99
768.752929688 352.79296875 m 0,110,111
 768.752929688 334.604594626 768.752929688 334.604594626 742.599564795 317.302297313 c 128,-1,112
 716.446199902 300 716.446199902 300 683.333007812 300 c 128,-1,113
 650.317344665 300 650.317344665 300 624.811016083 317.258951678 c 128,-1,114
 599.3046875 334.517903357 599.3046875 334.517903357 599.3046875 352.79296875 c 0,115,116
 599.3046875 363.813911938 599.3046875 363.813911938 618.5624917 353.456346445 c 0,117,118
 661.277871233 330.482421875 661.277871233 330.482421875 683.877125984 330.482421875 c 128,-1,119
 706.476380735 330.482421875 706.476380735 330.482421875 750.198530449 353.833423396 c 0,120,121
 768.752929688 363.742904235 768.752929688 363.742904235 768.752929688 352.79296875 c 0,110,111
EndSplineSet
Validated: 3073
EndChar

StartChar: Xray
Encoding: 129659 129659 46
Width: 1021
Flags: W
LayerCount: 2
Fore
SplineSet
303 502 m 1,0,1
 353 471 353 471 460 464 c 1,2,-1
 460 420 l 1,3,4
 387 425 387 425 341 443 c 0,5,6
 298 460 298 460 298 484 c 0,7,8
 298 492 298 492 303 502 c 1,0,1
460 508 m 1,9,10
 392 513 392 513 356.5 525.5 c 128,-1,11
 321 538 321 538 315 546.5 c 128,-1,12
 309 555 309 555 320 567 c 1,13,14
 384 560 384 560 460 553 c 1,15,-1
 460 508 l 1,9,10
678 567 m 1,16,17
 688 555 688 555 682 546.5 c 128,-1,18
 676 538 676 538 641 525 c 128,-1,19
 606 512 606 512 536 507 c 1,20,-1
 536 553 l 1,21,22
 615 560 615 560 678 567 c 1,16,17
293 419 m 1,23,24
 346 383 346 383 460 376 c 1,25,-1
 460 328 l 1,26,27
 377 333 377 333 338 350 c 128,-1,28
 299 367 299 367 290 382 c 0,29,30
 287 389 287 389 287 398 c 128,-1,31
 287 407 287 407 293 419 c 1,23,24
460 49 m 1,32,33
 414 6 414 6 355 6 c 0,34,35
 323 6 323 6 298 18 c 0,36,37
 241 45 241 45 241 94 c 0,38,39
 241 114 241 114 252 139 c 1,40,41
 317 93 317 93 460 86 c 1,42,-1
 460 49 l 1,32,33
278 333 m 1,43,44
 333 292 333 292 460 285 c 1,45,-1
 460 236 l 1,46,47
 369 241 369 241 320.5 262 c 128,-1,48
 272 283 272 283 272 311 c 0,49,50
 272 322 272 322 278 333 c 1,43,44
265 245 m 1,51,52
 324 201 324 201 460 193 c 1,53,-1
 460 130 l 1,54,55
 361 135 361 135 313 155.5 c 128,-1,56
 265 176 265 176 256 196 c 0,57,58
 254 203 254 203 254 214.5 c 128,-1,59
 254 226 254 226 265 245 c 1,51,52
536 193 m 1,60,61
 674 200 674 200 733 245 c 1,62,63
 745 226 745 226 745 214 c 0,64,65
 745 203 745 203 742 196 c 0,66,67
 734 177 734 177 684 156 c 0,68,69
 636 135 636 135 536 130 c 1,70,-1
 536 193 l 1,60,61
536 285 m 1,71,72
 663 292 663 292 719 333 c 1,73,74
 725 322 725 322 725 311 c 0,75,76
 725 283 725 283 676 262 c 128,-1,77
 627 241 627 241 536 236 c 1,78,-1
 536 285 l 1,71,72
955 776 m 2,79,80
 964 776 964 776 970.5 769.5 c 128,-1,81
 977 763 977 763 977 754 c 2,82,-1
 977 -156 l 2,83,84
 977 -165 977 -165 970.5 -171 c 128,-1,85
 964 -177 964 -177 955 -177 c 2,86,-1
 45 -177 l 2,87,88
 36 -177 36 -177 29.5 -171 c 128,-1,89
 23 -165 23 -165 23 -156 c 2,90,-1
 23 754 l 2,91,92
 23 763 23 763 29.5 769.5 c 128,-1,93
 36 776 36 776 45 776 c 2,94,-1
 955 776 l 2,79,80
179 644 m 0,95,96
 145 644 145 644 145 609 c 0,97,98
 145 601 145 601 157 592 c 1,99,100
 139 590 139 590 132 579.5 c 128,-1,101
 125 569 125 569 125 562.5 c 128,-1,102
 125 556 125 556 128 543.5 c 128,-1,103
 131 531 131 531 131 517.5 c 128,-1,104
 131 504 131 504 127 473 c 0,105,106
 105 299 105 299 104 294 c 0,107,108
 102 276 102 276 96 261 c 128,-1,109
 90 246 90 246 90 231 c 0,110,111
 90 190 90 190 147 190 c 0,112,113
 173 190 173 190 183 206 c 0,114,115
 192 220 192 220 192 232 c 0,116,117
 192 234 192 234 192 236 c 2,118,-1
 188 267 l 1,119,120
 188 318 188 318 218 498 c 0,121,122
 219 504 219 504 228.5 521.5 c 128,-1,123
 238 539 238 539 238 553 c 128,-1,124
 238 567 238 567 225 578 c 1,125,126
 248 575 248 575 273 572 c 1,127,128
 269 561 269 561 269 551.5 c 128,-1,129
 269 542 269 542 272 534 c 1,130,131
 255 507 255 507 255 487 c 128,-1,132
 255 467 255 467 263 452 c 1,133,134
 243 422 243 422 243 401.5 c 128,-1,135
 243 381 243 381 249 368 c 1,136,137
 228 337 228 337 228 315.5 c 128,-1,138
 228 294 228 294 235 279 c 1,139,140
 208 244 208 244 208 217.5 c 128,-1,141
 208 191 208 191 221 171 c 1,142,143
 198 131 198 131 198 103 c 0,144,145
 198 15 198 15 281 -21 c 0,146,147
 317 -36 317 -36 364.5 -36 c 128,-1,148
 412 -36 412 -36 461 -5 c 1,149,150
 466 -20 466 -20 481 -20 c 2,151,-1
 515 -20 l 2,152,153
 531 -20 531 -20 535 -4 c 1,154,155
 584 -36 584 -36 632.5 -36 c 128,-1,156
 681 -36 681 -36 717 -21 c 0,157,158
 809 17 809 17 809 111 c 0,159,160
 809 140 809 140 785 182 c 0,161,162
 784 183 784 183 784 184 c 0,163,164
 784 257 784 257 762 279 c 1,165,166
 769 294 769 294 769 315.5 c 128,-1,167
 769 337 769 337 748 368 c 1,168,169
 754 382 754 382 754 402.5 c 128,-1,170
 754 423 754 423 735 452 c 1,171,172
 743 467 743 467 743 487 c 128,-1,173
 743 507 743 507 725 534 c 1,174,175
 729 543 729 543 729 552.5 c 128,-1,176
 729 562 729 562 725 572 c 1,177,178
 751 575 751 575 775 578 c 1,179,180
 762 567 762 567 762 552.5 c 128,-1,181
 762 538 762 538 772 521 c 128,-1,182
 782 504 782 504 782 502 c 0,183,184
 812 289 812 289 812 266 c 1,185,186
 808 236 808 236 808 228.5 c 128,-1,187
 808 221 808 221 818.5 205.5 c 128,-1,188
 829 190 829 190 854 190 c 0,189,190
 901 190 901 190 910 219 c 0,191,192
 916 235 916 235 910 248.5 c 128,-1,193
 904 262 904 262 901 269 c 128,-1,194
 898 276 898 276 894 313 c 2,195,-1
 868 514 l 2,196,197
 867 522 867 522 871 539 c 128,-1,198
 875 556 875 556 875 562.5 c 128,-1,199
 875 569 875 569 868 579.5 c 128,-1,200
 861 590 861 590 843 592 c 1,201,202
 855 601 855 601 855 609 c 0,203,204
 855 644 855 644 821 644 c 0,205,206
 809 644 809 644 536 614 c 1,207,-1
 536 622 l 2,208,209
 536 638 536 638 525 647 c 128,-1,210
 514 656 514 656 498 656 c 128,-1,211
 482 656 482 656 471 647 c 128,-1,212
 460 638 460 638 460 622 c 2,213,-1
 460 614 l 1,214,-1
 179 644 l 0,95,96
536 464 m 1,215,216
 644 471 644 471 694 502 c 1,217,218
 699 492 699 492 699 484 c 0,219,220
 699 461 699 461 657 442.5 c 128,-1,221
 615 424 615 424 536 420 c 1,222,-1
 536 464 l 1,215,216
642 7 m 0,223,224
 581 7 581 7 536 49 c 1,225,-1
 536 86 l 1,226,227
 692 93 692 93 755 146 c 1,228,229
 765 124 765 124 765 105 c 0,230,231
 765 46 765 46 701 19 c 0,232,233
 672 7 672 7 642 7 c 0,223,224
536 376 m 1,234,235
 650 383 650 383 704 419 c 1,236,237
 710 406 710 406 710 397 c 128,-1,238
 710 388 710 388 707 382 c 0,239,240
 699 367 699 367 660 350 c 128,-1,241
 621 333 621 333 536 328 c 1,242,-1
 536 376 l 1,234,235
EndSplineSet
Validated: 3073
EndChar

StartChar: u1FA7C
Encoding: 129660 129660 47
Width: 1015
Flags: W
LayerCount: 2
Fore
SplineSet
950 484 m 0,0,1
 940 478 940 478 929 478 c 128,-1,2
 918 478 918 478 897 488 c 1,3,-1
 465 56 l 2,4,5
 455 46 455 46 446 47 c 1,6,-1
 264 -16 l 1,7,8
 254 -16 254 -16 244 -25 c 2,9,-1
 96 -174 l 2,10,11
 82 -188 82 -188 67 -174 c 2,12,-1
 24 -131 l 2,13,14
 20 -127 20 -127 20 -119 c 128,-1,15
 20 -111 20 -111 24 -107 c 2,16,-1
 172 42 l 2,17,18
 182 52 182 52 182 61 c 1,19,-1
 244 248 l 1,20,21
 244 258 244 258 254 267 c 2,22,-1
 686 699 l 1,23,24
 672 730 672 730 672 736.5 c 128,-1,25
 672 743 672 743 679.5 758.5 c 128,-1,26
 687 774 687 774 705 781 c 0,27,28
 713 784 713 784 721 784 c 0,29,30
 754 784 754 784 768 752 c 0,31,32
 817 624 817 624 945 575 c 0,33,34
 977 563 977 563 977 531 c 128,-1,35
 977 499 977 499 950 484 c 0,0,1
772 575 m 2,36,-1
 739 608 l 1,37,-1
 566 431 l 1,38,-1
 633 363 l 1,39,-1
 811 541 l 1,40,41
 796 551 796 551 772 575 c 2,36,-1
297 99 m 1,42,-1
 398 133 l 1,43,-1
 561 296 l 1,44,-1
 494 363 l 1,45,-1
 331 200 l 1,46,-1
 297 99 l 1,42,-1
EndSplineSet
Validated: 3073
EndChar

StartChar: u1FAA9
Encoding: 129705 129705 48
Width: 1000
Flags: W
LayerCount: 2
Fore
SplineSet
150 -108 m 2,0,-1
 150 -99 l 2,1,2
 150 -78 150 -78 131.5 -60.5 c 128,-1,3
 113 -43 113 -43 88 -43 c 2,4,-1
 85 -43 l 2,5,6
 69 -43 69 -43 69 -27 c 0,7,8
 69 -21 69 -21 74.5 -14.5 c 128,-1,9
 80 -8 80 -8 83.5 -9.5 c 128,-1,10
 87 -11 87 -11 88 -11 c 0,11,12
 115 -11 115 -11 132.5 7.5 c 128,-1,13
 150 26 150 26 150 52 c 2,14,-1
 150 55 l 2,15,16
 150 71 150 71 166 71 c 128,-1,17
 182 71 182 71 182 55 c 2,18,-1
 182 52 l 2,19,20
 182 30 182 30 201 8 c 0,21,22
 207 1 207 1 245 -11 c 0,23,24
 246 -11 246 -11 249 -9.5 c 128,-1,25
 252 -8 252 -8 258 -14 c 128,-1,26
 264 -20 264 -20 264 -26.5 c 128,-1,27
 264 -33 264 -33 259 -38 c 128,-1,28
 254 -43 254 -43 250 -43 c 2,29,-1
 245 -43 l 1,30,31
 242 -42 242 -42 237 -42 c 0,32,33
 222 -41 222 -41 202 -60 c 128,-1,34
 182 -79 182 -79 182 -105 c 2,35,-1
 182 -108 l 1,36,37
 191 -124 191 -124 166 -124 c 0,38,39
 150 -124 150 -124 150 -108 c 2,0,-1
967 -60 m 1,40,-1
 979 -59 l 1,41,42
 995 -59 995 -59 995 -75.5 c 128,-1,43
 995 -92 995 -92 979 -92 c 2,44,-1
 975 -92 l 1,45,46
 969 -89 969 -89 963 -89 c 0,47,48
 944 -89 944 -89 920.5 -113 c 128,-1,49
 897 -137 897 -137 897 -169 c 0,50,51
 897 -171 897 -171 898 -173 c 0,52,53
 906 -189 906 -189 881 -189 c 0,54,55
 865 -189 865 -189 865 -173 c 2,56,-1
 865 -169 l 1,57,58
 866 -165 866 -165 866 -160 c 0,59,60
 866 -138 866 -138 843 -115 c 128,-1,61
 820 -92 820 -92 787 -92 c 2,62,-1
 784 -92 l 1,63,64
 769 -90 769 -90 768 -74.5 c 128,-1,65
 767 -59 767 -59 784 -59 c 2,66,-1
 787 -59 l 1,67,68
 791 -65 791 -65 802.5 -65 c 128,-1,69
 814 -65 814 -65 839.5 -39.5 c 128,-1,70
 865 -14 865 -14 865 18 c 0,71,72
 865 20 865 20 865 22 c 0,73,74
 865 38 865 38 881 38 c 0,75,76
 903 38 903 38 898 22 c 0,77,78
 897 19 897 19 897 18 c 0,79,80
 897 -15 897 -15 920.5 -37.5 c 128,-1,81
 944 -60 944 -60 967 -60 c 1,40,-1
134 575 m 1,82,83
 130 558 130 558 117 558 c 0,84,85
 111 558 111 558 106 563 c 128,-1,86
 101 568 101 568 101 572 c 2,87,-1
 101 577 l 1,88,89
 104 581 104 581 104 590 c 128,-1,90
 104 599 104 599 84.5 619.5 c 128,-1,91
 65 640 65 640 39 640 c 2,92,-1
 36 640 l 1,93,94
 32 637 32 637 26 643 c 128,-1,95
 20 649 20 649 20 655.5 c 128,-1,96
 20 662 20 662 25 667 c 128,-1,97
 30 672 30 672 34 672 c 2,98,-1
 39 672 l 1,99,100
 43 669 43 669 52.5 669 c 128,-1,101
 62 669 62 669 81.5 688.5 c 128,-1,102
 101 708 101 708 101 734 c 2,103,-1
 101 737 l 1,104,105
 103 751 103 751 118 753 c 0,106,107
 123 754 123 754 128.5 748 c 128,-1,108
 134 742 134 742 134 738 c 2,109,-1
 134 734 l 2,110,111
 134 708 134 708 152 690 c 128,-1,112
 170 672 170 672 196 672 c 2,113,-1
 199 672 l 2,114,115
 205 672 205 672 210 667 c 128,-1,116
 215 662 215 662 215 655 c 128,-1,117
 215 648 215 648 210.5 644 c 128,-1,118
 206 640 206 640 202 640 c 2,119,-1
 196 640 l 2,120,121
 169 640 169 640 151.5 621.5 c 128,-1,122
 134 603 134 603 134 577 c 2,123,-1
 134 575 l 1,82,83
605 786 m 2,124,125
 621 786 621 786 621 769 c 0,126,127
 621 764 621 764 616.5 758.5 c 128,-1,128
 612 753 612 753 605 753 c 2,129,-1
 524 753 l 1,130,-1
 524 655 l 1,131,132
 603 652 603 652 673 615 c 128,-1,133
 743 578 743 578 789 518 c 0,134,135
 865 419 865 419 865 298 c 0,136,137
 865 234 865 234 850 195 c 24,138,139
 804 75 804 75 715.5 8 c 128,-1,140
 627 -59 627 -59 507.5 -59 c 128,-1,141
 388 -59 388 -59 295 11.5 c 128,-1,142
 202 82 202 82 167 190 c 0,143,144
 150 244 150 244 150 300 c 128,-1,145
 150 356 150 356 169 412 c 0,146,147
 205 518 205 518 292.5 584 c 128,-1,148
 380 650 380 650 491 655 c 1,149,-1
 491 753 l 1,150,-1
 410 753 l 2,151,152
 394 753 394 753 394 770 c 0,153,154
 394 775 394 775 398.5 780.5 c 128,-1,155
 403 786 403 786 410 786 c 2,156,-1
 605 786 l 2,124,125
775 482 m 1,157,158
 757 473 757 473 737 466 c 1,159,160
 761 402 761 402 766 334 c 1,161,162
 798 350 798 350 823 374 c 1,163,164
 809 432 809 432 775 482 c 1,157,158
508 623 m 128,-1,166
 485 623 485 623 462 580 c 128,-1,167
 439 537 439 537 425 466 c 1,168,169
 467 461 467 461 508 461 c 128,-1,170
 549 461 549 461 590 466 c 1,171,172
 576 537 576 537 553.5 580 c 128,-1,165
 531 623 531 623 508 623 c 128,-1,166
441 609 m 1,173,174
 359 568 359 568 322 485 c 1,175,176
 357 475 357 475 393 470 c 1,177,178
 404 544 404 544 441 609 c 1,173,174
195 208 m 1,179,180
 227 180 227 180 267 163 c 1,181,182
 247 229 247 229 247 297 c 1,183,184
 207 316 207 316 185 337 c 1,185,186
 183 318 183 318 183 286 c 128,-1,187
 183 254 183 254 195 208 c 1,179,180
249 334 m 1,188,189
 254 402 254 402 278 466 c 1,190,191
 258 473 258 473 240 482 c 1,192,193
 206 432 206 432 192 374 c 1,194,195
 217 350 217 350 249 334 c 1,188,189
308 455 m 1,196,197
 284 390 284 390 281 320 c 1,198,199
 328 302 328 302 378 294 c 1,200,-1
 378 339 l 2,201,202
 378 374 378 374 387 438 c 1,203,204
 347 444 347 444 308 455 c 1,196,197
322 110 m 1,205,206
 360 28 360 28 441 -12 c 1,207,208
 412 38 412 38 400 95 c 1,209,210
 361 100 361 100 322 110 c 1,205,206
468.5 4.5 m 128,-1,212
 488 -27 488 -27 507.5 -27 c 128,-1,213
 527 -27 527 -27 546.5 4.5 c 128,-1,214
 566 36 566 36 581 91 c 1,215,216
 542 87 542 87 507.5 87 c 128,-1,217
 473 87 473 87 434 91 c 1,218,211
 449 36 449 36 468.5 4.5 c 128,-1,212
604 256 m 1,219,220
 557 250 557 250 506.5 250 c 128,-1,221
 456 250 456 250 411 256 c 1,222,223
 414 189 414 189 427 124 c 1,224,225
 469 120 469 120 506 120 c 128,-1,226
 543 120 543 120 588 124 c 1,227,228
 601 189 601 189 604 256 c 1,219,220
420 433 m 1,229,230
 410 367 410 367 410 330 c 2,231,-1
 410 289 l 1,232,233
 411 282 411 282 508 282 c 128,-1,234
 605 282 605 282 605 288 c 2,235,-1
 605 299 l 1,236,237
 607 304 607 304 607 328 c 128,-1,238
 607 352 607 352 595 433 c 1,239,240
 552 428 552 428 507.5 428 c 128,-1,241
 463 428 463 428 420 433 c 1,229,230
574 609 m 1,242,243
 611 544 611 544 622 470 c 1,244,245
 658 475 658 475 693 485 c 1,246,247
 656 568 656 568 574 609 c 1,242,243
637 261 m 1,248,249
 634 194 634 194 623 128 c 1,250,251
 667 135 667 135 709 149 c 1,252,253
 733 215 733 215 735 286 c 1,254,255
 687 269 687 269 637 261 c 1,248,249
665 14 m 1,256,257
 752 63 752 63 797 152 c 1,258,259
 767 134 767 134 734 123 c 1,260,261
 710 62 710 62 665 14 c 1,256,257
820 208 m 1,262,263
 832 250 832 250 832 285 c 128,-1,264
 832 320 832 320 830 337 c 1,265,266
 801 314 801 314 768 299 c 0,267,268
 768 298 768 298 767 297 c 0,269,270
 767 228 767 228 748 163 c 1,271,272
 788 180 788 180 820 208 c 1,262,263
EndSplineSet
Validated: 3105
EndChar

StartChar: u1FAAA
Encoding: 129706 129706 49
Width: 1254
Flags: MW
HStem: -69.1992 76<96 1143.85> 630 76<96 1143.85>
VStem: 20 76<6.80078 630> 1143.85 76<6.80078 630>
LayerCount: 2
Fore
SplineSet
1143.84960938 706 m 2,0,1
 1175.20019531 706 1175.20019531 706 1197.52441406 683.67578125 c 128,-1,2
 1219.84960938 661.350585938 1219.84960938 661.350585938 1219.84960938 630 c 2,3,-1
 1219.84960938 6.80078125 l 2,4,5
 1219.84960938 -24.5498046875 1219.84960938 -24.5498046875 1197.52441406 -46.875 c 128,-1,6
 1175.20019531 -69.19921875 1175.20019531 -69.19921875 1143.84960938 -69.19921875 c 2,7,-1
 96 -69.19921875 l 2,8,9
 64.6494140625 -69.19921875 64.6494140625 -69.19921875 42.3251953125 -46.875 c 128,-1,10
 20 -24.5498046875 20 -24.5498046875 20 6.80078125 c 2,11,-1
 20 630 l 2,12,13
 20 661.350585938 20 661.350585938 42.3251953125 683.67578125 c 128,-1,14
 64.6494140625 706 64.6494140625 706 96 706 c 2,15,-1
 1143.84960938 706 l 2,0,1
718.09765625 188.651367188 m 2,16,-1
 1058.84375 188.651367188 l 2,17,18
 1077.84375 188.651367188 1077.84375 188.651367188 1077.84375 169.651367188 c 2,19,-1
 1077.84375 131.651367188 l 2,20,21
 1077.84375 112.651367188 1077.84375 112.651367188 1058.84375 112.651367188 c 2,22,-1
 718.09765625 112.651367188 l 2,23,24
 699.09765625 112.651367188 699.09765625 112.651367188 699.09765625 131.651367188 c 2,25,-1
 699.09765625 169.651367188 l 2,26,27
 699.09765625 188.651367188 699.09765625 188.651367188 718.09765625 188.651367188 c 2,16,-1
313.112304688 295.563476562 m 1,28,29
 324.768073488 238.656429195 324.768073488 238.656429195 327.211914062 197.524414062 c 1,30,31
 338.893174547 222.028723253 338.893174547 222.028723253 352.879882812 234.098632812 c 1,32,33
 364.926757812 214.822265625 364.926757812 214.822265625 365.719238281 212.111328125 c 128,-1,34
 366.51171875 209.400390625 366.51171875 209.400390625 362.711425781 184.220214844 c 128,-1,35
 358.911132812 159.040039062 358.911132812 159.040039062 351.586914062 79.6845703125 c 1,36,-1
 187.46484375 79.6845703125 l 2,37,38
 173.704101562 79.6845703125 173.704101562 79.6845703125 164.494140625 90.0009765625 c 128,-1,39
 155.298828125 100.315429688 155.298828125 100.315429688 157.009765625 114.094726562 c 0,40,41
 163.234375 164.94921875 163.234375 164.94921875 171.626464844 195.833984375 c 128,-1,42
 180.018554688 226.71875 180.018554688 226.71875 204.452148438 243.502929688 c 0,43,44
 213.674804688 249.87109375 213.674804688 249.87109375 242.98828125 258.795898438 c 128,-1,45
 272.301757812 267.720703125 272.301757812 267.720703125 283.516601562 273.433105469 c 128,-1,46
 294.731445312 279.145507812 294.731445312 279.145507812 313.112304688 295.563476562 c 1,28,29
719.293945312 362.026367188 m 2,47,-1
 1060.04003906 362.026367188 l 2,48,49
 1079.02148438 362.026367188 1079.02148438 362.026367188 1079.02148438 343.026367188 c 2,50,-1
 1079.02148438 305.026367188 l 2,51,52
 1079.02148438 286.026367188 1079.02148438 286.026367188 1060.04003906 286.026367188 c 2,53,-1
 719.293945312 286.026367188 l 2,54,55
 700.293945312 286.026367188 700.293945312 286.026367188 700.293945312 305.026367188 c 2,56,-1
 700.293945312 343.026367188 l 2,57,58
 700.293945312 362.026367188 700.293945312 362.026367188 719.293945312 362.026367188 c 2,47,-1
720.47265625 535.401367188 m 2,59,-1
 1061.21875 535.401367188 l 2,60,61
 1080.21875 535.401367188 1080.21875 535.401367188 1080.21875 516.401367188 c 2,62,-1
 1080.21875 478.401367188 l 2,63,64
 1080.21875 459.401367188 1080.21875 459.401367188 1061.21875 459.401367188 c 2,65,-1
 720.47265625 459.401367188 l 2,66,67
 701.47265625 459.401367188 701.47265625 459.401367188 701.47265625 478.401367188 c 2,68,-1
 701.47265625 516.401367188 l 2,69,70
 701.47265625 535.401367188 701.47265625 535.401367188 720.47265625 535.401367188 c 2,59,-1
436.309570312 301.833007812 m 2,71,72
 436.309570312 293.854492188 436.309570312 293.854492188 429.943359375 288.913085938 c 2,73,-1
 383.715820312 253.477539062 l 1,74,-1
 337.470703125 288.913085938 l 2,75,76
 331.201171875 293.91796875 331.201171875 293.91796875 331.201171875 301.833007812 c 2,77,-1
 331.201171875 331.09375 l 1,78,79
 317.590541548 345.400050786 317.590541548 345.400050786 316.609375 359.70703125 c 2,80,-1
 315.506835938 376.124023438 l 1,81,82
 305.405531869 379.306308606 305.405531869 379.306308606 302.703742497 386.878251959 c 0,83,84
 284.455151931 438.021133592 284.455151931 438.021133592 304.369140625 438.397460938 c 0,85,86
 305.610351562 438.420898438 305.610351562 438.420898438 305.913085938 438.51953125 c 1,87,88
 305.416992188 439.659179688 305.416992188 439.659179688 304.866210938 441.026367188 c 0,89,90
 283.082800554 469.646984827 283.082800554 469.646984827 293.712890625 534.3359375 c 1,91,92
 302.9296875 528.47265625 302.9296875 528.47265625 309.206054688 531.811523438 c 128,-1,93
 315.482421875 535.150390625 315.482421875 535.150390625 327.279296875 544.326171875 c 128,-1,94
 339.075195312 553.500976562 339.075195312 553.500976562 354.065917969 562.327636719 c 128,-1,95
 369.056640625 571.154296875 369.056640625 571.154296875 394.173828125 569.999511719 c 0,96,97
 439.958884942 567.894502788 439.958884942 567.894502788 449.798828125 526.5078125 c 1,98,99
 481.648846885 527.332747248 481.648846885 527.332747248 477.387695312 476.48046875 c 0,100,101
 475.297849544 449.858303161 475.297849544 449.858303161 462.909179688 439.202148438 c 1,102,103
 471.91976261 436.436217136 471.91976261 436.436217136 473.541424274 431.660979662 c 0,104,105
 478.967650006 415.682605726 478.967650006 415.682605726 472.007262503 398.866205207 c 128,-1,106
 465.046875 382.049804688 465.046875 382.049804688 462.188964844 379.756347656 c 128,-1,107
 459.224286314 377.377209598 459.224286314 377.377209598 452.383789062 375.515625 c 1,108,-1
 451.28125 359.630859375 l 2,109,110
 450.439957909 345.482563359 450.439957909 345.482563359 436.309570312 330.466796875 c 0,111,-1
 436.309570312 301.833007812 l 2,71,72
440.204101562 197.524414062 m 1,112,113
 443.15745771 241.200993403 443.15745771 241.200993403 454.3203125 295.563476562 c 1,114,-1
 454.3203125 295.658203125 l 1,115,116
 472.8828125 279.083984375 472.8828125 279.083984375 483.99609375 273.399414062 c 128,-1,117
 495.109375 267.71484375 495.109375 267.71484375 524.465820312 258.791992188 c 128,-1,118
 553.821289062 249.869140625 553.821289062 249.869140625 563.01953125 243.502929688 c 0,119,120
 587.374023438 226.713867188 587.374023438 226.713867188 595.699707031 196.072753906 c 128,-1,121
 604.025390625 165.431640625 604.025390625 165.431640625 610.482421875 114.094726562 c 0,122,123
 612.150390625 100.411132812 612.150390625 100.411132812 603.013671875 90.0009765625 c 0,124,125
 593.659179688 79.6845703125 593.659179688 79.6845703125 580.024414062 79.6845703125 c 2,126,-1
 415.903320312 79.6845703125 l 1,127,128
 408.1875 161.603515625 408.1875 161.603515625 404.524414062 185.464355469 c 128,-1,129
 400.861328125 209.325195312 400.861328125 209.325195312 401.723632812 212.274902344 c 128,-1,130
 402.5859375 215.224609375 402.5859375 215.224609375 414.611328125 234.098632812 c 1,131,132
 428.76490201 221.879795636 428.76490201 221.879795636 440.204101562 197.524414062 c 1,112,113
113.309570312 630 m 2,133,134
 96 630 96 630 96 612.673828125 c 2,135,-1
 96 24.12890625 l 2,136,137
 96 6.80078125 96 6.80078125 113.309570312 6.80078125 c 2,138,-1
 1126.52148438 6.80078125 l 2,139,140
 1143.84960938 6.80078125 1143.84960938 6.80078125 1143.84960938 24.12890625 c 2,141,-1
 1143.84960938 612.673828125 l 2,142,143
 1143.84960938 630 1143.84960938 630 1126.52148438 630 c 2,144,-1
 113.309570312 630 l 2,133,134
EndSplineSet
Validated: 3105
EndChar

StartChar: u1FAAB
Encoding: 129707 129707 50
Width: 551
Flags: W
HStem: -198 52.5<83.5 468.5> 677 113.75<188.5 363.5> 677 52.5<83.5 188.5 363.5 468.5>
VStem: 31 52.5<-145.5 677> 468.5 52.5<-145.5 677>
LayerCount: 2
Fore
SplineSet
144.75 -84.25 m 1,0,-1
 407.25 90.75 l 1,1,-1
 407.25 -84.25 l 1,2,-1
 144.75 -84.25 l 1,0,-1
31 -198 m 1,3,-1
 31 729.5 l 1,4,-1
 188.5 729.5 l 1,5,-1
 188.5 790.75 l 1,6,-1
 363.5 790.75 l 1,7,-1
 363.5 729.5 l 1,8,-1
 521 729.5 l 1,9,-1
 521 -198 l 1,10,-1
 31 -198 l 1,3,-1
468.5 -145.5 m 1,11,-1
 468.5 677 l 1,12,-1
 83.5 677 l 1,13,-1
 83.5 -145.5 l 1,14,-1
 468.5 -145.5 l 1,11,-1
EndSplineSet
Validated: 19457
EndChar

StartChar: u1FAAC
Encoding: 129708 129708 51
Width: 990
Flags: W
LayerCount: 2
Fore
SplineSet
708.598632812 310.536132812 m 1,0,1
 763.6953125 367.529296875 763.6953125 367.529296875 832.130859375 367.529296875 c 128,-1,2
 900.565429688 367.529296875 900.565429688 367.529296875 948.46484375 319.869140625 c 0,3,4
 958.82421875 310.607421875 958.82421875 310.607421875 958.82421875 298.397460938 c 128,-1,5
 958.82421875 286.188476562 958.82421875 286.188476562 952.508789062 277.869140625 c 2,6,-1
 868.8203125 177.380859375 l 2,7,8
 802.587890625 98.4580078125 802.587890625 98.4580078125 792.96484375 5.8203125 c 128,-1,9
 783.342773438 -86.8173828125 783.342773438 -86.8173828125 721.255859375 -143.408203125 c 128,-1,10
 659.168945312 -200 659.168945312 -200 575 -200 c 0,11,12
 574.627929688 -200 574.627929688 -200 573.88671875 -199.997070312 c 2,13,-1
 410.2421875 -199.997070312 l 1,14,-1
 408.9140625 -199.775390625 l 1,15,16
 325.310546875 -199.775390625 325.310546875 -199.775390625 263.426757812 -143.99609375 c 128,-1,17
 201.54296875 -88.216796875 201.54296875 -88.216796875 191.68359375 4.6201171875 c 128,-1,18
 181.82421875 97.45703125 181.82421875 97.45703125 114.998046875 177.380859375 c 2,19,-1
 31.30859375 277.869140625 l 2,20,21
 24.0390625 286.544921875 24.0390625 286.544921875 24.0390625 298.647460938 c 128,-1,22
 24.0390625 310.75 24.0390625 310.75 33.1767578125 319.869140625 c 0,23,24
 81.0751953125 367.529296875 81.0751953125 367.529296875 149.510742188 367.529296875 c 128,-1,25
 217.9453125 367.529296875 217.9453125 367.529296875 273.04296875 310.536132812 c 1,26,-1
 273.04296875 577.780273438 l 2,27,28
 273.151367188 616.323242188 273.151367188 616.323242188 300.494140625 643.573242188 c 128,-1,29
 327.836914062 670.823242188 327.836914062 670.823242188 366.403320312 670.823242188 c 0,30,31
 382.47265625 670.823242188 382.47265625 670.823242188 397.486328125 665.514648438 c 1,32,-1
 397.486328125 702.224609375 l 2,33,34
 397.486328125 740.859375 397.486328125 740.859375 424.836914062 768.208984375 c 128,-1,35
 452.186523438 795.55859375 452.186523438 795.55859375 490.8203125 795.55859375 c 128,-1,36
 529.454101562 795.55859375 529.454101562 795.55859375 556.8046875 768.208984375 c 128,-1,37
 584.154296875 740.859375 584.154296875 740.859375 584.154296875 702.224609375 c 2,38,-1
 584.154296875 665.514648438 l 1,39,40
 599.234375 670.846679688 599.234375 670.846679688 615.264648438 670.846679688 c 0,41,42
 653.827148438 670.846679688 653.827148438 670.846679688 681.158203125 643.587890625 c 128,-1,43
 708.489257812 616.328125 708.489257812 616.328125 708.598632812 577.780273438 c 2,44,-1
 708.598632812 310.536132812 l 1,0,1
335.309570312 234.36328125 m 0,45,46
 335.309570312 203.255859375 335.309570312 203.255859375 300.982421875 203.255859375 c 0,47,48
 291.466796875 203.255859375 291.466796875 203.255859375 282.375976562 212.224609375 c 2,49,-1
 220.154296875 274.447265625 l 2,50,51
 190.671875 304.033203125 190.671875 304.033203125 156.674804688 304.033203125 c 128,-1,52
 122.676757812 304.033203125 122.676757812 304.033203125 100.064453125 291.55859375 c 1,53,-1
 162.287109375 215.958984375 l 2,54,55
 240.421875 122.624023438 240.421875 122.624023438 253.442382812 1.6025390625 c 0,56,57
 259.16796875 -57.767578125 259.16796875 -57.767578125 303.571289062 -98.39453125 c 128,-1,58
 347.975585938 -139.020507812 347.975585938 -139.020507812 408.265625 -139.020507812 c 2,59,-1
 408.998046875 -139.01953125 l 1,60,-1
 571.708984375 -139.01953125 l 2,61,62
 572.499023438 -138.862304688 572.499023438 -138.862304688 572.659179688 -138.862304688 c 0,63,64
 632.375 -138.862304688 632.375 -138.862304688 676.578125 -99.01953125 c 128,-1,65
 720.780273438 -59.1767578125 720.780273438 -59.1767578125 727.264648438 -0.5751953125 c 0,66,67
 739.752929688 122.278320312 739.752929688 122.278320312 818.732421875 217.203125 c 2,68,-1
 881.88671875 292.802734375 l 1,69,70
 859.130859375 305.356445312 859.130859375 305.356445312 825.245117188 305.356445312 c 128,-1,71
 791.360351562 305.356445312 791.360351562 305.356445312 761.798828125 275.692382812 c 2,72,-1
 699.576171875 213.46875 l 2,73,74
 690.50390625 204.517578125 690.50390625 204.517578125 680.9609375 204.517578125 c 0,75,76
 646.530273438 204.517578125 646.530273438 204.517578125 646.375976562 235.55859375 c 2,77,-1
 646.375976562 577.780273438 l 2,78,79
 646.375976562 590.658203125 646.375976562 590.658203125 637.259765625 599.775390625 c 128,-1,80
 628.142578125 608.892578125 628.142578125 608.892578125 615.264648438 608.892578125 c 128,-1,81
 602.38671875 608.892578125 602.38671875 608.892578125 593.270507812 599.775390625 c 128,-1,82
 584.154296875 590.658203125 584.154296875 590.658203125 584.154296875 577.780273438 c 2,83,-1
 584.154296875 266.668945312 l 2,84,85
 584.154296875 253.791015625 584.154296875 253.791015625 575.037109375 244.674804688 c 128,-1,86
 565.920898438 235.55859375 565.920898438 235.55859375 553.04296875 235.55859375 c 128,-1,87
 540.165039062 235.55859375 540.165039062 235.55859375 531.048828125 244.674804688 c 128,-1,88
 521.932617188 253.791015625 521.932617188 253.791015625 521.932617188 266.668945312 c 2,89,-1
 521.932617188 702.224609375 l 2,90,91
 521.932617188 715.102539062 521.932617188 715.102539062 512.815429688 724.219726562 c 128,-1,92
 503.698242188 733.336914062 503.698242188 733.336914062 490.8203125 733.336914062 c 128,-1,93
 477.942382812 733.336914062 477.942382812 733.336914062 468.826171875 724.219726562 c 128,-1,94
 459.708984375 715.102539062 459.708984375 715.102539062 459.708984375 702.224609375 c 2,95,-1
 459.708984375 266.668945312 l 2,96,97
 459.708984375 253.791015625 459.708984375 253.791015625 450.592773438 244.674804688 c 128,-1,98
 441.4765625 235.55859375 441.4765625 235.55859375 428.598632812 235.55859375 c 128,-1,99
 415.720703125 235.55859375 415.720703125 235.55859375 406.603515625 244.674804688 c 128,-1,100
 397.486328125 253.791015625 397.486328125 253.791015625 397.486328125 266.668945312 c 2,101,-1
 397.486328125 577.780273438 l 2,102,103
 397.486328125 590.658203125 397.486328125 590.658203125 388.370117188 599.775390625 c 128,-1,104
 379.25390625 608.892578125 379.25390625 608.892578125 366.375976562 608.892578125 c 128,-1,105
 353.498046875 608.892578125 353.498046875 608.892578125 344.381835938 599.775390625 c 128,-1,106
 335.264648438 590.658203125 335.264648438 590.658203125 335.264648438 577.780273438 c 2,107,-1
 335.264648438 235.55859375 l 2,108,109
 335.309570312 234.438476562 335.309570312 234.438476562 335.309570312 234.36328125 c 0,45,46
490.8203125 173.336914062 m 128,-1,111
 520.659179688 173.336914062 520.659179688 173.336914062 560.787109375 159.221679688 c 128,-1,112
 600.915039062 145.106445312 600.915039062 145.106445312 645.470703125 106.209960938 c 128,-1,113
 690.026367188 67.314453125 690.026367188 67.314453125 690.026367188 52.5791015625 c 128,-1,114
 690.026367188 37.84375 690.026367188 37.84375 684.71875 31.228515625 c 128,-1,115
 679.411132812 24.6142578125 679.411132812 24.6142578125 671.948242188 16.392578125 c 128,-1,116
 664.484375 8.1708984375 664.484375 8.1708984375 644.6171875 -9.171875 c 128,-1,117
 624.75 -26.5146484375 624.75 -26.5146484375 603.43359375 -40.2255859375 c 128,-1,118
 582.118164062 -53.935546875 582.118164062 -53.935546875 551.388671875 -64.744140625 c 128,-1,119
 520.659179688 -75.552734375 520.659179688 -75.552734375 490.8203125 -75.552734375 c 128,-1,120
 460.981445312 -75.552734375 460.981445312 -75.552734375 420.856445312 -61.439453125 c 128,-1,121
 380.73046875 -47.3251953125 380.73046875 -47.3251953125 336.171875 -8.4287109375 c 128,-1,122
 291.614257812 30.4677734375 291.614257812 30.4677734375 291.614257812 45.203125 c 128,-1,123
 291.614257812 59.9384765625 291.614257812 59.9384765625 296.924804688 66.556640625 c 128,-1,124
 302.234375 73.17578125 302.234375 73.17578125 309.693359375 81.3916015625 c 128,-1,125
 317.15234375 89.6083984375 317.15234375 89.6083984375 337.0234375 106.955078125 c 128,-1,126
 356.893554688 124.30078125 356.893554688 124.30078125 378.208007812 138.008789062 c 128,-1,127
 399.521484375 151.717773438 399.521484375 151.717773438 430.251953125 162.52734375 c 128,-1,110
 460.981445312 173.336914062 460.981445312 173.336914062 490.8203125 173.336914062 c 128,-1,111
490.8203125 -13.3310546875 m 1,128,129
 564.5625 -5.2568359375 564.5625 -5.2568359375 615.264648438 48.892578125 c 1,130,131
 564.665039062 103.247070312 564.665039062 103.247070312 490.8203125 111.114257812 c 1,132,133
 417.079101562 103.040039062 417.079101562 103.040039062 366.375976562 48.892578125 c 1,134,135
 416.97265625 -5.4609375 416.97265625 -5.4609375 490.8203125 -13.3310546875 c 1,128,129
459.708984375 48.892578125 m 128,-1,137
 459.708984375 61.7705078125 459.708984375 61.7705078125 468.825195312 70.88671875 c 128,-1,138
 477.942382812 80.0029296875 477.942382812 80.0029296875 490.8203125 80.0029296875 c 128,-1,139
 503.698242188 80.0029296875 503.698242188 80.0029296875 512.815429688 70.88671875 c 128,-1,140
 521.932617188 61.7705078125 521.932617188 61.7705078125 521.932617188 48.892578125 c 128,-1,141
 521.932617188 36.013671875 521.932617188 36.013671875 512.815429688 26.8974609375 c 128,-1,142
 503.698242188 17.7802734375 503.698242188 17.7802734375 490.8203125 17.7802734375 c 128,-1,143
 477.942382812 17.7802734375 477.942382812 17.7802734375 468.825195312 26.8974609375 c 128,-1,136
 459.708984375 36.013671875 459.708984375 36.013671875 459.708984375 48.892578125 c 128,-1,137
EndSplineSet
Validated: 3073
EndChar

StartChar: Lotus
Encoding: 129719 129719 52
Width: 1214
Flags: W
LayerCount: 2
Fore
SplineSet
1092 320 m 0,0,1
 1042 320 1042 320 1016 291 c 1,2,3
 1000 259 1000 259 996 255 c 0,4,5
 971 222 971 222 936 201 c 1,6,-1
 954 201 l 2,7,8
 1010 201 1010 201 1059 227 c 1,9,10
 1090 249 1090 249 1105 284 c 0,11,12
 1114 303 1114 303 1129 318 c 1,13,14
 1110 320 1110 320 1092 320 c 0,0,1
887 179 m 1,15,16
 823 159 823 159 760 159 c 128,-1,17
 697 159 697 159 670 168 c 1,18,19
 665 168 665 168 660 168 c 1,20,21
 666 162 666 162 680 144 c 0,22,23
 695 124 695 124 720 106 c 0,24,25
 782 60 782 60 855 60 c 0,26,27
 927 60 927 60 982.5 71.5 c 128,-1,28
 1038 83 1038 83 1062 83 c 128,-1,29
 1086 83 1086 83 1099 82 c 1,30,31
 1073 142 1073 142 1013 172 c 1,32,33
 991 170 991 170 959 170 c 128,-1,34
 927 170 927 170 887 179 c 1,15,16
903 -89 m 1,35,36
 904 -77 904 -77 904 -55 c 0,37,38
 904 -7 904 -7 883 23 c 1,39,40
 873 22 873 22 857 22 c 0,41,42
 768 22 768 22 697 76 c 1,43,44
 711 39 711 39 712 0 c 1,45,46
 742 -67 742 -67 903 -89 c 1,35,36
471 361 m 1,47,48
 472 305 472 305 506.5 257.5 c 128,-1,49
 541 210 541 210 601 202 c 1,50,51
 661 210 661 210 696 259 c 128,-1,52
 731 308 731 308 731 366 c 0,53,54
 731 510 731 510 658 608 c 0,55,56
 617 663 617 663 601 695 c 1,57,58
 585 662 585 662 544 608 c 0,59,60
 471 512 471 512 471 361 c 1,47,48
504 75 m 1,61,62
 433 22 433 22 339 22 c 0,63,64
 329 22 329 22 319 23 c 1,65,66
 298 -6 298 -6 298 -62 c 0,67,68
 298 -74 298 -74 299 -89 c 1,69,70
 461 -69 461 -69 490 0 c 1,71,72
 490 39 490 39 504 75 c 1,61,62
542 168 m 1,73,74
 537 168 537 168 532 168 c 0,75,76
 507 160 507 160 443.5 160 c 128,-1,77
 380 160 380 160 315 179 c 1,78,79
 275 169 275 169 243 169 c 128,-1,80
 211 169 211 169 189 172 c 1,81,82
 129 142 129 142 103 82 c 1,83,84
 114 83 114 83 139 83 c 128,-1,85
 164 83 164 83 220.5 71.5 c 128,-1,86
 277 60 277 60 314 60 c 0,87,88
 391 60 391 60 435 78 c 0,89,90
 488 101 488 101 529 152 c 0,91,92
 538 163 538 163 542 168 c 1,73,74
114 320 m 1,93,-1
 84 318 l 1,94,-1
 73 318 l 1,95,96
 88 304 88 304 100 276.5 c 128,-1,97
 112 249 112 249 143 227 c 1,98,99
 213 202 213 202 235 201 c 128,-1,100
 257 200 257 200 266 201 c 1,101,102
 221 228 221 228 203 260 c 24,103,104
 190 284 190 284 186 291 c 1,105,106
 160 320 160 320 114 320 c 1,93,-1
212 485 m 0,107,108
 209 457 209 457 209 414 c 128,-1,109
 209 371 209 371 220 315 c 1,110,111
 266 206 266 206 429 199 c 1,112,113
 354 249 354 249 331 344 c 0,114,115
 320 383 320 383 320 419 c 128,-1,116
 320 455 320 455 326 486 c 1,117,118
 320 529 320 529 287 556 c 1,119,120
 254 576 254 576 215 581 c 0,121,122
 209 582 209 582 185 587 c 1,123,124
 211 540 211 540 212 485 c 0,107,108
428 378 m 0,125,126
 428 482 428 482 489 587 c 1,127,128
 479 616 479 616 453.5 628.5 c 128,-1,129
 428 641 428 641 403 648 c 1,130,131
 405 638 405 638 405 622 c 0,132,133
 404 592 404 592 391 561 c 0,134,135
 356 478 356 478 356 425 c 0,136,137
 356 326 356 326 417 255 c 0,138,139
 448 221 448 221 492 207 c 1,140,141
 478 219 478 219 466 235 c 0,142,143
 428 304 428 304 428 378 c 0,125,126
846 425 m 0,144,145
 846 485 846 485 811 561 c 0,146,147
 797 591 797 591 797 610.5 c 128,-1,148
 797 630 797 630 799 648 c 1,149,150
 774 641 774 641 748.5 628.5 c 128,-1,151
 723 616 723 616 713 587 c 1,152,153
 718 578 718 578 746 515 c 128,-1,154
 774 452 774 452 774 378 c 0,155,156
 774 305 774 305 736 235 c 0,157,158
 725 219 725 219 710 207 c 1,159,160
 753 221 753 221 785 255 c 0,161,162
 846 327 846 327 846 425 c 0,144,145
993 423 m 1,163,-1
 990 489 l 1,164,165
 990 539 990 539 1017 587 c 1,166,167
 993 582 993 582 987 581 c 0,168,169
 948 577 948 577 915 556 c 1,170,171
 882 528 882 528 876 486 c 1,172,173
 882 455 882 455 882 419.5 c 128,-1,174
 882 384 882 384 871 344 c 0,175,176
 849 253 849 253 787 209 c 0,177,178
 780 204 780 204 773 199 c 1,179,180
 936 206 936 206 982 315 c 1,181,182
 993 390 993 390 993 423 c 1,163,-1
342 538 m 1,183,184
 375 612 375 612 375 633.5 c 128,-1,185
 375 655 375 655 366.5 661 c 128,-1,186
 358 667 358 667 358 673 c 0,187,188
 358 684 358 684 369 684 c 0,189,190
 437 682 437 682 491 643 c 0,191,192
 500 636 500 636 510 621 c 1,193,194
 518 633 518 633 532 651.5 c 128,-1,195
 546 670 546 670 566 703 c 128,-1,196
 586 736 586 736 589 776 c 0,197,198
 589 786 589 786 601 786 c 128,-1,199
 613 786 613 786 613 776 c 0,200,201
 616 736 616 736 636 703 c 128,-1,202
 656 670 656 670 670 651.5 c 128,-1,203
 684 633 684 633 692 621 c 1,204,205
 701 637 701 637 711 643 c 0,206,207
 768 684 768 684 832 684 c 0,208,209
 844 684 844 684 844 673 c 0,210,211
 844 667 844 667 839 664 c 0,212,213
 827 656 827 656 827 634.5 c 128,-1,214
 827 613 827 613 860 538 c 1,215,216
 869 562 869 562 888 579 c 0,217,218
 930 613 930 613 1014 622 c 0,219,220
 1021 623 1021 623 1035 623 c 2,221,-1
 1066 623 l 2,222,223
 1080 623 1080 623 1080 609 c 0,224,225
 1080 599 1080 599 1071 596 c 0,226,227
 1030 581 1030 581 1030 474 c 1,228,-1
 1035 393 l 1,229,230
 1035 367 1035 367 1031 341 c 1,231,232
 1057 356 1057 356 1096 356 c 128,-1,233
 1135 356 1135 356 1171 331 c 0,234,235
 1176 327 1176 327 1176 321 c 0,236,237
 1176 311 1176 311 1161 306.5 c 128,-1,238
 1146 302 1146 302 1130 256 c 128,-1,239
 1114 210 1114 210 1058 185 c 1,240,241
 1075 176 1075 176 1088 162 c 0,242,243
 1125 121 1125 121 1135 67 c 0,244,245
 1137 59 1137 59 1133 54.5 c 128,-1,246
 1129 50 1129 50 1123 50 c 2,247,-1
 1102 52 l 1,248,249
 1091 52 1091 52 1081.5 50.5 c 128,-1,250
 1072 49 1072 49 1052.5 46 c 128,-1,251
 1033 43 1033 43 986.5 35.5 c 128,-1,252
 940 28 940 28 918 26 c 1,253,254
 941 -12 941 -12 941 -48 c 0,255,256
 941 -81 941 -81 934 -109 c 0,257,258
 931 -121 931 -121 919 -120 c 0,259,260
 769 -120 769 -120 705 -50 c 1,261,262
 670 -129 670 -129 603 -182 c 0,263,264
 602 -183 602 -183 601 -183 c 128,-1,265
 600 -183 600 -183 599 -182 c 0,266,267
 532 -128 532 -128 497 -50 c 1,268,269
 433 -120 433 -120 288 -120 c 0,270,271
 271 -120 271 -120 268 -109 c 0,272,273
 261 -86 261 -86 261 -68 c 0,274,275
 261 -13 261 -13 284 26 c 1,276,-1
 100 52 l 1,277,-1
 79 50 l 1,278,279
 66 50 66 50 66 63 c 0,280,281
 66 65 66 65 67 67 c 0,282,283
 78 121 78 121 114 162 c 0,284,285
 127 176 127 176 144 185 c 1,286,287
 88 209 88 209 71 260 c 0,288,289
 56 302 56 302 36 308 c 0,290,291
 27 311 27 311 26.5 319 c 128,-1,292
 26 327 26 327 31 331 c 0,293,294
 67 356 67 356 106 356 c 128,-1,295
 145 356 145 356 171 341 c 1,296,297
 167 365 167 365 167 378.5 c 128,-1,298
 167 392 167 392 172 473 c 1,299,300
 172 581 172 581 131 596 c 0,301,302
 122 599 122 599 122 609 c 0,303,304
 122 623 122 623 136 623 c 2,305,-1
 173 623 l 2,306,307
 199 623 199 623 235 614 c 0,308,309
 279 607 279 607 314 579 c 0,310,311
 333 561 333 561 342 538 c 1,183,184
531 -22 m 1,312,313
 551 -90 551 -90 601 -139 c 1,314,315
 651 -90 651 -90 671 -22 c 1,316,317
 658 83 658 83 601 172 c 1,318,319
 544 83 544 83 531 -22 c 1,312,313
EndSplineSet
Validated: 3073
EndChar

